{
.appVersion = "1193";
DisplayStrings = (
"/Lcaron/Odieresismacron Ú/abrevegrave/abrevehookabove/ecircumflexhookabove ï/lcaron/otildemacron/rcommaaccent ú",
"/dcaron  /lcaron  /tcaron"
);
date = "2016-03-09 15:11:54 +0000";
familyName = Tomorrow;
featurePrefixes = (
{
automatic = 1;
code = "languagesystem DFLT dflt;\012languagesystem latn dflt;\012languagesystem latn ROM;\012languagesystem latn MOL;\012languagesystem latn KAZ;\012languagesystem latn TAT;\012languagesystem latn TRK;\012languagesystem latn CRT;\012languagesystem latn AZE;\012";
name = Languagesystems;
}
);
features = (
{
automatic = 1;
code = "feature ccmp;\012feature locl;\012feature ordn;\012";
name = aalt;
},
{
automatic = 1;
code = "lookup ccmp_Other_1 {\012	@CombiningTopAccents = [acutecomb brevecomb caroncomb circumflexcomb commaturnedabovecomb dieresiscomb dotaccentcomb gravecomb hungarumlautcomb macroncomb ringcomb tildecomb];\012	@CombiningNonTopAccents = [cedillacomb ogonekcomb slashlongcomb slashshortcomb strokeshortcomb];\012	sub [i]' @CombiningTopAccents by [idotless];\012	sub [i]' @CombiningNonTopAccents @CombiningTopAccents by [idotless];\012} ccmp_Other_1;\012";
disabled = 1;
name = ccmp;
},
{
automatic = 1;
code = "script latn;\012language ROM;\012sub Scedilla by Scommaaccent;\012sub scedilla by scommaaccent;\012sub Tcedilla by Tcommaaccent;\012sub tcedilla by tcommaaccent;\012language MOL;\012sub Scedilla by Scommaaccent;\012sub scedilla by scommaaccent;\012sub Tcedilla by Tcommaaccent;\012sub tcedilla by tcommaaccent;\012language KAZ;\012sub i by idotaccent;\012language TAT;\012sub i by idotaccent;\012language TRK;\012sub i by idotaccent;\012language CRT;\012sub i by idotaccent;\012language AZE;\012sub i by idotaccent;\012";
name = locl;
},
{
automatic = 1;
code = "sub [zero one two three four five six seven eight nine] [A a]' by ordfeminine;\012sub [zero one two three four five six seven eight nine] [O o]' by ordmasculine;\012";
name = ordn;
}
);
fontMaster = (
{
ascender = 800;

glyphs = (
{
glyphname = A;
lastChange = "2019-04-12 13:01:23 +0000";
layers = (
{
anchors = (
{
name = bottom;
position = "{331, 0}";
},
{
name = ogonek;
position = "{574, 0}";
},
{
name = top;
position = "{331, 670}";
}
);
layerId = "16E083CF-37A0-4840-9CF0-495EAF69E79B";
leftMetricsKey = "=0";
rightMetricsKey = "=0";
paths = (
{
closed = 1;
nodes = (
"180 0 LINE",
"319 542 LINE",
"351 542 LINE",
"490 0 LINE",
"670 0 LINE",
"473 670 LINE",
"197 670 LINE",
"0 0 LINE"
);
},
{
closed = 1;
nodes = (
"484 134 LINE",
"484 265 LINE",
"187 265 LINE",
"187 134 LINE"
);
}
);
width = 670;
},
{
anchors = (
{
name = bottom;
position = "{312, 0}";
},
{
name = ogonek;
position = "{571, 0}";
},
{
name = top;
position = "{312, 670}";
}
);
guideLines = (
{
angle = 90;
position = "{312.5, 670}";
}
);
layerId = "20086791-C5B6-4597-997A-CAD8F8E58507";
paths = (
{
closed = 1;
nodes = (
"131 0 LINE",
"302 562 LINE",
"324 562 LINE",
"495 0 LINE",
"616 0 LINE",
"398 670 LINE",
"228 670 LINE",
"10 0 LINE"
);
},
{
closed = 1;
nodes = (
"487 163 LINE",
"487 263 LINE",
"139 263 LINE",
"139 163 LINE"
);
}
);
width = 626;
}
);
leftKerningGroup = A;
rightKerningGroup = A;
unicode = 0041;
},
{
glyphname = Aogonek;
lastChange = "2019-04-12 13:01:23 +0000";
layers = (
{
components = (
{
name = A;
}
);
layerId = "16E083CF-37A0-4840-9CF0-495EAF69E79B";
paths = (
{
closed = 1;
nodes = (
"585 -164 LINE",
"585 -71 LINE",
"560 -71 LINE",
"543 -55 LINE",
"543 -30 LINE",
"574 0 LINE",
"490 0 LINE",
"449 -30 LINE",
"449 -104 LINE",
"515 -164 LINE"
);
}
);
width = 670;
},
{
components = (
{
name = A;
}
);
layerId = "20086791-C5B6-4597-997A-CAD8F8E58507";
paths = (
{
closed = 1;
nodes = (
"571 -156 LINE",
"571 -82 LINE",
"542 -82 LINE",
"523 -63 LINE",
"523 -35 LINE",
"571 0 LINE",
"495 0 LINE",
"454 -30 LINE",
"454 -98 LINE",
"512 -156 LINE"
);
}
);
width = 626;
}
);
leftKerningGroup = A;
leftMetricsKey = A;
rightKerningGroup = A;
unicode = 0104;
},
{
glyphname = AE;
lastChange = "2019-04-12 13:01:23 +0000";
layers = (
{
components = (
{
name = A;
}
);
layerId = "16E083CF-37A0-4840-9CF0-495EAF69E79B";
paths = (
{
closed = 1;
nodes = (
"942 522 LINE",
"942 670 LINE",
"426 670 LINE",
"426 522 LINE"
);
},
{
closed = 1;
nodes = (
"942 0 LINE",
"942 148 LINE",
"531 148 LINE",
"531 0 LINE"
);
},
{
closed = 1;
nodes = (
"942 0 LINE",
"942 148 LINE",
"531 148 LINE",
"531 0 LINE"
);
},
{
closed = 1;
nodes = (
"908 275 LINE",
"908 413 LINE",
"531 413 LINE",
"531 275 LINE"
);
},
{
closed = 1;
nodes = (
"908 275 LINE",
"908 413 LINE",
"531 413 LINE",
"531 275 LINE"
);
}
);
width = 992;
},
{
components = (
{
name = A;
}
);
layerId = "20086791-C5B6-4597-997A-CAD8F8E58507";
paths = (
{
closed = 1;
nodes = (
"870 566 LINE",
"870 670 LINE",
"380 670 LINE",
"380 566 LINE"
);
},
{
closed = 1;
nodes = (
"870 0 LINE",
"870 104 LINE",
"557 104 LINE",
"557 0 LINE"
);
},
{
closed = 1;
nodes = (
"870 0 LINE",
"870 104 LINE",
"557 104 LINE",
"557 0 LINE"
);
},
{
closed = 1;
nodes = (
"840 299 LINE",
"840 403 LINE",
"433 403 LINE",
"433 299 LINE"
);
},
{
closed = 1;
nodes = (
"840 299 LINE",
"840 403 LINE",
"433 403 LINE",
"433 299 LINE"
);
}
);
width = 930;
}
);
leftKerningGroup = A;
leftMetricsKey = A;
rightKerningGroup = E;
rightMetricsKey = E;
unicode = 00C6;
},
{
glyphname = B;
lastChange = "2019-04-12 13:01:23 +0000";
layers = (
{
components = (
{
name = _part.H;
transform = "{1, 0, 0, 1, -38, 0}";
}
);
hints = (
{
origin = "{0, 0}";
type = Corner;
name = _corner.dia_esq;
options = 1;
},
{
origin = "{0, 4}";
type = Corner;
name = _corner.dia_dir;
options = 1;
}
);
layerId = "16E083CF-37A0-4840-9CF0-495EAF69E79B";
paths = (
{
closed = 1;
nodes = (
"645 0 LINE",
"645 295 LINE",
"573 362 LINE",
"619 408 LINE",
"619 670 LINE",
"109 670 LINE",
"109 541 LINE",
"424 541 LINE",
"456 509 LINE",
"456 442 LINE",
"424 410 LINE",
"194 410 LINE",
"194 292 LINE",
"443 292 LINE",
"475 260 LINE",
"475 161 LINE",
"443 129 LINE",
"109 129 LINE",
"109 0 LINE"
);
}
);
width = 690;
},
{
background = {
paths = (
{
closed = 1;
nodes = (
"601 0 LINE",
"601 290 LINE",
"528 363 LINE",
"571 412 LINE",
"571 670 LINE",
"160 670 LINE",
"160 570 LINE",
"407 570 LINE",
"457 520 LINE",
"457 451 LINE",
"417 401 LINE",
"160 401 LINE",
"160 301 LINE",
"437 301 LINE",
"487 251 LINE",
"487 150 LINE",
"437 100 LINE",
"160 100 LINE",
"160 0 LINE"
);
}
);
};
components = (
{
name = _part.H;
transform = "{1, 0, 0, 1, -50, 0}";
}
);
guideLines = (
{
angle = -42.7359;
position = "{543.375, 353.375}";
showMeasurement = 1;
}
);
hints = (
{
origin = "{0, 0}";
type = Corner;
name = _corner.dia_esq;
options = 1;
},
{
origin = "{0, 4}";
type = Corner;
name = _corner.dia_dir;
options = 1;
}
);
layerId = "20086791-C5B6-4597-997A-CAD8F8E58507";
paths = (
{
closed = 1;
nodes = (
"601 0 LINE",
"601 290 LINE",
"528 363 LINE",
"571 412 LINE",
"571 670 LINE",
"160 670 LINE",
"160 570 LINE",
"417 570 LINE",
"457 530 LINE",
"457 445.875 LINE",
"417.5 401 LINE",
"160 401 LINE",
"160 301 LINE",
"447 301.25 LINE",
"487.125 261 LINE",
"487 140 LINE",
"447 100 LINE",
"160 100 LINE",
"160 0 LINE"
);
}
);
width = 671;
}
);
leftKerningGroup = H;
leftMetricsKey = H;
rightKerningGroup = B;
unicode = 0042;
},
{
glyphname = C;
lastChange = "2019-04-12 13:01:23 +0000";
layers = (
{
anchors = (
{
name = botton;
position = "{333, 0}";
},
{
name = top;
position = "{327, 670}";
}
);
hints = (
{
origin = "{0, 12}";
type = Corner;
name = _corner.dia_esq;
options = 1;
},
{
origin = "{0, 13}";
type = Corner;
name = _corner.dia_dir;
options = 1;
}
);
layerId = "16E083CF-37A0-4840-9CF0-495EAF69E79B";
paths = (
{
closed = 1;
nodes = (
"502 0 LINE",
"603 101 LINE",
"495 200 LINE",
"422 129 LINE",
"252 129 LINE",
"220 161 LINE",
"220 509 LINE",
"252 541 LINE",
"416 541 LINE",
"489 470 LINE",
"597 569 LINE",
"496 670 LINE",
"50 670 LINE",
"50 0 LINE"
);
}
);
width = 643;
},
{
anchors = (
{
name = botton;
position = "{322, 0}";
},
{
name = top;
position = "{328, 670}";
}
);
background = {
paths = (
{
closed = 1;
nodes = (
"600 0 LINE",
"600 670 LINE",
"70 670 LINE",
"70 0 LINE"
);
},
{
closed = 1;
nodes = (
"184 570 LINE",
"486 570 LINE",
"486 100 LINE",
"184 100 LINE"
);
}
);
};
hints = (
{
origin = "{0, 12}";
type = Corner;
name = _corner.dia_esq;
options = 1;
},
{
origin = "{0, 13}";
type = Corner;
name = _corner.dia_dir;
options = 1;
}
);
layerId = "20086791-C5B6-4597-997A-CAD8F8E58507";
paths = (
{
closed = 1;
nodes = (
"495 0 LINE",
"587 92 LINE",
"515 165 LINE",
"449 100 LINE",
"224 100 LINE",
"184 140 LINE",
"184 532 LINE",
"226 570 LINE",
"441 570 LINE",
"507 505 LINE",
"579 578 LINE",
"487 670 LINE",
"70 670 LINE",
"70 0 LINE"
);
}
);
width = 617;
},
{
anchors = (
{
name = botton;
position = "{333, 0}";
},
{
name = top;
position = "{327, 670}";
}
);
associatedMasterId = "16E083CF-37A0-4840-9CF0-495EAF69E79B";
hints = (
{
origin = "{0, 17}";
type = Corner;
name = _corner.dia_dir;
options = 1;
},
{
origin = "{0, 16}";
type = Corner;
name = _corner.dia_esq;
options = 1;
}
);
layerId = "489CBB3F-805F-4E7A-997C-16EBC43A1D1B";
name = "Bold[150]";
paths = (
{
closed = 1;
nodes = (
"502 0 LINE",
"603 101 LINE",
"603 237 LINE",
"438 237 LINE",
"438 161 LINE",
"405 129 LINE",
"253 129 LINE",
"220 161 LINE",
"220 509 LINE",
"253 541 LINE",
"399 541 LINE",
"432 509 LINE",
"432 434 LINE",
"597 434 LINE",
"597 569 LINE",
"496 670 LINE",
"50 670 LINE",
"50 0 LINE"
);
}
);
width = 643;
}
);
leftKerningGroup = O;
leftMetricsKey = O;
rightKerningGroup = C;
unicode = 0043;
},
{
glyphname = D;
lastChange = "2019-04-12 13:01:23 +0000";
layers = (
{
anchors = (
{
name = center;
position = "{160, 340}";
},
{
name = top;
position = "{326, 670}";
}
);
components = (
{
name = _part.H;
transform = "{1, 0, 0, 1, -38, 0}";
}
);
layerId = "16E083CF-37A0-4840-9CF0-495EAF69E79B";
paths = (
{
closed = 1;
nodes = (
"508 0 LINE",
"647 139 LINE",
"647 531 LINE",
"508 670 LINE",
"109 670 LINE",
"109 541 LINE",
"434 541 LINE",
"482 493 LINE",
"482 177 LINE",
"434 129 LINE",
"109 129 LINE",
"109 0 LINE"
);
}
);
width = 687;
},
{
anchors = (
{
name = center;
position = "{166, 340}";
},
{
name = top;
position = "{315, 670}";
}
);
components = (
{
name = _part.H;
transform = "{1, 0, 0, 1, -50, 0}";
}
);
layerId = "20086791-C5B6-4597-997A-CAD8F8E58507";
paths = (
{
closed = 1;
nodes = (
"471 0 LINE",
"612 141 LINE",
"612 529 LINE",
"471 670 LINE",
"162 670 LINE",
"162 570 LINE",
"418 570 LINE",
"498 490 LINE",
"498 180 LINE",
"418 100 LINE",
"162 100 LINE",
"162 0 LINE"
);
}
);
width = 642;
}
);
leftKerningGroup = H;
leftMetricsKey = H;
rightKerningGroup = D;
rightMetricsKey = C;
unicode = 0044;
},
{
glyphname = E;
lastChange = "2019-04-12 13:01:23 +0000";
layers = (
{
anchors = (
{
name = bottom;
position = "{325, 0}";
},
{
name = ogonek;
position = "{580, 0}";
},
{
name = top;
position = "{326, 670}";
}
);
components = (
{
name = _part.H;
transform = "{1, 0, 0, 1, -38, 0}";
}
);
layerId = "16E083CF-37A0-4840-9CF0-495EAF69E79B";
paths = (
{
closed = 1;
nodes = (
"580 532 LINE",
"580 670 LINE",
"169 670 LINE",
"169 532 LINE"
);
},
{
closed = 1;
nodes = (
"580 0 LINE",
"580 138 LINE",
"169 138 LINE",
"169 0 LINE"
);
},
{
closed = 1;
nodes = (
"546 280 LINE",
"546 408 LINE",
"169 408 LINE",
"169 280 LINE"
);
}
);
width = 630;
},
{
anchors = (
{
name = bottom;
position = "{312, 0}";
},
{
name = ogonek;
position = "{543, 0}";
},
{
name = top;
position = "{312, 670}";
}
);
components = (
{
name = _part.H;
transform = "{1, 0, 0, 1, -50, 0}";
}
);
layerId = "20086791-C5B6-4597-997A-CAD8F8E58507";
paths = (
{
closed = 1;
nodes = (
"543 566 LINE",
"543 670 LINE",
"147 670 LINE",
"147 566 LINE"
);
},
{
closed = 1;
nodes = (
"543 0 LINE",
"543 104 LINE",
"147 104 LINE",
"147 0 LINE"
);
},
{
closed = 1;
nodes = (
"513 299 LINE",
"513 403 LINE",
"147 403 LINE",
"147 299 LINE"
);
}
);
width = 603;
}
);
leftKerningGroup = H;
leftMetricsKey = H;
rightKerningGroup = E;
unicode = 0045;
},
{
glyphname = Eogonek;
lastChange = "2019-04-12 13:01:23 +0000";
layers = (
{
anchors = (
{
name = _ogonek;
position = "{580, 0}";
}
);
components = (
{
name = E;
}
);
layerId = "16E083CF-37A0-4840-9CF0-495EAF69E79B";
paths = (
{
closed = 1;
nodes = (
"580 -164 LINE",
"580 -71 LINE",
"566 -71 LINE",
"549 -55 LINE",
"549 -30 LINE",
"580 0 LINE",
"496 0 LINE",
"455 -30 LINE",
"455 -104 LINE",
"521 -164 LINE"
);
}
);
width = 630;
},
{
anchors = (
{
name = _ogonek;
position = "{543, 0}";
}
);
components = (
{
name = E;
}
);
layerId = "20086791-C5B6-4597-997A-CAD8F8E58507";
paths = (
{
closed = 1;
nodes = (
"543 -156 LINE",
"543 -82 LINE",
"514 -82 LINE",
"495 -63 LINE",
"495 -35 LINE",
"543 0 LINE",
"467 0 LINE",
"426 -30 LINE",
"426 -98 LINE",
"484 -156 LINE"
);
}
);
width = 603;
}
);
leftMetricsKey = E;
rightKerningGroup = E;
rightMetricsKey = E;
unicode = 0118;
},
{
glyphname = F;
lastChange = "2019-04-12 13:01:23 +0000";
layers = (
{
components = (
{
name = _part.H;
transform = "{1, 0, 0, 1, -38, 0}";
}
);
layerId = "16E083CF-37A0-4840-9CF0-495EAF69E79B";
paths = (
{
closed = 1;
nodes = (
"574 532 LINE",
"574 670 LINE",
"169 670 LINE",
"169 532 LINE"
);
},
{
closed = 1;
nodes = (
"532 262 LINE",
"532 390 LINE",
"169 390 LINE",
"169 262 LINE"
);
}
);
width = 589;
},
{
components = (
{
name = _part.H;
transform = "{1, 0, 0, 1, -50, 0}";
}
);
layerId = "20086791-C5B6-4597-997A-CAD8F8E58507";
paths = (
{
closed = 1;
nodes = (
"533 566 LINE",
"533 670 LINE",
"147 670 LINE",
"147 566 LINE"
);
},
{
closed = 1;
nodes = (
"493 287 LINE",
"493 391 LINE",
"147 391 LINE",
"147 287 LINE"
);
}
);
width = 553;
}
);
leftKerningGroup = H;
leftMetricsKey = H;
rightKerningGroup = F;
unicode = 0046;
},
{
glyphname = G;
lastChange = "2019-04-12 13:01:23 +0000";
layers = (
{
anchors = (
{
name = botton;
position = "{334, 0}";
},
{
name = top;
position = "{343, 670}";
}
);
background = {
hints = (
{
origin = "{0, 14}";
type = Corner;
name = _corner.dia_esq;
options = 1;
},
{
origin = "{0, 15}";
type = Corner;
name = _corner.dia_dir;
options = 1;
}
);
paths = (
{
closed = 1;
nodes = (
"425 0 LINE",
"570 127 LINE",
"524 261 LINE",
"385 139 LINE",
"273 139 LINE",
"240 172 LINE",
"240 499 LINE",
"273 531 LINE",
"398 531 LINE",
"431 499 LINE",
"431 446 LINE",
"626 445 LINE",
"626 569 LINE",
"525 670 LINE",
"50 670 LINE",
"50 0 LINE"
);
}
);
};
hints = (
{
origin = "{0, 13}";
type = Corner;
name = _corner.dia_dir;
options = 1;
},
{
origin = "{0, 12}";
type = Corner;
name = _corner.dia_esq;
options = 1;
}
);
layerId = "16E083CF-37A0-4840-9CF0-495EAF69E79B";
paths = (
{
closed = 1;
nodes = (
"425 0 LINE",
"570 127 LINE",
"534 251 LINE",
"395 129 LINE",
"252 129 LINE",
"220 161 LINE",
"220 509 LINE",
"252 541 LINE",
"445 541 LINE",
"518 470 LINE",
"626 569 LINE",
"525 670 LINE",
"50 670 LINE",
"50 0 LINE"
);
},
{
closed = 1;
nodes = (
"636 0 LINE",
"636 360 LINE",
"360 360 LINE",
"360 230 LINE",
"483 230 LINE",
"483 148 LINE",
"493 130 LINE",
"493 0 LINE"
);
}
);
width = 696;
},
{
anchors = (
{
name = botton;
position = "{315, 0}";
},
{
name = top;
position = "{329, 670}";
}
);
background = {
paths = (
{
closed = 1;
nodes = (
"426 0 LINE",
"594 150 LINE",
"544 227 LINE",
"402 100 LINE",
"234 100 LINE",
"184 150 LINE",
"184 520 LINE",
"234 570 LINE",
"454 570 LINE",
"522 503 LINE",
"597 579 LINE",
"506 670 LINE",
"70 670 LINE",
"70 0 LINE"
);
},
{
closed = 1;
nodes = (
"597 0 LINE",
"597 372 LINE",
"350 372 LINE",
"350 268 LINE",
"503 268 LINE",
"503 0 LINE"
);
}
);
};
hints = (
{
origin = "{0, 12}";
type = Corner;
name = _corner.dia_esq;
options = 1;
},
{
origin = "{0, 13}";
type = Corner;
name = _corner.dia_dir;
options = 1;
}
);
layerId = "20086791-C5B6-4597-997A-CAD8F8E58507";
paths = (
{
closed = 1;
nodes = (
"426 0 LINE",
"594 150 LINE",
"544 230 LINE",
"398 100 LINE",
"224 100 LINE",
"184 140 LINE",
"184 530 LINE",
"224 570 LINE",
"458 570 LINE",
"524 505 LINE",
"596 578 LINE",
"504 670 LINE",
"70 670 LINE",
"70 0 LINE"
);
},
{
closed = 1;
nodes = (
"597 0 LINE",
"597 368 LINE",
"350 368 LINE",
"350 268 LINE",
"503 268 LINE",
"503 159 LINE",
"503 114 LINE",
"503 0 LINE"
);
}
);
width = 682;
},
{
anchors = (
{
name = botton;
position = "{334, 0}";
},
{
name = top;
position = "{343, 670}";
}
);
associatedMasterId = "16E083CF-37A0-4840-9CF0-495EAF69E79B";
background = {
paths = (
{
closed = 1;
nodes = (
"425 0 LINE",
"570 127 LINE",
"524 261 LINE",
"385 139 LINE",
"273 139 LINE",
"240 172 LINE",
"240 499 LINE",
"273 531 LINE",
"398 531 LINE",
"431 499 LINE",
"431 446 LINE",
"626 445 LINE",
"626 569 LINE",
"525 670 LINE",
"50 670 LINE",
"50 0 LINE"
);
}
);
};
hints = (
{
origin = "{0, 15}";
type = Corner;
name = _corner.dia_dir;
options = 1;
},
{
origin = "{0, 14}";
type = Corner;
name = _corner.dia_esq;
options = 1;
}
);
layerId = "2FADD897-1654-4DF9-A8F2-FC11C3E99166";
name = "Bold[150]";
paths = (
{
closed = 1;
nodes = (
"425 0 LINE",
"570 127 LINE",
"534 251 LINE",
"395 129 LINE",
"253 129 LINE",
"220 162 LINE",
"220 509 LINE",
"253 541 LINE",
"428 541 LINE",
"461 509 LINE",
"461 446 LINE",
"626 445 LINE",
"626 569 LINE",
"525 670 LINE",
"50 670 LINE",
"50 0 LINE"
);
},
{
closed = 1;
nodes = (
"636 0 LINE",
"636 360 LINE",
"360 360 LINE",
"360 230 LINE",
"483 230 LINE",
"483 148 LINE",
"493 130 LINE",
"493 0 LINE"
);
}
);
width = 696;
},
{
anchors = (
{
name = botton;
position = "{315, 0}";
},
{
name = top;
position = "{329, 670}";
}
);
associatedMasterId = "20086791-C5B6-4597-997A-CAD8F8E58507";
background = {
paths = (
{
closed = 1;
nodes = (
"426 0 LINE",
"594 150 LINE",
"544 227 LINE",
"402 100 LINE",
"234 100 LINE",
"184 150 LINE",
"184 520 LINE",
"234 570 LINE",
"454 570 LINE",
"522 503 LINE",
"597 579 LINE",
"506 670 LINE",
"70 670 LINE",
"70 0 LINE"
);
},
{
closed = 1;
nodes = (
"597 0 LINE",
"597 372 LINE",
"350 372 LINE",
"350 268 LINE",
"503 268 LINE",
"503 0 LINE"
);
}
);
};
hints = (
{
origin = "{0, 12}";
type = Corner;
name = _corner.dia_esq;
options = 1;
},
{
origin = "{0, 13}";
type = Corner;
name = _corner.dia_dir;
options = 1;
}
);
layerId = "2E029566-D3A2-48A4-9F1E-0CCA807B0124";
name = "Regular[150]";
paths = (
{
closed = 1;
nodes = (
"426 0 LINE",
"594 150 LINE",
"544 230 LINE",
"398 100 LINE",
"224 100 LINE",
"184 140 LINE",
"184 530 LINE",
"224 570 LINE",
"458 570 LINE",
"524 505 LINE",
"596 578 LINE",
"504 670 LINE",
"70 670 LINE",
"70 0 LINE"
);
},
{
closed = 1;
nodes = (
"597 0 LINE",
"597 368 LINE",
"350 368 LINE",
"350 268 LINE",
"503 268 LINE",
"503 159 LINE",
"503 114 LINE",
"503 0 LINE"
);
}
);
width = 682;
}
);
leftKerningGroup = O;
leftMetricsKey = O;
rightKerningGroup = G;
unicode = 0047;
},
{
glyphname = H;
lastChange = "2019-04-12 13:01:23 +0000";
layers = (
{
anchors = (
{
name = top;
position = "{352, 670}";
}
);
components = (
{
name = _part.H;
transform = "{1, 0, 0, 1, -38, 0}";
},
{
name = _part.H;
transform = "{1, 0, 0, 1, 360, 0}";
}
);
layerId = "16E083CF-37A0-4840-9CF0-495EAF69E79B";
paths = (
{
closed = 1;
nodes = (
"519 288 LINE",
"519 421 LINE",
"185 421 LINE",
"185 288 LINE"
);
}
);
width = 708;
},
{
anchors = (
{
name = top;
position = "{335, 670}";
}
);
components = (
{
name = _part.H;
transform = "{1, 0, 0, 1, -50, 0}";
},
{
name = _part.H;
transform = "{1, 0, 0, 1, 357, 0}";
}
);
layerId = "20086791-C5B6-4597-997A-CAD8F8E58507";
paths = (
{
closed = 1;
nodes = (
"549 301 LINE",
"549 401 LINE",
"153 401 LINE",
"153 301 LINE"
);
}
);
width = 691;
}
);
leftKerningGroup = H;
rightKerningGroup = H;
unicode = 0048;
},
{
color = 0;
glyphname = Hbar;
lastChange = "2019-04-12 13:06:53 +0000";
layers = (
{
components = (
{
name = H;
}
);
layerId = "16E083CF-37A0-4840-9CF0-495EAF69E79B";
paths = (
{
closed = 1;
nodes = (
"693 488 LINE",
"693 595 LINE",
"15 595 LINE",
"15 488 LINE"
);
}
);
width = 708;
},
{
components = (
{
name = H;
transform = "{1, 0, 0, 1, -0.625, 0}";
}
);
layerId = "20086791-C5B6-4597-997A-CAD8F8E58507";
paths = (
{
closed = 1;
nodes = (
"661 485.25 LINE",
"661 575.25 LINE",
"30 575.25 LINE",
"30 485.25 LINE"
);
}
);
width = 691;
}
);
unicode = 0126;
},
{
glyphname = I;
lastChange = "2019-04-12 13:01:23 +0000";
layers = (
{
anchors = (
{
name = bottom;
position = "{195, 0}";
},
{
name = ogonek;
position = "{350, 0}";
},
{
name = top;
position = "{195, 670}";
},
{
name = topleft;
position = "{100, 670}";
}
);
layerId = "16E083CF-37A0-4840-9CF0-495EAF69E79B";
paths = (
{
closed = 1;
nodes = (
"350 542 LINE",
"350 670 LINE",
"40 670 LINE",
"40 542 LINE"
);
},
{
closed = 1;
nodes = (
"350 0 LINE",
"350 128 LINE",
"40 128 LINE",
"40 0 LINE"
);
},
{
closed = 1;
nodes = (
"273 0 LINE",
"277 670 LINE",
"113 670 LINE",
"115 0 LINE"
);
}
);
width = 390;
},
{
anchors = (
{
name = bottom;
position = "{190, 0}";
},
{
name = ogonek;
position = "{315, 0}";
},
{
name = top;
position = "{190, 670}";
},
{
name = topleft;
position = "{190, 670}";
}
);
layerId = "20086791-C5B6-4597-997A-CAD8F8E58507";
paths = (
{
closed = 1;
nodes = (
"315 566 LINE",
"315 670 LINE",
"65 670 LINE",
"65 566 LINE"
);
},
{
closed = 1;
nodes = (
"315 0 LINE",
"315 104 LINE",
"65 104 LINE",
"65 0 LINE"
);
},
{
closed = 1;
nodes = (
"247 0 LINE",
"247 670 LINE",
"133 670 LINE",
"133 0 LINE"
);
}
);
width = 380;
}
);
leftKerningGroup = H;
rightKerningGroup = H;
unicode = 0049;
},
{
glyphname = Iogonek;
lastChange = "2019-04-12 13:01:23 +0000";
layers = (
{
anchors = (
{
name = _ogonek;
position = "{350, 0}";
}
);
components = (
{
name = I;
}
);
layerId = "16E083CF-37A0-4840-9CF0-495EAF69E79B";
paths = (
{
closed = 1;
nodes = (
"350 -164 LINE",
"350 -71 LINE",
"336 -71 LINE",
"319 -55 LINE",
"319 -30 LINE",
"350 0 LINE",
"266 0 LINE",
"225 -30 LINE",
"225 -104 LINE",
"291 -164 LINE"
);
}
);
width = 390;
},
{
anchors = (
{
name = _ogonek;
position = "{315, 0}";
}
);
components = (
{
name = I;
}
);
layerId = "20086791-C5B6-4597-997A-CAD8F8E58507";
paths = (
{
closed = 1;
nodes = (
"315 -156 LINE",
"315 -82 LINE",
"286 -82 LINE",
"267 -63 LINE",
"267 -35 LINE",
"315 0 LINE",
"239 0 LINE",
"198 -30 LINE",
"198 -98 LINE",
"256 -156 LINE"
);
}
);
width = 380;
}
);
leftMetricsKey = I;
rightMetricsKey = I;
unicode = 012E;
},
{
glyphname = J;
lastChange = "2019-04-12 13:01:23 +0000";
layers = (
{
anchors = (
{
name = top;
position = "{474, 670}";
}
);
background = {
hints = (
{
origin = "{0, 0}";
type = Corner;
name = _corner.dia_esq;
options = 1;
}
);
paths = (
{
closed = 1;
nodes = (
"554 0 LINE",
"554 670 LINE",
"364 670 LINE",
"364 166 LINE",
"331 139 LINE",
"250 139 LINE",
"217 166 LINE",
"217 286 LINE",
"27 286 LINE",
"27 89 LINE",
"123 0 LINE"
);
}
);
};
hints = (
{
origin = "{0, 0}";
type = Corner;
name = _corner.dia_esq;
options = 1;
},
{
origin = "{0, 9}";
type = Corner;
name = _corner.dia_dir;
options = 1;
}
);
layerId = "16E083CF-37A0-4840-9CF0-495EAF69E79B";
paths = (
{
closed = 1;
nodes = (
"559 0 LINE",
"559 670 LINE",
"389 670 LINE",
"389 161 LINE",
"357 129 LINE",
"232 129 LINE",
"200 161 LINE",
"200 286 LINE",
"30 286 LINE",
"30 0 LINE"
);
}
);
width = 629;
},
{
anchors = (
{
name = top;
position = "{419, 670}";
}
);
background = {
paths = (
{
closed = 1;
nodes = (
"476 0 LINE",
"476 670 LINE",
"362 670 LINE",
"362 150 LINE",
"312 100 LINE",
"214 100 LINE",
"164 150 LINE",
"164 255 LINE",
"50 255 LINE",
"50 91 LINE",
"141 0 LINE"
);
}
);
};
hints = (
{
origin = "{0, 0}";
type = Corner;
name = _corner.dia_esq;
options = 1;
},
{
origin = "{0, 9}";
type = Corner;
name = _corner.dia_dir;
options = 1;
}
);
layerId = "20086791-C5B6-4597-997A-CAD8F8E58507";
paths = (
{
closed = 1;
nodes = (
"476 0 LINE",
"476 670 LINE",
"362 670 LINE",
"362 140 LINE",
"322 100 LINE",
"204 100 LINE",
"164 140 LINE",
"164 255 LINE",
"50 255 LINE",
"50 0 LINE"
);
}
);
width = 561;
}
);
rightKerningGroup = J;
rightMetricsKey = H;
unicode = 004A;
},
{
glyphname = K;
lastChange = "2019-04-12 13:01:23 +0000";
layers = (
{
anchors = (
{
name = botton;
position = "{308, 0}";
},
{
name = top;
position = "{323, 670}";
}
);
components = (
{
name = _part.H;
transform = "{1, 0, 0, 1, -38, 0}";
}
);
layerId = "16E083CF-37A0-4840-9CF0-495EAF69E79B";
paths = (
{
closed = 1;
nodes = (
"636 670 LINE",
"448 670 LINE",
"233 395 LINE",
"189 383 LINE",
"188 116 LINE"
);
},
{
closed = 1;
nodes = (
"636 0 LINE",
"354 450 LINE",
"258 338 LINE",
"455 0 LINE"
);
}
);
width = 636;
},
{
anchors = (
{
name = botton;
position = "{308, 0}";
},
{
name = top;
position = "{323, 670}";
}
);
components = (
{
name = _part.H;
transform = "{1, 0, 0, 1, -50, 0}";
}
);
layerId = "20086791-C5B6-4597-997A-CAD8F8E58507";
paths = (
{
closed = 1;
nodes = (
"625 670 LINE",
"491 670 LINE",
"221 362 LINE",
"161 362 LINE",
"161 132 LINE"
);
},
{
closed = 1;
nodes = (
"625 0 LINE",
"368 400 LINE",
"275 330 LINE",
"487 0 LINE"
);
}
);
width = 640;
}
);
leftKerningGroup = H;
leftMetricsKey = H;
rightKerningGroup = K;
unicode = 004B;
},
{
glyphname = L;
lastChange = "2019-04-12 13:01:23 +0000";
layers = (
{
anchors = (
{
name = botton;
position = "{306, 0}";
},
{
name = top;
position = "{155, 670}";
}
);
components = (
{
name = _part.H;
transform = "{1, 0, 0, 1, -38, 0}";
}
);
layerId = "16E083CF-37A0-4840-9CF0-495EAF69E79B";
paths = (
{
closed = 1;
nodes = (
"548 0 LINE",
"548 138 LINE",
"174 138 LINE",
"174 0 LINE"
);
}
);
width = 563;
},
{
anchors = (
{
name = botton;
position = "{308, 0}";
},
{
name = top;
position = "{142, 670}";
}
);
components = (
{
name = _part.H;
transform = "{1, 0, 0, 1, -50, 0}";
}
);
layerId = "20086791-C5B6-4597-997A-CAD8F8E58507";
paths = (
{
closed = 1;
nodes = (
"523 0 LINE",
"523 104 LINE",
"147 104 LINE",
"147 0 LINE"
);
}
);
width = 543;
}
);
leftKerningGroup = H;
leftMetricsKey = H;
rightKerningGroup = L;
unicode = 004C;
},
{
color = 0;
glyphname = Lslash;
lastChange = "2019-04-12 13:09:42 +0000";
layers = (
{
components = (
{
name = L;
}
);
layerId = "16E083CF-37A0-4840-9CF0-495EAF69E79B";
paths = (
{
closed = 1;
nodes = (
"391 376 LINE",
"391 493 LINE",
"12 327 LINE",
"12 210 LINE"
);
}
);
width = 563;
},
{
components = (
{
name = L;
}
);
layerId = "20086791-C5B6-4597-997A-CAD8F8E58507";
paths = (
{
closed = 1;
nodes = (
"343 364 LINE",
"343 476 LINE",
"35 342 LINE",
"35 229 LINE"
);
}
);
width = 543;
}
);
rightKerningGroup = L;
rightMetricsKey = L;
unicode = 0141;
},
{
glyphname = M;
lastChange = "2019-04-12 13:01:23 +0000";
layers = (
{
components = (
{
name = _part.H;
transform = "{0.93, 0, 0, 1, 489, 0}";
},
{
name = _part.H;
transform = "{0.93, 0, 0, 1, -30, 0}";
}
);
layerId = "16E083CF-37A0-4840-9CF0-495EAF69E79B";
paths = (
{
closed = 1;
nodes = (
"449 29 LINE",
"590 369 LINE",
"697 369 LINE",
"694 670 LINE",
"582 670 LINE",
"409 263 LINE",
"236 670 LINE",
"124 670 LINE",
"121 369 LINE",
"228 369 LINE",
"369 29 LINE"
);
}
);
width = 818;
},
{
components = (
{
name = _part.H;
transform = "{1, 0, 0, 1, 508, 0}";
},
{
name = _part.H;
transform = "{1, 0, 0, 1, -50, 0}";
}
);
layerId = "20086791-C5B6-4597-997A-CAD8F8E58507";
paths = (
{
closed = 1;
nodes = (
"453 0 LINE",
"643 468 LINE",
"725 468 LINE",
"725 670 LINE",
"613 670 LINE",
"421 184 LINE",
"229 670 LINE",
"117 670 LINE",
"113 468 LINE",
"199 468 LINE",
"389 0 LINE"
);
}
);
width = 842;
}
);
leftKerningGroup = M;
leftMetricsKey = H;
rightKerningGroup = M;
rightMetricsKey = H;
unicode = 004D;
},
{
glyphname = N;
lastChange = "2019-04-12 13:01:23 +0000";
layers = (
{
anchors = (
{
name = botton;
position = "{343, 0}";
},
{
name = top;
position = "{346, 670}";
}
);
components = (
{
name = _part.H;
transform = "{0.93, 0, 0, 1, 381, 0}";
},
{
name = _part.H;
transform = "{0.93, 0, 0, 1, -30, 0}";
}
);
layerId = "16E083CF-37A0-4840-9CF0-495EAF69E79B";
paths = (
{
closed = 1;
nodes = (
"568 0 LINE",
"568 267 LINE",
"482 267 LINE",
"256 670 LINE",
"156 670 LINE",
"156 393 LINE",
"261 393 LINE",
"481 0 LINE"
);
}
);
width = 710;
},
{
anchors = (
{
name = botton;
position = "{348, 0}";
},
{
name = top;
position = "{347, 670}";
}
);
components = (
{
name = _part.H;
transform = "{1, 0, 0, 1, 362, 0}";
},
{
name = _part.H;
transform = "{1, 0, 0, 1, -50, 0}";
}
);
guideLines = (
{
angle = 29.8077;
position = "{477, 293}";
showMeasurement = 1;
}
);
layerId = "20086791-C5B6-4597-997A-CAD8F8E58507";
paths = (
{
closed = 1;
nodes = (
"580 0 LINE",
"580 202 LINE",
"497 202 LINE",
"231 670 LINE",
"127 670 LINE",
"127 468 LINE",
"221 468 LINE",
"487 0 LINE"
);
}
);
width = 696;
}
);
leftKerningGroup = H;
leftMetricsKey = H;
rightKerningGroup = H;
rightMetricsKey = H;
unicode = 004E;
},
{
color = 0;
glyphname = Eng;
lastChange = "2019-04-12 13:10:28 +0000";
layers = (
{
components = (
{
name = _part.H;
transform = "{0.93, 0, 0, 1, -30, 0}";
}
);
layerId = "16E083CF-37A0-4840-9CF0-495EAF69E79B";
paths = (
{
closed = 1;
nodes = (
"544 -170 LINE",
"640 -82 LINE",
"640 38 LINE",
"481 38 LINE",
"481 -46 LINE",
"457 -71 LINE",
"389 -71 LINE",
"389 -170 LINE"
);
},
{
closed = 1;
nodes = (
"568 0 LINE",
"568 267 LINE",
"482 267 LINE",
"256 670 LINE",
"156 670 LINE",
"156 393 LINE",
"261 393 LINE",
"481 0 LINE"
);
},
{
closed = 1;
nodes = (
"640 0 LINE",
"640 670 LINE",
"481 670 LINE",
"481 0 LINE"
);
}
);
width = 710;
},
{
components = (
{
name = _part.H;
transform = "{1, 0, 0, 1, -50, 0}";
}
);
layerId = "20086791-C5B6-4597-997A-CAD8F8E58507";
paths = (
{
closed = 1;
nodes = (
"519 -170 LINE",
"611 -80 LINE",
"611 39 LINE",
"487 39 LINE",
"487 -41 LINE",
"451 -80 LINE",
"401 -80 LINE",
"401 -170 LINE"
);
},
{
closed = 1;
nodes = (
"580 0 LINE",
"580 202 LINE",
"497 202 LINE",
"231 670 LINE",
"127 670 LINE",
"127 468 LINE",
"221 468 LINE",
"487 0 LINE"
);
},
{
closed = 1;
nodes = (
"611 0 LINE",
"611 670 LINE",
"497 670 LINE",
"497 0 LINE"
);
}
);
width = 696;
}
);
leftMetricsKey = N;
rightMetricsKey = N;
unicode = 014A;
},
{
glyphname = O;
lastChange = "2019-04-12 13:01:23 +0000";
layers = (
{
anchors = (
{
name = bottom;
position = "{347, 0}";
},
{
name = center;
position = "{347, 335}";
},
{
name = horn;
position = "{580, 586}";
},
{
name = ogonek;
position = "{543, 0}";
},
{
name = top;
position = "{347, 670}";
},
{
name = topleft;
position = "{24, 670}";
},
{
name = topright;
position = "{671, 670}";
}
);
hints = (
{
origin = "{0, 1}";
type = Corner;
name = _corner.dia_dir;
options = 1;
},
{
origin = "{0, 0}";
type = Corner;
name = _corner.dia_esq;
options = 1;
},
{
origin = "{0, 3}";
type = Corner;
name = _corner.dia_dir;
options = 1;
},
{
origin = "{0, 2}";
type = Corner;
name = _corner.dia_esq;
options = 1;
}
);
layerId = "16E083CF-37A0-4840-9CF0-495EAF69E79B";
paths = (
{
closed = 1;
nodes = (
"644 0 LINE",
"644 670 LINE",
"50 670 LINE",
"50 0 LINE"
);
},
{
closed = 1;
nodes = (
"220 161 LINE",
"220 509 LINE",
"252 541 LINE",
"442 541 LINE",
"475 509 LINE",
"475 161 LINE",
"443 129 LINE",
"252 129 LINE"
);
}
);
width = 694;
},
{
anchors = (
{
name = bottom;
position = "{335, 0}";
},
{
name = center;
position = "{347, 335}";
},
{
name = horn;
position = "{538.5, 586}";
},
{
name = ogonek;
position = "{499, 0}";
},
{
name = top;
position = "{335, 670}";
},
{
name = topleft;
position = "{24, 670}";
},
{
name = topright;
position = "{671, 670}";
}
);
background = {
paths = (
{
closed = 1;
nodes = (
"600 0 LINE",
"600 670 LINE",
"70 670 LINE",
"70 0 LINE"
);
},
{
closed = 1;
nodes = (
"184 150 LINE",
"184 520 LINE",
"234 570 LINE",
"436 570 LINE",
"486 520 LINE",
"486 150 LINE",
"436 100 LINE",
"234 100 LINE"
);
}
);
};
guideLines = (
{
angle = 90;
position = "{383, 731.125}";
showMeasurement = 1;
},
{
position = "{-69.625, 328.75}";
showMeasurement = 1;
}
);
hints = (
{
origin = "{0, 1}";
type = Corner;
name = _corner.dia_dir;
options = 1;
},
{
origin = "{0, 0}";
type = Corner;
name = _corner.dia_esq;
options = 1;
},
{
origin = "{0, 3}";
type = Corner;
name = _corner.dia_dir;
options = 1;
},
{
origin = "{0, 2}";
type = Corner;
name = _corner.dia_esq;
options = 1;
}
);
layerId = "20086791-C5B6-4597-997A-CAD8F8E58507";
paths = (
{
closed = 1;
nodes = (
"600 0 LINE",
"600 670 LINE",
"70 670 LINE",
"70 0 LINE"
);
},
{
closed = 1;
nodes = (
"184 140 LINE",
"184 530 LINE",
"224 570 LINE",
"446 570 LINE",
"486 530 LINE",
"486 140 LINE",
"446 100 LINE",
"224 100 LINE"
);
}
);
width = 670;
}
);
leftKerningGroup = O;
rightKerningGroup = O;
unicode = 004F;
},
{
glyphname = Oogonek;
lastChange = "2019-04-12 13:01:23 +0000";
layers = (
{
components = (
{
name = O;
}
);
layerId = "16E083CF-37A0-4840-9CF0-495EAF69E79B";
paths = (
{
closed = 1;
nodes = (
"554 -164 LINE",
"554 -71 LINE",
"529 -71 LINE",
"512 -55 LINE",
"512 -30 LINE",
"543 0 LINE",
"459 0 LINE",
"418 -30 LINE",
"418 -104 LINE",
"484 -164 LINE"
);
}
);
width = 694;
},
{
components = (
{
name = O;
}
);
layerId = "20086791-C5B6-4597-997A-CAD8F8E58507";
paths = (
{
closed = 1;
nodes = (
"511.875 -156 LINE",
"511.875 -82 LINE",
"482.875 -82 LINE",
"463.875 -63 LINE",
"463.875 -35 LINE",
"499 0 LINE",
"435.875 0 LINE",
"394.875 -30 LINE",
"394.875 -98 LINE",
"452.875 -156 LINE"
);
}
);
width = 670;
}
);
unicode = 01EA;
},
{
color = 0;
glyphname = Oslash;
lastChange = "2019-04-12 13:13:07 +0000";
layers = (
{
components = (
{
name = O;
}
);
layerId = "16E083CF-37A0-4840-9CF0-495EAF69E79B";
paths = (
{
closed = 1;
nodes = (
"569 599 LINE",
"507 646 LINE",
"154 85 LINE",
"219 38 LINE"
);
}
);
width = 694;
},
{
components = (
{
name = O;
}
);
layerId = "20086791-C5B6-4597-997A-CAD8F8E58507";
paths = (
{
closed = 1;
nodes = (
"568 594 LINE",
"502 649 LINE",
"129 97 LINE",
"197 42 LINE"
);
}
);
width = 670;
}
);
leftKerningGroup = O;
leftMetricsKey = O;
rightKerningGroup = O;
rightMetricsKey = O;
unicode = 00D8;
},
{
glyphname = OE;
lastChange = "2019-04-12 13:01:23 +0000";
layers = (
{
components = (
{
name = _part.H;
transform = "{1, 0, 0, 1, 376, 0}";
},
{
name = O;
}
);
layerId = "16E083CF-37A0-4840-9CF0-495EAF69E79B";
paths = (
{
closed = 1;
nodes = (
"994 532 LINE",
"994 670 LINE",
"583 670 LINE",
"583 532 LINE"
);
},
{
closed = 1;
nodes = (
"994 0 LINE",
"994 138 LINE",
"583 138 LINE",
"583 0 LINE"
);
},
{
closed = 1;
nodes = (
"960 280 LINE",
"960 408 LINE",
"583 408 LINE",
"583 280 LINE"
);
}
);
width = 1044;
},
{
components = (
{
name = _part.H;
transform = "{1, 0, 0, 1, 351, 0}";
},
{
name = O;
}
);
layerId = "20086791-C5B6-4597-997A-CAD8F8E58507";
paths = (
{
closed = 1;
nodes = (
"944 566 LINE",
"944 670 LINE",
"548 670 LINE",
"548 566 LINE"
);
},
{
closed = 1;
nodes = (
"944 0 LINE",
"944 104 LINE",
"548 104 LINE",
"548 0 LINE"
);
},
{
closed = 1;
nodes = (
"914 299 LINE",
"914 403 LINE",
"548 403 LINE",
"548 299 LINE"
);
}
);
width = 1004;
}
);
leftKerningGroup = O;
leftMetricsKey = O;
rightKerningGroup = E;
rightMetricsKey = E;
unicode = 0152;
},
{
glyphname = P;
lastChange = "2019-04-12 13:01:23 +0000";
layers = (
{
components = (
{
name = _part.H;
transform = "{1, 0, 0, 1, -38, 0}";
}
);
hints = (
{
origin = "{0, 0}";
type = Corner;
name = _corner.dia_esq;
options = 1;
},
{
origin = "{0, 1}";
type = Corner;
name = _corner.dia_dir;
options = 1;
}
);
layerId = "16E083CF-37A0-4840-9CF0-495EAF69E79B";
paths = (
{
closed = 1;
nodes = (
"620 210 LINE",
"620 670 LINE",
"208 670 LINE",
"208 541 LINE",
"423 541 LINE",
"455 509 LINE",
"455 371 LINE",
"423 339 LINE",
"208 339 LINE",
"208 210 LINE"
);
}
);
width = 635;
},
{
background = {
paths = (
{
closed = 1;
nodes = (
"563 231 LINE",
"563 670 LINE",
"168 670 LINE",
"168 570 LINE",
"399 570 LINE",
"449 520 LINE",
"449 381 LINE",
"399 331 LINE",
"168 331 LINE",
"168 231 LINE"
);
}
);
};
components = (
{
name = _part.H;
transform = "{1, 0, 0, 1, -50, 0}";
}
);
hints = (
{
origin = "{0, 0}";
type = Corner;
name = _corner.dia_esq;
options = 1;
},
{
origin = "{0, 1}";
type = Corner;
name = _corner.dia_dir;
options = 1;
}
);
layerId = "20086791-C5B6-4597-997A-CAD8F8E58507";
paths = (
{
closed = 1;
nodes = (
"563 231 LINE",
"563 670 LINE",
"168 670 LINE",
"168 570 LINE",
"409 570 LINE",
"449 530 LINE",
"449 371 LINE",
"409 331 LINE",
"168 331 LINE",
"168 231 LINE"
);
}
);
width = 593;
}
);
leftKerningGroup = H;
leftMetricsKey = H;
unicode = 0050;
},
{
glyphname = Thorn;
lastChange = "2019-04-12 13:01:23 +0000";
layers = (
{
components = (
{
name = _part.H;
transform = "{1, 0, 0, 1, -38, -1}";
}
);
hints = (
{
origin = "{0, 0}";
type = Corner;
name = _corner.dia_esq;
options = 1;
},
{
origin = "{0, 1}";
type = Corner;
name = _corner.dia_dir;
options = 1;
}
);
layerId = "16E083CF-37A0-4840-9CF0-495EAF69E79B";
paths = (
{
closed = 1;
nodes = (
"620 114 LINE",
"620 574 LINE",
"208 574 LINE",
"208 445 LINE",
"418 445 LINE",
"450 413 LINE",
"450 275 LINE",
"418 243 LINE",
"208 243 LINE",
"208 114 LINE"
);
}
);
width = 635;
},
{
components = (
{
name = _part.H;
transform = "{1, 0, 0, 1, -50, -2}";
}
);
hints = (
{
origin = "{0, 0}";
type = Corner;
name = _corner.dia_esq;
options = 1;
},
{
origin = "{0, 1}";
type = Corner;
name = _corner.dia_dir;
options = 1;
}
);
layerId = "20086791-C5B6-4597-997A-CAD8F8E58507";
paths = (
{
closed = 1;
nodes = (
"563 124 LINE",
"563 563 LINE",
"168 563 LINE",
"168 463 LINE",
"409 463 LINE",
"449 423 LINE",
"449 264 LINE",
"409 224 LINE",
"168 224 LINE",
"168 124 LINE"
);
}
);
width = 593;
}
);
leftMetricsKey = P;
rightMetricsKey = P;
unicode = 00DE;
},
{
glyphname = Q;
lastChange = "2019-04-12 13:01:23 +0000";
layers = (
{
components = (
{
name = O;
}
);
layerId = "16E083CF-37A0-4840-9CF0-495EAF69E79B";
paths = (
{
closed = 1;
nodes = (
"410 -80 LINE",
"410 57 LINE",
"284 57 LINE",
"284 -80 LINE"
);
},
{
closed = 1;
nodes = (
"406 -16 LINE",
"406 200 LINE",
"288 200 LINE",
"288 -16 LINE"
);
}
);
width = 694;
},
{
components = (
{
name = O;
}
);
layerId = "20086791-C5B6-4597-997A-CAD8F8E58507";
paths = (
{
closed = 1;
nodes = (
"385 -81 LINE",
"385 57 LINE",
"287 57 LINE",
"287 -81 LINE"
);
},
{
closed = 1;
nodes = (
"385 38 LINE",
"385 190 LINE",
"287 190 LINE",
"287 38 LINE"
);
}
);
width = 670;
}
);
leftKerningGroup = O;
leftMetricsKey = O;
rightKerningGroup = O;
rightMetricsKey = O;
unicode = 0051;
},
{
glyphname = R;
lastChange = "2019-04-12 13:01:23 +0000";
layers = (
{
anchors = (
{
name = botton;
position = "{351, 0}";
},
{
name = top;
position = "{324, 670}";
}
);
components = (
{
name = _part.H;
transform = "{1, 0, 0, 1, -38, 0}";
}
);
hints = (
{
origin = "{0, 1}";
type = Corner;
name = _corner.dia_dir;
options = 1;
},
{
origin = "{0, 0}";
type = Corner;
name = _corner.dia_esq;
options = 1;
}
);
layerId = "16E083CF-37A0-4840-9CF0-495EAF69E79B";
paths = (
{
closed = 1;
nodes = (
"628 228 LINE",
"628 670 LINE",
"208 670 LINE",
"208 541 LINE",
"431 541 LINE",
"463 509 LINE",
"463 389 LINE",
"431 357 LINE",
"208 357 LINE",
"208 228 LINE"
);
},
{
closed = 1;
nodes = (
"654 0 LINE",
"528 310 LINE",
"363 310 LINE",
"483 0 LINE"
);
}
);
width = 684;
},
{
anchors = (
{
name = botton;
position = "{308, 0}";
},
{
name = top;
position = "{308, 670}";
}
);
background = {
paths = (
{
closed = 1;
nodes = (
"576 246 LINE",
"576 670 LINE",
"168 670 LINE",
"168 570 LINE",
"412 570 LINE",
"462 520 LINE",
"462 396 LINE",
"412 346 LINE",
"168 346 LINE",
"168 246 LINE"
);
}
);
};
components = (
{
name = _part.H;
transform = "{1, 0, 0, 1, -50, 0}";
}
);
hints = (
{
origin = "{0, 0}";
type = Corner;
name = _corner.dia_esq;
options = 1;
},
{
origin = "{0, 1}";
type = Corner;
name = _corner.dia_dir;
options = 1;
}
);
layerId = "20086791-C5B6-4597-997A-CAD8F8E58507";
paths = (
{
closed = 1;
nodes = (
"576 246 LINE",
"576 670 LINE",
"168 670 LINE",
"168 570 LINE",
"422 570 LINE",
"462 530 LINE",
"462 386 LINE",
"422 346 LINE",
"168 346 LINE",
"168 246 LINE"
);
},
{
closed = 1;
nodes = (
"598 0 LINE",
"458 315 LINE",
"334 315 LINE",
"469 0 LINE"
);
}
);
width = 648;
}
);
leftKerningGroup = H;
leftMetricsKey = H;
rightKerningGroup = R;
rightMetricsKey = R;
unicode = 0052;
},
{
glyphname = S;
lastChange = "2019-04-12 13:01:23 +0000";
layers = (
{
anchors = (
{
name = botton;
position = "{335, 0}";
},
{
name = top;
position = "{329, 670}";
}
);
hints = (
{
origin = "{0, 0}";
type = Corner;
name = _corner.dia_esq;
options = 1;
},
{
origin = "{0, 1}";
type = Corner;
name = _corner.dia_dir;
options = 1;
},
{
origin = "{0, 8}";
type = Corner;
name = _corner.dia_esq;
options = 1;
},
{
origin = "{0, 9}";
type = Corner;
name = _corner.dia_dir;
options = 1;
}
);
layerId = "16E083CF-37A0-4840-9CF0-495EAF69E79B";
paths = (
{
closed = 1;
nodes = (
"619 0 LINE",
"619 411 LINE",
"244 411 LINE",
"212 443 LINE",
"212 502 LINE",
"244 534 LINE",
"584 534 LINE",
"584 670 LINE",
"45 670 LINE",
"45 275 LINE",
"420 275 LINE",
"452 243 LINE",
"452 168 LINE",
"420 136 LINE",
"71 136 LINE",
"71 0 LINE"
);
}
);
width = 664;
},
{
anchors = (
{
name = botton;
position = "{317, 0}";
},
{
name = top;
position = "{317, 670}";
}
);
background = {
paths = (
{
closed = 1;
nodes = (
"574 0 LINE",
"574 397 LINE",
"229 397 LINE",
"179 447 LINE",
"179 520 LINE",
"225 566 LINE",
"537 566 LINE",
"537 670 LINE",
"65 670 LINE",
"65 297 LINE",
"410 297 LINE",
"460 247 LINE",
"460 150 LINE",
"414 104 LINE",
"88 104 LINE",
"88 0 LINE"
);
}
);
};
hints = (
{
origin = "{0, 0}";
type = Corner;
name = _corner.dia_esq;
options = 1;
},
{
origin = "{0, 1}";
type = Corner;
name = _corner.dia_dir;
options = 1;
},
{
origin = "{0, 8}";
type = Corner;
name = _corner.dia_esq;
options = 1;
},
{
origin = "{0, 9}";
type = Corner;
name = _corner.dia_dir;
options = 1;
}
);
layerId = "20086791-C5B6-4597-997A-CAD8F8E58507";
paths = (
{
closed = 1;
nodes = (
"574 0 LINE",
"574 397 LINE",
"219 397 LINE",
"179 437 LINE",
"179 526 LINE",
"219 566 LINE",
"537 566 LINE",
"537 670 LINE",
"65 670 LINE",
"65 297 LINE",
"420 297 LINE",
"460 257 LINE",
"460 144 LINE",
"420 104 LINE",
"88 104 LINE",
"88 0 LINE"
);
}
);
width = 639;
}
);
leftKerningGroup = S;
rightKerningGroup = S;
unicode = 0053;
},
{
glyphname = Germandbls;
lastChange = "2019-04-12 13:01:23 +0000";
layers = (
{
background = {
paths = (
{
closed = 1;
nodes = (
"198.875 0 LINE",
"198.75 530 LINE",
"239 569.75 LINE",
"361.375 570.125 LINE",
"411.25 520 LINE",
"269.375 379 LINE",
"269.375 299 LINE",
"431.875 299.25 LINE",
"482 249 LINE",
"482.125 140 LINE",
"441.875 100.25 LINE",
"367.25 100 LINE",
"300.25 166 LINE",
"226.25 91 LINE",
"317.25 0 LINE",
"494.875 0 LINE",
"595.875 101 LINE",
"595.875 288 LINE",
"484.875 399 LINE",
"423.25 399 LINE",
"515.125 490.875 LINE",
"515.5 569 LINE",
"414.5 670 LINE",
"186 670 LINE",
"85 569 LINE",
"85 0 LINE"
);
}
);
};
layerId = "16E083CF-37A0-4840-9CF0-495EAF69E79B";
paths = (
{
closed = 1;
nodes = (
"256 0 LINE",
"256 519 LINE",
"288 551 LINE",
"380 551 LINE",
"412 519 LINE",
"314 394 LINE",
"314 292 LINE",
"412 292 LINE",
"444 260 LINE",
"444 153 LINE",
"412 119 LINE",
"300 119 LINE",
"300 0 LINE",
"539 0 LINE",
"634 89 LINE",
"634 276 LINE",
"507 393 LINE",
"507 393 LINE",
"581 483 LINE",
"581 581 LINE",
"486 670 LINE",
"165 670 LINE",
"70 581 LINE",
"70 0 LINE"
);
}
);
width = 679;
},
{
guideLines = (
{
position = "{253, 399}";
}
);
layerId = "20086791-C5B6-4597-997A-CAD8F8E58507";
paths = (
{
closed = 1;
nodes = (
"198.875 0 LINE",
"198.75 530 LINE",
"239 569.75 LINE",
"361.375 570.125 LINE",
"411.25 520 LINE",
"269.375 379 LINE",
"269.375 299 LINE",
"431.875 299.25 LINE",
"482 249 LINE",
"482.125 140 LINE",
"441.875 100.25 LINE",
"367.25 100 LINE",
"300.25 166 LINE",
"226.25 91 LINE",
"317.25 0 LINE",
"494.875 0 LINE",
"595.875 101 LINE",
"595.875 288 LINE",
"484.875 399 LINE",
"423.25 399 LINE",
"515.125 490.875 LINE",
"515.5 569 LINE",
"414.5 670 LINE",
"186 670 LINE",
"85 569 LINE",
"85 0 LINE"
);
}
);
width = 665.875;
},
{
associatedMasterId = "20086791-C5B6-4597-997A-CAD8F8E58507";
guideLines = (
{
position = "{253, 399}";
}
);
layerId = "64A7BA2F-28FD-4E2F-B495-CF93F1E53BBF";
name = "Regular[130]";
paths = (
{
closed = 1;
nodes = (
"198.875 0 LINE",
"198.75 530 LINE",
"239 569.75 LINE",
"361.375 570.125 LINE",
"411.25 520 LINE",
"269.375 379 LINE",
"269.375 299 LINE",
"431.875 299.25 LINE",
"482 249 LINE",
"482.125 140 LINE",
"441.875 100.25 LINE",
"252 100 LINE",
"252 0 LINE",
"494.875 0 LINE",
"595.875 101 LINE",
"595.875 288 LINE",
"484.875 399 LINE",
"423.25 399 LINE",
"515.125 490.875 LINE",
"515.5 569 LINE",
"414.5 670 LINE",
"186 670 LINE",
"85 569 LINE",
"85 0 LINE"
);
}
);
width = 665.875;
}
);
leftMetricsKey = H;
rightMetricsKey = B;
unicode = 1E9E;
},
{
glyphname = Schwa;
lastChange = "2019-04-12 13:01:23 +0000";
layers = (
{
background = {
hints = (
{
origin = "{0, 10}";
type = Corner;
name = _corner.dia_dir;
options = 1;
},
{
origin = "{0, 11}";
type = Corner;
name = _corner.dia_esq;
options = 1;
},
{
origin = "{0, 12}";
type = Corner;
name = _corner.dia_dir;
options = 1;
}
);
paths = (
{
closed = 1;
nodes = (
"61 670 LINE",
"61 501 LINE",
"445 501 LINE",
"473 471 LINE",
"473 168 LINE",
"442 134 LINE",
"301 134 LINE",
"270 173 LINE",
"270 396 LINE",
"51 396 LINE",
"51 0 LINE",
"713 0 LINE",
"713 670 LINE"
);
},
{
closed = 1;
nodes = (
"51 396 LINE",
"51 258 LINE",
"524 258 LINE",
"524 396 LINE"
);
}
);
};
layerId = "16E083CF-37A0-4840-9CF0-495EAF69E79B";
paths = (
{
closed = 1;
nodes = (
"543 0 LINE",
"644 101 LINE",
"644 569 LINE",
"543 670 LINE",
"58 670 LINE",
"58 531 LINE",
"442 531 LINE",
"474 499 LINE",
"474 171 LINE",
"442 139 LINE",
"252 139 LINE",
"220 171 LINE",
"220 280 LINE",
"531 280 LINE",
"531 408 LINE",
"50 408 LINE",
"50 101 LINE",
"151 0 LINE"
);
}
);
width = 694;
},
{
background = {
paths = (
{
closed = 1;
nodes = (
"76.25 671.125 LINE",
"76.25 544 LINE",
"503 544 LINE",
"503 120.125 LINE",
"220.375 120.125 LINE",
"220.375 392.75 LINE",
"65 392.75 LINE",
"65 0 LINE",
"658.375 0 LINE",
"658.375 671.125 LINE"
);
},
{
closed = 1;
nodes = (
"65 392.75 LINE",
"65 272.625 LINE",
"548.25 272.625 LINE",
"548.25 392.75 LINE"
);
}
);
};
layerId = "20086791-C5B6-4597-997A-CAD8F8E58507";
paths = (
{
closed = 1;
nodes = (
"559 0 LINE",
"660 101 LINE",
"660 569 LINE",
"559 670 LINE",
"82 670 LINE",
"82 569.75 LINE",
"505.875 570.125 LINE",
"545.75 530 LINE",
"546.125 140.125 LINE",
"506 100.25 LINE",
"224.125 99.875 LINE",
"184.25 140 LINE",
"184 293.25 LINE",
"599.875 293.25 LINE",
"599.875 390.25 LINE",
"70 390.25 LINE",
"70 101 LINE",
"171 0 LINE"
);
}
);
width = 730;
}
);
leftMetricsKey = O;
rightMetricsKey = O;
unicode = 018F;
},
{
glyphname = T;
lastChange = "2019-04-12 13:01:23 +0000";
layers = (
{
anchors = (
{
name = botton;
position = "{278, 0}";
},
{
name = top;
position = "{278, 670}";
}
);
components = (
{
name = _part.H;
transform = "{1, 0, 0, 1, 85, 0}";
}
);
layerId = "16E083CF-37A0-4840-9CF0-495EAF69E79B";
paths = (
{
closed = 1;
nodes = (
"550 532 LINE",
"550 670 LINE",
"5 670 LINE",
"5 532 LINE"
);
}
);
width = 555;
},
{
anchors = (
{
name = botton;
position = "{258, 0}";
},
{
name = top;
position = "{257, 670}";
}
);
components = (
{
name = _part.H;
transform = "{1, 0, 0, 1, 66, 0}";
}
);
layerId = "20086791-C5B6-4597-997A-CAD8F8E58507";
paths = (
{
closed = 1;
nodes = (
"501 566 LINE",
"501 670 LINE",
"15 670 LINE",
"15 566 LINE"
);
}
);
width = 516;
}
);
leftKerningGroup = T;
rightKerningGroup = T;
unicode = 0054;
},
{
color = 0;
glyphname = Tbar;
lastChange = "2019-04-12 13:15:56 +0000";
layers = (
{
components = (
{
name = T;
}
);
layerId = "16E083CF-37A0-4840-9CF0-495EAF69E79B";
paths = (
{
closed = 1;
nodes = (
"506 259 LINE",
"506 365 LINE",
"50 365 LINE",
"50 259 LINE"
);
}
);
width = 555;
},
{
components = (
{
name = T;
}
);
layerId = "20086791-C5B6-4597-997A-CAD8F8E58507";
paths = (
{
closed = 1;
nodes = (
"473 290 LINE",
"473 374 LINE",
"73 374 LINE",
"73 290 LINE"
);
}
);
width = 516;
}
);
leftKerningGroup = T;
leftMetricsKey = T;
rightKerningGroup = T;
rightMetricsKey = T;
unicode = 0166;
},
{
glyphname = U;
lastChange = "2019-04-12 13:17:09 +0000";
layers = (
{
anchors = (
{
name = bottom;
position = "{362, 0}";
},
{
name = horn;
position = "{640, 586}";
},
{
name = ogonek;
position = "{423, 0}";
},
{
name = top;
position = "{359, 670}";
},
{
name = topright;
position = "{686, 670}";
}
);
hints = (
{
origin = "{0, 0}";
type = Corner;
name = _corner.dia_esq;
options = 1;
},
{
origin = "{0, 9}";
type = Corner;
name = _corner.dia_dir;
options = 1;
}
);
layerId = "16E083CF-37A0-4840-9CF0-495EAF69E79B";
paths = (
{
closed = 1;
nodes = (
"654 0 LINE",
"654 670 LINE",
"484 670 LINE",
"484 161 LINE",
"452 129 LINE",
"267 129 LINE",
"235 161 LINE",
"235 670 LINE",
"65 670 LINE",
"65 0 LINE"
);
}
);
width = 719;
},
{
anchors = (
{
name = bottom;
position = "{341, 0}";
},
{
name = horn;
position = "{602, 586}";
},
{
name = ogonek;
position = "{408, 0}";
},
{
name = top;
position = "{340, 670}";
},
{
name = topright;
position = "{641, 670}";
}
);
hints = (
{
origin = "{0, 0}";
type = Corner;
name = _corner.dia_esq;
options = 1;
},
{
origin = "{0, 9}";
type = Corner;
name = _corner.dia_dir;
options = 1;
}
);
layerId = "20086791-C5B6-4597-997A-CAD8F8E58507";
paths = (
{
closed = 1;
nodes = (
"605 0 LINE",
"605 670 LINE",
"491 670 LINE",
"491 138 LINE",
"449 100 LINE",
"227 100 LINE",
"189 142 LINE",
"189 670 LINE",
"75 670 LINE",
"75 0 LINE"
);
}
);
width = 680;
}
);
leftKerningGroup = U;
rightKerningGroup = U;
unicode = 0055;
},
{
color = 3;
glyphname = Uacute;
lastChange = "2019-04-12 13:17:17 +0000";
layers = (
{
components = (
{
name = U;
},
{
name = acutecomb;
transform = "{1, 0, 0, 1, 267, 0}";
}
);
layerId = "16E083CF-37A0-4840-9CF0-495EAF69E79B";
width = 719;
},
{
background = {
paths = (
{
closed = 1;
nodes = (
"386 725 LINE",
"512 865 LINE",
"386 865 LINE",
"294 725 LINE"
);
}
);
};
components = (
{
name = U;
},
{
name = acutecomb;
transform = "{1, 0, 0, 1, 254, 0}";
}
);
layerId = "20086791-C5B6-4597-997A-CAD8F8E58507";
width = 680;
}
);
leftKerningGroup = U;
rightKerningGroup = U;
unicode = 00DA;
},
{
glyphname = Ucircumflex;
lastChange = "2019-04-12 13:17:17 +0000";
layers = (
{
components = (
{
name = U;
},
{
name = circumflexcomb;
transform = "{1, 0, 0, 1, 133, 0}";
}
);
layerId = "16E083CF-37A0-4840-9CF0-495EAF69E79B";
width = 719;
},
{
background = {
paths = (
{
closed = 1;
nodes = (
"279 735 LINE",
"340 797 LINE",
"340 797 LINE",
"401 735 LINE",
"493 735 LINE",
"398 865 LINE",
"282 865 LINE",
"187 735 LINE"
);
}
);
};
components = (
{
name = U;
},
{
name = circumflexcomb;
transform = "{1, 0, 0, 1, 147, 0}";
}
);
layerId = "20086791-C5B6-4597-997A-CAD8F8E58507";
width = 680;
}
);
leftKerningGroup = U;
rightKerningGroup = U;
unicode = 00DB;
},
{
glyphname = Udieresis;
lastChange = "2019-04-12 13:17:09 +0000";
layers = (
{
components = (
{
name = U;
},
{
name = dieresiscomb;
transform = "{1, 0, 0, 1, 111, 15}";
}
);
layerId = "16E083CF-37A0-4840-9CF0-495EAF69E79B";
width = 719;
},
{
background = {
paths = (
{
closed = 1;
nodes = (
"284 751 LINE",
"284 865 LINE",
"174 865 LINE",
"174 751 LINE"
);
},
{
closed = 1;
nodes = (
"525 751 LINE",
"525 865 LINE",
"415 865 LINE",
"415 751 LINE"
);
}
);
};
components = (
{
name = U;
},
{
name = dieresiscomb;
transform = "{1, 0, 0, 1, 124, 29}";
}
);
layerId = "20086791-C5B6-4597-997A-CAD8F8E58507";
width = 680;
}
);
leftKerningGroup = U;
rightKerningGroup = U;
unicode = 00DC;
},
{
glyphname = Uogonek;
lastChange = "2019-04-12 13:01:23 +0000";
layers = (
{
components = (
{
name = U;
}
);
layerId = "16E083CF-37A0-4840-9CF0-495EAF69E79B";
paths = (
{
closed = 1;
nodes = (
"434 -164 LINE",
"434 -71 LINE",
"409 -71 LINE",
"392 -55 LINE",
"392 -30 LINE",
"423 0 LINE",
"339 0 LINE",
"298 -30 LINE",
"298 -104 LINE",
"364 -164 LINE"
);
}
);
width = 719;
},
{
components = (
{
name = U;
}
);
layerId = "20086791-C5B6-4597-997A-CAD8F8E58507";
paths = (
{
closed = 1;
nodes = (
"408 -156 LINE",
"408 -82 LINE",
"379 -82 LINE",
"360 -63 LINE",
"360 -35 LINE",
"408 0 LINE",
"332 0 LINE",
"291 -30 LINE",
"291 -98 LINE",
"349 -156 LINE"
);
}
);
width = 680;
}
);
leftKerningGroup = U;
leftMetricsKey = U;
rightKerningGroup = U;
rightMetricsKey = U;
unicode = 0172;
},
{
glyphname = V;
lastChange = "2019-04-12 13:01:23 +0000";
layers = (
{
layerId = "16E083CF-37A0-4840-9CF0-495EAF69E79B";
paths = (
{
closed = 1;
nodes = (
"472 0 LINE",
"644 670 LINE",
"449 670 LINE",
"338 128 LINE",
"306 128 LINE",
"195 670 LINE",
"0 670 LINE",
"172 0 LINE"
);
}
);
width = 644;
},
{
guideLines = (
{
angle = 14.3486;
position = "{310, 154}";
showMeasurement = 1;
}
);
layerId = "20086791-C5B6-4597-997A-CAD8F8E58507";
paths = (
{
closed = 1;
nodes = (
"398 0 LINE",
"616 670 LINE",
"495 670 LINE",
"324 108 LINE",
"302 108 LINE",
"131 670 LINE",
"10 670 LINE",
"228 0 LINE"
);
}
);
width = 626;
}
);
leftKerningGroup = V;
leftMetricsKey = A;
rightKerningGroup = V;
rightMetricsKey = A;
unicode = 0056;
},
{
glyphname = W;
lastChange = "2019-04-12 13:01:23 +0000";
layers = (
{
anchors = (
{
name = bottom;
position = "{459, 0}";
},
{
name = top;
position = "{460, 670}";
}
);
layerId = "16E083CF-37A0-4840-9CF0-495EAF69E79B";
paths = (
{
closed = 1;
nodes = (
"412 0 LINE",
"459 309 LINE",
"506 0 LINE",
"776 0 LINE",
"918 670 LINE",
"723 670 LINE",
"651 128 LINE",
"619 128 LINE",
"546 670 LINE",
"372 670 LINE",
"299 128 LINE",
"267 128 LINE",
"195 670 LINE",
"0 670 LINE",
"142 0 LINE"
);
}
);
width = 918;
},
{
anchors = (
{
name = bottom;
position = "{418, 0}";
},
{
name = top;
position = "{418, 670}";
}
);
layerId = "20086791-C5B6-4597-997A-CAD8F8E58507";
paths = (
{
closed = 1;
nodes = (
"336 0 LINE",
"418 423 LINE",
"500 0 LINE",
"672 0 LINE",
"826 670 LINE",
"705 670 LINE",
"598 108 LINE",
"576 108 LINE",
"469 670 LINE",
"367 670 LINE",
"260 108 LINE",
"238 108 LINE",
"131 670 LINE",
"10 670 LINE",
"164 0 LINE"
);
}
);
width = 836;
}
);
leftKerningGroup = W;
leftMetricsKey = A;
rightKerningGroup = W;
rightMetricsKey = A;
unicode = 0057;
},
{
glyphname = X;
lastChange = "2019-04-12 13:01:23 +0000";
layers = (
{
layerId = "16E083CF-37A0-4840-9CF0-495EAF69E79B";
paths = (
{
closed = 1;
nodes = (
"196 0 LINE",
"303 266 LINE",
"335 266 LINE",
"442 0 LINE",
"638 0 LINE",
"477 351 LINE",
"637 670 LINE",
"442 670 LINE",
"335 419 LINE",
"303 419 LINE",
"196 670 LINE",
"1 670 LINE",
"161 351 LINE",
"0 0 LINE"
);
}
);
width = 638;
},
{
layerId = "20086791-C5B6-4597-997A-CAD8F8E58507";
paths = (
{
closed = 1;
nodes = (
"141 0 LINE",
"292 279 LINE",
"314 279 LINE",
"465 0 LINE",
"596 0 LINE",
"401 347 LINE",
"594 670 LINE",
"464 670 LINE",
"314 410 LINE",
"292 410 LINE",
"142 670 LINE",
"12 670 LINE",
"205 347 LINE",
"10 0 LINE"
);
}
);
width = 606;
}
);
leftMetricsKey = A;
rightMetricsKey = A;
unicode = 0058;
},
{
glyphname = Y;
lastChange = "2019-04-12 13:01:23 +0000";
layers = (
{
anchors = (
{
name = bottom;
position = "{308, 0}";
},
{
name = top;
position = "{308, 670}";
},
{
name = topleft;
position = "{-6, 670}";
}
);
layerId = "16E083CF-37A0-4840-9CF0-495EAF69E79B";
paths = (
{
closed = 1;
nodes = (
"393 0 LINE",
"393 235 LINE",
"460 293 LINE",
"616 670 LINE",
"421 670 LINE",
"324 362 LINE",
"292 362 LINE",
"195 670 LINE",
"0 670 LINE",
"156 293 LINE",
"223 235 LINE",
"223 0 LINE"
);
}
);
width = 616;
},
{
anchors = (
{
name = bottom;
position = "{301, 0}";
},
{
name = top;
position = "{301, 670}";
},
{
name = topleft;
position = "{10, 670}";
}
);
layerId = "20086791-C5B6-4597-997A-CAD8F8E58507";
paths = (
{
closed = 1;
nodes = (
"358 0 LINE",
"358 202 LINE",
"358 246 LINE",
"592 670 LINE",
"462 670 LINE",
"312 377 LINE",
"290 377 LINE",
"140 670 LINE",
"10 670 LINE",
"244 246 LINE",
"244 199 LINE",
"244 0 LINE"
);
}
);
width = 602;
}
);
leftKerningGroup = Y;
leftMetricsKey = A;
rightKerningGroup = Y;
rightMetricsKey = A;
unicode = 0059;
},
{
glyphname = Z;
lastChange = "2019-04-12 13:01:23 +0000";
layers = (
{
anchors = (
{
name = top;
position = "{332, 670}";
}
);
layerId = "16E083CF-37A0-4840-9CF0-495EAF69E79B";
paths = (
{
closed = 1;
nodes = (
"581 0 LINE",
"581 138 LINE",
"273 138 LINE",
"273 170 LINE",
"581 527 LINE",
"581 670 LINE",
"67 670 LINE",
"67 532 LINE",
"354 532 LINE",
"354 500 LINE",
"45 143 LINE",
"45 0 LINE"
);
}
);
width = 626;
},
{
anchors = (
{
name = top;
position = "{324, 670}";
}
);
layerId = "20086791-C5B6-4597-997A-CAD8F8E58507";
paths = (
{
closed = 1;
nodes = (
"549 0 LINE",
"549 104 LINE",
"212 104 LINE",
"212 126 LINE",
"549 566 LINE",
"549 670 LINE",
"80 670 LINE",
"80 566 LINE",
"399 566 LINE",
"399 544 LINE",
"60 104 LINE",
"60 0 LINE"
);
}
);
width = 609;
}
);
leftKerningGroup = Z;
rightKerningGroup = Z;
unicode = 005A;
},
{
glyphname = a;
lastChange = "2019-04-12 13:01:23 +0000";
layers = (
{
anchors = (
{
name = bottom;
position = "{284, 0}";
},
{
name = ogonek;
position = "{441, 0}";
},
{
name = top;
position = "{277, 475}";
}
);
layerId = "16E083CF-37A0-4840-9CF0-495EAF69E79B";
paths = (
{
closed = 1;
nodes = (
"527 0 LINE",
"527 374 LINE",
"426 475 LINE",
"86 475 LINE",
"86 367 LINE",
"325 367 LINE",
"357 335 LINE",
"357 0 LINE"
);
},
{
closed = 1;
nodes = (
"295 0 LINE",
"399 107 LINE",
"399 212 LINE",
"280 93 LINE",
"231 93 LINE",
"199 125 LINE",
"199 186 LINE",
"231 218 LINE",
"401 218 LINE",
"401 303 LINE",
"131 303 LINE",
"30 202 LINE",
"30 101 LINE",
"131 0 LINE"
);
}
);
width = 582;
},
{
anchors = (
{
name = bottom;
position = "{270.5, 0}";
},
{
name = ogonek;
position = "{457, 0}";
},
{
name = top;
position = "{270.5, 475}";
}
);
background = {
paths = (
{
closed = 1;
nodes = (
"311 0 LINE",
"432 120 LINE",
"432 232 LINE",
"285 85 LINE",
"160 85 LINE",
"160 220 LINE",
"432 220 LINE",
"432 305 LINE",
"50 305 LINE",
"50 0 LINE"
);
},
{
closed = 1;
nodes = (
"491 0 LINE",
"491 475 LINE",
"113 475 LINE",
"113 385 LINE",
"381 385 LINE",
"381 0 LINE"
);
}
);
};
layerId = "20086791-C5B6-4597-997A-CAD8F8E58507";
paths = (
{
closed = 1;
nodes = (
"491 0 LINE",
"491 374 LINE",
"390 475 LINE",
"113 475 LINE",
"113 385 LINE",
"341 385 LINE",
"381 345 LINE",
"381 0 LINE"
);
},
{
closed = 1;
nodes = (
"311 0 LINE",
"432 120 LINE",
"432 232 LINE",
"285 85 LINE",
"200 85 LINE",
"160 125 LINE",
"160 180 LINE",
"200 220 LINE",
"432 220 LINE",
"432 305 LINE",
"151 305 LINE",
"50 204 LINE",
"50 101 LINE",
"151 0 LINE"
);
}
);
width = 561;
}
);
leftKerningGroup = a;
rightKerningGroup = n;
unicode = 0061;
},
{
glyphname = ae;
lastChange = "2019-04-12 13:01:23 +0000";
layers = (
{
layerId = "16E083CF-37A0-4840-9CF0-495EAF69E79B";
paths = (
{
closed = 1;
nodes = (
"809 0 LINE",
"809 110 LINE",
"549 110 LINE",
"517 142 LINE",
"516 358 LINE",
"548 390 LINE",
"629 390 LINE",
"661 358 LINE",
"661 194 LINE",
"816 194 LINE",
"816 374 LINE",
"715 475 LINE",
"468 475 LINE",
"347 354 LINE",
"347 101 LINE",
"448 0 LINE"
);
},
{
closed = 1;
nodes = (
"285 0 LINE",
"389 107 LINE",
"389 212 LINE",
"270 93 LINE",
"221 93 LINE",
"189 125 LINE",
"189 186 LINE",
"221 218 LINE",
"391 218 LINE",
"391 303 LINE",
"131 303 LINE",
"30 202 LINE",
"30 101 LINE",
"131 0 LINE"
);
},
{
closed = 1;
nodes = (
"517 124 LINE",
"516 355 LINE",
"396 475 LINE",
"91 475 LINE",
"91 367 LINE",
"315 367 LINE",
"347 335 LINE",
"347 124 LINE"
);
},
{
closed = 1;
nodes = (
"816 194 LINE",
"816 282 LINE",
"481 282 LINE",
"481 194 LINE"
);
}
);
width = 871;
},
{
layerId = "20086791-C5B6-4597-997A-CAD8F8E58507";
paths = (
{
closed = 1;
nodes = (
"793 0 LINE",
"793 90 LINE",
"531 90 LINE",
"491 130 LINE",
"491 350 LINE",
"531 390 LINE",
"651 390 LINE",
"691 350 LINE",
"691 210 LINE",
"801 210 LINE",
"801 374 LINE",
"700 475 LINE",
"482 475 LINE",
"381 374 LINE",
"381 101 LINE",
"482 0 LINE"
);
},
{
closed = 1;
nodes = (
"311 0 LINE",
"432 120 LINE",
"432 232 LINE",
"285 85 LINE",
"200 85 LINE",
"160 125 LINE",
"160 170 LINE",
"200 210 LINE",
"432 210 LINE",
"432 295 LINE",
"151 295 LINE",
"50 194 LINE",
"50 101 LINE",
"151 0 LINE"
);
},
{
closed = 1;
nodes = (
"491 144 LINE",
"491 374 LINE",
"390 475 LINE",
"113 475 LINE",
"113 385 LINE",
"341 385 LINE",
"381 345 LINE",
"381 144 LINE"
);
},
{
closed = 1;
nodes = (
"801 210 LINE",
"801 295 LINE",
"459 295 LINE",
"459 210 LINE"
);
}
);
width = 866;
}
);
leftKerningGroup = a;
leftMetricsKey = a;
rightKerningGroup = e;
rightMetricsKey = e;
unicode = 00E6;
},
{
glyphname = b;
lastChange = "2019-04-12 13:01:23 +0000";
layers = (
{
components = (
{
name = _part.b;
transform = "{1, 0, 0, 1, 7, 0}";
},
{
name = _part.l;
transform = "{1, 0, 0, 1, 6, 0}";
}
);
layerId = "16E083CF-37A0-4840-9CF0-495EAF69E79B";
width = 625;
},
{
background = {
paths = (
{
closed = 1;
nodes = (
"255 0 LINE",
"526 0 LINE",
"526 475 LINE",
"255 475 LINE",
"155 376 LINE",
"155 264 LINE",
"282 390 LINE",
"375 390 LINE",
"416 346 LINE",
"416 129 LINE",
"375 85 LINE",
"282 85 LINE",
"155 211 LINE",
"155 99 LINE"
);
}
);
};
components = (
{
name = _part.b;
transform = "{1, 0, 0, 1, -15, 0}";
},
{
name = _part.l;
}
);
layerId = "20086791-C5B6-4597-997A-CAD8F8E58507";
width = 591;
}
);
leftKerningGroup = _part.b;
leftMetricsKey = n;
rightKerningGroup = o;
rightMetricsKey = o;
unicode = 0062;
},
{
glyphname = c;
lastChange = "2019-04-12 13:01:23 +0000";
layers = (
{
anchors = (
{
name = botton;
position = "{315, 0}";
},
{
name = top;
position = "{292, 475}";
}
);
hints = (
{
origin = "{0, 12}";
type = Corner;
name = _corner.dia_esq;
options = 1;
},
{
origin = "{0, 13}";
type = Corner;
name = _corner.dia_dir;
options = 1;
}
);
layerId = "16E083CF-37A0-4840-9CF0-495EAF69E79B";
paths = (
{
closed = 1;
nodes = (
"513 0 LINE",
"513 120 LINE",
"252 120 LINE",
"220 152 LINE",
"220 348 LINE",
"252 380 LINE",
"321 380 LINE",
"353 348 LINE",
"353 295 LINE",
"523 295 LINE",
"523 387 LINE",
"427 475 LINE",
"50 475 LINE",
"50 0 LINE"
);
}
);
width = 563;
},
{
anchors = (
{
name = botton;
position = "{284, 0}";
},
{
name = top;
position = "{274, 475}";
}
);
background = {
paths = (
{
closed = 1;
nodes = (
"480 0 LINE",
"480 90 LINE",
"175 90 LINE",
"175 390 LINE",
"333 390 LINE",
"374 347 LINE",
"374 297 LINE",
"484 297 LINE",
"484 386 LINE",
"393 475 LINE",
"65 475 LINE",
"65 0 LINE"
);
}
);
};
hints = (
{
origin = "{0, 12}";
type = Corner;
name = _corner.dia_esq;
options = 1;
},
{
origin = "{0, 13}";
type = Corner;
name = _corner.dia_dir;
options = 1;
}
);
layerId = "20086791-C5B6-4597-997A-CAD8F8E58507";
paths = (
{
closed = 1;
nodes = (
"480 0 LINE",
"480 90 LINE",
"215 90 LINE",
"175 130 LINE",
"175 350 LINE",
"215 390 LINE",
"334 390.25 LINE",
"374.125 350 LINE",
"374 297 LINE",
"484 297 LINE",
"484 386 LINE",
"393 475 LINE",
"65 475 LINE",
"65 0 LINE"
);
}
);
width = 529;
}
);
leftKerningGroup = o;
leftMetricsKey = o;
rightKerningGroup = e;
unicode = 0063;
},
{
glyphname = d;
lastChange = "2019-04-12 13:01:23 +0000";
layers = (
{
components = (
{
name = _part.b;
transform = "{-1, 0, 0, 1, 618, 0}";
}
);
layerId = "16E083CF-37A0-4840-9CF0-495EAF69E79B";
paths = (
{
closed = 1;
nodes = (
"560 0 LINE",
"560 670 LINE",
"390 670 LINE",
"390 0 LINE"
);
}
);
width = 625;
},
{
components = (
{
name = _part.b;
transform = "{-1, 0, 0, 1, 606, 0}";
}
);
layerId = "20086791-C5B6-4597-997A-CAD8F8E58507";
paths = (
{
closed = 1;
nodes = (
"516 0 LINE",
"516 670 LINE",
"406 670 LINE",
"406 0 LINE"
);
}
);
width = 591;
}
);
leftKerningGroup = o;
leftMetricsKey = o;
rightKerningGroup = l;
unicode = 0064;
},
{
glyphname = eth;
lastChange = "2019-04-12 13:01:23 +0000";
layers = (
{
layerId = "16E083CF-37A0-4840-9CF0-495EAF69E79B";
paths = (
{
closed = 1;
nodes = (
"451 0 LINE",
"546 89 LINE",
"546 376 LINE",
"306 713 LINE",
"183 627 LINE",
"320 435 LINE",
"145 435 LINE",
"50 346 LINE",
"50 89 LINE",
"145 0 LINE"
);
},
{
closed = 1;
nodes = (
"220 117 LINE",
"220 318 LINE",
"252 350 LINE",
"345 350 LINE",
"377 318 LINE",
"377 117 LINE",
"345 85 LINE",
"252 85 LINE"
);
},
{
closed = 1;
nodes = (
"436 639 LINE",
"383 713 LINE",
"159 553 LINE",
"212 479 LINE"
);
}
);
width = 596;
},
{
background = {
paths = (
{
closed = 1;
nodes = (
"414 0 LINE",
"505 91 LINE",
"505 369 LINE",
"262 705 LINE",
"173 643 LINE",
"324 435 LINE",
"156 435 LINE",
"65 344 LINE",
"65 91 LINE",
"156 0 LINE"
);
},
{
closed = 1;
nodes = (
"175 129 LINE",
"175 306 LINE",
"217 350 LINE",
"353 350 LINE",
"395 306 LINE",
"395 128 LINE",
"354 85 LINE",
"217 85 LINE"
);
},
{
closed = 1;
nodes = (
"390 639 LINE",
"341 708 LINE",
"146 568 LINE",
"195 498 LINE"
);
}
);
};
layerId = "20086791-C5B6-4597-997A-CAD8F8E58507";
paths = (
{
closed = 1;
nodes = (
"414 0 LINE",
"505 91 LINE",
"505 369 LINE",
"262 705 LINE",
"173 643 LINE",
"324 435 LINE",
"156 435 LINE",
"65 344 LINE",
"65 91 LINE",
"156 0 LINE"
);
},
{
closed = 1;
nodes = (
"175 125 LINE",
"175 310 LINE",
"215 350 LINE",
"355 350.25 LINE",
"395.125 310 LINE",
"395 125 LINE",
"355 85 LINE",
"215 85 LINE"
);
},
{
closed = 1;
nodes = (
"390 639 LINE",
"341 708 LINE",
"146 568 LINE",
"195 498 LINE"
);
}
);
width = 570;
}
);
leftKerningGroup = o;
leftMetricsKey = o;
rightKerningGroup = o;
rightMetricsKey = o;
unicode = 00F0;
},
{
color = 0;
glyphname = dcroat;
lastChange = "2019-04-12 13:25:30 +0000";
layers = (
{
components = (
{
name = d;
}
);
layerId = "16E083CF-37A0-4840-9CF0-495EAF69E79B";
paths = (
{
closed = 1;
nodes = (
"613 505 LINE",
"613 612 LINE",
"283 612 LINE",
"283 505 LINE"
);
}
);
width = 625;
},
{
components = (
{
name = d;
}
);
layerId = "20086791-C5B6-4597-997A-CAD8F8E58507";
paths = (
{
closed = 1;
nodes = (
"571 510 LINE",
"571 600 LINE",
"286 600 LINE",
"286 510 LINE"
);
}
);
width = 591;
}
);
leftKerningGroup = o;
unicode = 0111;
},
{
glyphname = e;
lastChange = "2019-04-12 13:01:23 +0000";
layers = (
{
hints = (
{
origin = "{0, 10}";
type = Corner;
name = _corner.dia_dir;
options = 1;
},
{
origin = "{0, 11}";
type = Corner;
name = _corner.dia_esq;
options = 1;
},
{
origin = "{0, 12}";
type = Corner;
name = _corner.dia_dir;
options = 1;
}
);
layerId = "16E083CF-37A0-4840-9CF0-495EAF69E79B";
paths = (
{
closed = 1;
nodes = (
"512 0 LINE",
"512 120 LINE",
"252 120 LINE",
"220 152 LINE",
"220 348 LINE",
"252 380 LINE",
"332 380 LINE",
"364 348 LINE",
"364 194 LINE",
"519 194 LINE",
"519 475 LINE",
"50 475 LINE",
"50 0 LINE"
);
},
{
closed = 1;
nodes = (
"519 194 LINE",
"519 292 LINE",
"184 292 LINE",
"184 194 LINE"
);
}
);
width = 574;
},
{
background = {
paths = (
{
closed = 1;
nodes = (
"477 0 LINE",
"477 90 LINE",
"212 90 LINE",
"175 129 LINE",
"175 346 LINE",
"217 390 LINE",
"334 390 LINE",
"375 347 LINE",
"375 197 LINE",
"485 197 LINE",
"485 475 LINE",
"65 475 LINE",
"65 0 LINE"
);
},
{
closed = 1;
nodes = (
"485 197 LINE",
"485 282 LINE",
"143 282 LINE",
"143 197 LINE"
);
}
);
};
hints = (
{
origin = "{0, 10}";
type = Corner;
name = _corner.dia_dir;
options = 1;
},
{
origin = "{0, 11}";
type = Corner;
name = _corner.dia_esq;
options = 1;
},
{
origin = "{0, 12}";
type = Corner;
name = _corner.dia_dir;
options = 1;
}
);
layerId = "20086791-C5B6-4597-997A-CAD8F8E58507";
paths = (
{
closed = 1;
nodes = (
"477 0 LINE",
"477 90 LINE",
"215 90 LINE",
"175 130 LINE",
"175 350 LINE",
"215 390 LINE",
"335 390 LINE",
"375 350 LINE",
"375 197 LINE",
"485 197 LINE",
"485 475 LINE",
"65 475 LINE",
"65 0 LINE"
);
},
{
closed = 1;
nodes = (
"485 197 LINE",
"485 282 LINE",
"143 282 LINE",
"143 197 LINE"
);
}
);
width = 550;
}
);
leftKerningGroup = o;
leftMetricsKey = o;
rightKerningGroup = e;
unicode = 0065;
},
{
glyphname = eogonek;
lastChange = "2019-04-12 13:01:23 +0000";
layers = (
{
anchors = (
{
name = _ogonek;
position = "{512, 0}";
}
);
components = (
{
name = e;
}
);
layerId = "16E083CF-37A0-4840-9CF0-495EAF69E79B";
paths = (
{
closed = 1;
nodes = (
"512 -164 LINE",
"512 -71 LINE",
"498 -71 LINE",
"481 -55 LINE",
"481 -30 LINE",
"512 0 LINE",
"428 0 LINE",
"387 -30 LINE",
"387 -104 LINE",
"453 -164 LINE"
);
}
);
width = 574;
},
{
anchors = (
{
name = _ogonek;
position = "{477, 0}";
}
);
components = (
{
name = e;
}
);
layerId = "20086791-C5B6-4597-997A-CAD8F8E58507";
paths = (
{
closed = 1;
nodes = (
"477 -156 LINE",
"477 -82 LINE",
"448 -82 LINE",
"429 -63 LINE",
"429 -35 LINE",
"477 0 LINE",
"401 0 LINE",
"360 -30 LINE",
"360 -98 LINE",
"418 -156 LINE"
);
}
);
width = 550;
}
);
leftKerningGroup = o;
leftMetricsKey = e;
rightKerningGroup = e;
rightMetricsKey = e;
unicode = 0119;
},
{
glyphname = f;
lastChange = "2019-04-12 13:01:23 +0000";
layers = (
{
layerId = "16E083CF-37A0-4840-9CF0-495EAF69E79B";
paths = (
{
closed = 1;
nodes = (
"230 0 LINE",
"230 546 LINE",
"255 571 LINE",
"335 571 LINE",
"335 670 LINE",
"156 670 LINE",
"60 581 LINE",
"60 0 LINE"
);
},
{
closed = 1;
nodes = (
"313 369 LINE",
"313 475 LINE",
"22 475 LINE",
"22 369 LINE"
);
}
);
width = 335;
},
{
layerId = "20086791-C5B6-4597-997A-CAD8F8E58507";
paths = (
{
closed = 1;
nodes = (
"184 0 LINE",
"184 543 LINE",
"221 580 LINE",
"289 580 LINE",
"289 670 LINE",
"165 670 LINE",
"74 579 LINE",
"74 0 LINE"
);
},
{
closed = 1;
nodes = (
"268 390 LINE",
"268 475 LINE",
"37 475 LINE",
"37 390 LINE"
);
}
);
width = 289;
}
);
leftKerningGroup = f;
rightKerningGroup = f;
unicode = 0066;
},
{
glyphname = g;
lastChange = "2019-04-12 13:01:23 +0000";
layers = (
{
anchors = (
{
name = top;
position = "{314, 475}";
}
);
components = (
{
name = _part.b;
transform = "{-1, 0, 0, 1, 618, 0}";
}
);
guideLines = (
{
position = "{-45, -170}";
}
);
layerId = "16E083CF-37A0-4840-9CF0-495EAF69E79B";
paths = (
{
closed = 1;
nodes = (
"452 -170 LINE",
"554 -67 LINE",
"554 475 LINE",
"394 475 LINE",
"394 -23 LINE",
"362 -55 LINE",
"93 -55 LINE",
"93 -170 LINE"
);
}
);
width = 619;
},
{
anchors = (
{
name = top;
position = "{290.5, 475}";
}
);
background = {
paths = (
{
closed = 1;
nodes = (
"424 -170 LINE",
"516 -80 LINE",
"516 475 LINE",
"406 475 LINE",
"406 -41 LINE",
"369 -80 LINE",
"99 -80 LINE",
"99 -170 LINE"
);
}
);
};
components = (
{
name = _part.b;
transform = "{-1, 0, 0, 1, 606, 0}";
}
);
layerId = "20086791-C5B6-4597-997A-CAD8F8E58507";
paths = (
{
closed = 1;
nodes = (
"415 -170 LINE",
"516 -69 LINE",
"516 475 LINE",
"406 475 LINE",
"406 -40 LINE",
"366 -80 LINE",
"99 -80 LINE",
"99 -170 LINE"
);
}
);
width = 591;
}
);
leftKerningGroup = o;
leftMetricsKey = o;
rightKerningGroup = g;
rightMetricsKey = d;
unicode = 0067;
},
{
glyphname = i;
lastChange = "2019-04-12 13:01:23 +0000";
layers = (
{
components = (
{
name = dotaccentcomb;
}
);
layerId = "16E083CF-37A0-4840-9CF0-495EAF69E79B";
paths = (
{
closed = 1;
nodes = (
"235 0 LINE",
"235 475 LINE",
"65 475 LINE",
"65 0 LINE"
);
}
);
width = 300;
},
{
components = (
{
name = dotaccentcomb;
}
);
layerId = "20086791-C5B6-4597-997A-CAD8F8E58507";
paths = (
{
closed = 1;
nodes = (
"185 0 LINE",
"185 475 LINE",
"75 475 LINE",
"75 0 LINE"
);
}
);
width = 260;
}
);
leftMetricsKey = n;
rightKerningGroup = i;
rightMetricsKey = d;
unicode = 0069;
},
{
glyphname = idotless;
lastChange = "2019-04-12 13:01:23 +0000";
layers = (
{
anchors = (
{
name = ogonek;
position = "{235, 0}";
}
);
layerId = "16E083CF-37A0-4840-9CF0-495EAF69E79B";
paths = (
{
closed = 1;
nodes = (
"235 0 LINE",
"235 475 LINE",
"65 475 LINE",
"65 0 LINE"
);
}
);
width = 300;
},
{
anchors = (
{
name = ogonek;
position = "{185, 0}";
}
);
layerId = "20086791-C5B6-4597-997A-CAD8F8E58507";
paths = (
{
closed = 1;
nodes = (
"185 0 LINE",
"185 475 LINE",
"75 475 LINE",
"75 0 LINE"
);
}
);
width = 260;
}
);
leftKerningGroup = _part.i;
leftMetricsKey = n;
rightKerningGroup = _part.i;
rightMetricsKey = d;
unicode = 0131;
},
{
glyphname = iogonek;
lastChange = "2019-04-12 13:40:59 +0000";
layers = (
{
components = (
{
name = dotaccentcomb;
},
{
name = idotless;
}
);
layerId = "16E083CF-37A0-4840-9CF0-495EAF69E79B";
paths = (
{
closed = 1;
nodes = (
"235 -164 LINE",
"235 -71 LINE",
"221 -71 LINE",
"204 -55 LINE",
"204 -30 LINE",
"235 0 LINE",
"151 0 LINE",
"110 -30 LINE",
"110 -104 LINE",
"176 -164 LINE"
);
}
);
width = 300;
},
{
background = {
paths = (
{
closed = 1;
nodes = (
"185 -156 LINE",
"185 -82 LINE",
"156 -82 LINE",
"137 -63 LINE",
"137 -35 LINE",
"185 0 LINE",
"185 0 LINE",
"109 0 LINE",
"68 -30 LINE",
"68 -98 LINE",
"126 -156 LINE"
);
}
);
};
components = (
{
name = dotaccentcomb;
},
{
name = idotless;
}
);
layerId = "20086791-C5B6-4597-997A-CAD8F8E58507";
paths = (
{
closed = 1;
nodes = (
"185 -156 LINE",
"185 -82 LINE",
"156 -82 LINE",
"137 -63 LINE",
"137 -35 LINE",
"185 0 LINE",
"109 0 LINE",
"68 -30 LINE",
"68 -98 LINE",
"126 -156 LINE"
);
}
);
width = 260;
}
);
rightMetricsKey = i;
unicode = 012F;
},
{
color = 0;
glyphname = j;
lastChange = "2019-04-12 13:29:49 +0000";
layers = (
{
components = (
{
name = dotaccentcomb;
transform = "{1, 0, 0, 1, 3, 0}";
}
);
guideLines = (
{
angle = 90;
position = "{238, 475}";
}
);
layerId = "16E083CF-37A0-4840-9CF0-495EAF69E79B";
paths = (
{
closed = 1;
nodes = (
"143 -170 LINE",
"239 -82 LINE",
"238 475 LINE",
"69 475 LINE",
"69 -36 LINE",
"44 -61 LINE",
"-25 -61 LINE",
"-25 -170 LINE"
);
}
);
width = 304;
},
{
background = {
paths = (
{
closed = 1;
nodes = (
"93 -195 LINE",
"185 -105 LINE",
"185 450 LINE",
"75 450 LINE",
"75 -66 LINE",
"38 -105 LINE",
"-30 -105 LINE",
"-30 -195 LINE"
);
}
);
};
components = (
{
name = dotaccentcomb;
}
);
layerId = "20086791-C5B6-4597-997A-CAD8F8E58507";
paths = (
{
closed = 1;
nodes = (
"93 -195 LINE",
"185 -105 LINE",
"185 475 LINE",
"75 475 LINE",
"75 -66 LINE",
"38 -105 LINE",
"-30 -105 LINE",
"-30 -195 LINE"
);
}
);
width = 260;
}
);
leftKerningGroup = j;
rightKerningGroup = j;
rightMetricsKey = d;
unicode = 006A;
},
{
glyphname = jdotless;
lastChange = "2019-04-12 13:01:23 +0000";
layers = (
{
anchors = (
{
name = top;
position = "{153, 475}";
}
);
layerId = "16E083CF-37A0-4840-9CF0-495EAF69E79B";
paths = (
{
closed = 1;
nodes = (
"143 -170 LINE",
"239 -82 LINE",
"238 475 LINE",
"69 475 LINE",
"69 -36 LINE",
"44 -61 LINE",
"-25 -61 LINE",
"-25 -170 LINE"
);
}
);
width = 304;
},
{
anchors = (
{
name = top;
position = "{130, 475}";
}
);
layerId = "20086791-C5B6-4597-997A-CAD8F8E58507";
paths = (
{
closed = 1;
nodes = (
"93 -195 LINE",
"185 -105 LINE",
"185 475 LINE",
"75 475 LINE",
"75 -66 LINE",
"38 -105 LINE",
"-30 -105 LINE",
"-30 -195 LINE"
);
}
);
width = 260;
}
);
rightMetricsKey = d;
unicode = 0237;
},
{
glyphname = k;
lastChange = "2019-04-12 13:01:23 +0000";
layers = (
{
anchors = (
{
name = botton;
position = "{298, 0}";
}
);
components = (
{
name = _part.l;
transform = "{1, 0, 0, 1, 6, 0}";
}
);
layerId = "16E083CF-37A0-4840-9CF0-495EAF69E79B";
paths = (
{
closed = 1;
nodes = (
"211 103 LINE",
"575 475 LINE",
"371 475 LINE",
"231 332 LINE",
"179 332 LINE",
"179 189 LINE"
);
},
{
closed = 1;
nodes = (
"581 0 LINE",
"372 285 LINE",
"222 222 LINE",
"366 0 LINE"
);
}
);
width = 591;
},
{
anchors = (
{
name = botton;
position = "{258, 0}";
}
);
components = (
{
name = _part.l;
}
);
layerId = "20086791-C5B6-4597-997A-CAD8F8E58507";
paths = (
{
closed = 1;
nodes = (
"152 132 LINE",
"494 475 LINE",
"350 475 LINE",
"207 332 LINE",
"152 332 LINE",
"152 132 LINE"
);
},
{
closed = 1;
nodes = (
"494 0 LINE",
"291 284 LINE",
"207 222 LINE",
"361 0 LINE"
);
}
);
width = 509;
}
);
leftKerningGroup = h;
leftMetricsKey = n;
rightKerningGroup = k;
unicode = 006B;
},
{
glyphname = kgreenlandic;
lastChange = "2019-04-12 13:01:23 +0000";
layers = (
{
layerId = "16E083CF-37A0-4840-9CF0-495EAF69E79B";
paths = (
{
closed = 1;
nodes = (
"211 103 LINE",
"575 475 LINE",
"371 475 LINE",
"231 332 LINE",
"179 332 LINE",
"179 189 LINE"
);
},
{
closed = 1;
nodes = (
"581 0 LINE",
"372 285 LINE",
"222 222 LINE",
"366 0 LINE"
);
},
{
closed = 1;
nodes = (
"235 0 LINE",
"235 475 LINE",
"65 475 LINE",
"65 0 LINE"
);
}
);
width = 591;
},
{
layerId = "20086791-C5B6-4597-997A-CAD8F8E58507";
paths = (
{
closed = 1;
nodes = (
"152 132 LINE",
"494 475 LINE",
"350 475 LINE",
"207 332 LINE",
"152 332 LINE",
"152 132 LINE"
);
},
{
closed = 1;
nodes = (
"494 0 LINE",
"291 284 LINE",
"207 222 LINE",
"361 0 LINE"
);
},
{
closed = 1;
nodes = (
"185 0 LINE",
"185 475 LINE",
"75 475 LINE",
"75 0 LINE"
);
}
);
width = 509;
}
);
leftMetricsKey = n;
rightMetricsKey = k;
unicode = 0138;
},
{
color = 0;
glyphname = lslash;
lastChange = "2019-04-12 13:31:05 +0000";
layers = (
{
components = (
{
name = l;
transform = "{1, 0, 0, 1, 18, 0}";
}
);
layerId = "16E083CF-37A0-4840-9CF0-495EAF69E79B";
paths = (
{
closed = 1;
nodes = (
"309 346 LINE",
"309 473 LINE",
"14 344 LINE",
"14 217 LINE"
);
}
);
width = 324;
},
{
components = (
{
name = l;
}
);
layerId = "20086791-C5B6-4597-997A-CAD8F8E58507";
paths = (
{
closed = 1;
nodes = (
"249 351 LINE",
"249 463 LINE",
"11 360 LINE",
"11 247 LINE"
);
}
);
width = 260;
}
);
leftKerningGroup = _part.l;
unicode = 0142;
},
{
color = 0;
glyphname = eng;
lastChange = "2019-04-12 13:31:37 +0000";
layers = (
{
components = (
{
name = _part.i;
transform = "{1, 0, 0, 1, 6, 0}";
},
{
name = _part.n;
transform = "{1, 0, 0, 1, 119, 0}";
}
);
layerId = "16E083CF-37A0-4840-9CF0-495EAF69E79B";
paths = (
{
closed = 1;
nodes = (
"482 -170 LINE",
"578 -82 LINE",
"578 233 LINE",
"408 233 LINE",
"409 -46 LINE",
"385 -71 LINE",
"314 -71 LINE",
"314 -170 LINE"
);
}
);
width = 634;
},
{
components = (
{
name = _part.i;
},
{
name = _part.n;
}
);
layerId = "20086791-C5B6-4597-997A-CAD8F8E58507";
paths = (
{
closed = 1;
nodes = (
"449 -170 LINE",
"541 -80 LINE",
"540 232 LINE",
"430 232 LINE",
"431 -41 LINE",
"394 -80 LINE",
"326 -80 LINE",
"326 -170 LINE"
);
}
);
width = 611;
}
);
leftKerningGroup = n;
leftMetricsKey = n;
rightKerningGroup = n;
rightMetricsKey = n;
unicode = 014B;
},
{
glyphname = o;
lastChange = "2019-04-12 13:01:23 +0000";
layers = (
{
background = {
hints = (
{
origin = "{0, 2}";
type = Corner;
name = _corner.dia_esq;
options = 1;
},
{
origin = "{0, 1}";
type = Corner;
name = _corner.dia_dir;
options = 1;
},
{
origin = "{0, 0}";
type = Corner;
name = _corner.dia_esq;
options = 1;
},
{
origin = "{0, 3}";
type = Corner;
name = _corner.dia_dir;
options = 1;
}
);
paths = (
{
closed = 1;
nodes = (
"51 0 LINE",
"547 0 LINE",
"547 475 LINE",
"51 475 LINE"
);
},
{
closed = 1;
nodes = (
"247 95 LINE",
"220 123 LINE",
"220 352 LINE",
"247 380 LINE",
"350 380 LINE",
"377 352 LINE",
"377 123 LINE",
"350 95 LINE"
);
}
);
};
layerId = "16E083CF-37A0-4840-9CF0-495EAF69E79B";
paths = (
{
closed = 1;
nodes = (
"447 0 LINE",
"548 101 LINE",
"548 374 LINE",
"447 475 LINE",
"151 475 LINE",
"50 374 LINE",
"50 101 LINE",
"151 0 LINE"
);
},
{
closed = 1;
nodes = (
"220 127 LINE",
"220 348 LINE",
"252 380 LINE",
"346 380 LINE",
"378 348 LINE",
"378 127 LINE",
"346 95 LINE",
"252 95 LINE"
);
}
);
width = 598;
},
{
background = {
paths = (
{
closed = 1;
nodes = (
"65 475 LINE",
"65 0 LINE",
"505 0 LINE",
"505 475 LINE"
);
},
{
closed = 1;
nodes = (
"175 129 LINE",
"175 346 LINE",
"217 390 LINE",
"354 390 LINE",
"395 347 LINE",
"395 128 LINE",
"354 85 LINE",
"217 85 LINE"
);
}
);
};
guideLines = (
{
angle = 90;
position = "{285.375, 303.75}";
}
);
layerId = "20086791-C5B6-4597-997A-CAD8F8E58507";
paths = (
{
closed = 1;
nodes = (
"404 0 LINE",
"505 101 LINE",
"505 374 LINE",
"404 475 LINE",
"166 475 LINE",
"65 374 LINE",
"65 101 LINE",
"166 0 LINE"
);
},
{
closed = 1;
nodes = (
"175 125 LINE",
"175 350 LINE",
"215 390 LINE",
"355 390 LINE",
"395 350 LINE",
"395 125 LINE",
"355 85 LINE",
"215 85 LINE"
);
}
);
width = 570;
}
);
leftKerningGroup = o;
rightKerningGroup = o;
unicode = 006F;
},
{
glyphname = odieresismacron;
lastChange = "2019-04-12 13:01:23 +0000";
layers = (
{
components = (
{
name = o;
},
{
name = dieresiscomb;
transform = "{1, 0, 0, 1, 51, -180}";
}
);
layerId = "16E083CF-37A0-4840-9CF0-495EAF69E79B";
paths = (
{
closed = 1;
nodes = (
"511 694 LINE",
"511 801 LINE",
"93 801 LINE",
"93 694 LINE"
);
}
);
width = 598;
},
{
components = (
{
name = o;
},
{
name = dieresiscomb;
transform = "{1, 0, 0, 1, 70, -166}";
}
);
layerId = "20086791-C5B6-4597-997A-CAD8F8E58507";
paths = (
{
closed = 1;
nodes = (
"462 684 LINE",
"462 766 LINE",
"111 766 LINE",
"111 684 LINE"
);
}
);
width = 570;
}
);
unicode = 022B;
},
{
glyphname = odotaccentmacron;
lastChange = "2019-04-12 13:01:23 +0000";
layers = (
{
components = (
{
name = o;
},
{
name = dotaccentcomb;
transform = "{1, 0, 0, 1, 149, 0}";
}
);
layerId = "16E083CF-37A0-4840-9CF0-495EAF69E79B";
paths = (
{
closed = 1;
nodes = (
"508 694 LINE",
"508 801 LINE",
"90 801 LINE",
"90 694 LINE"
);
}
);
width = 598;
},
{
components = (
{
name = o;
},
{
name = dotaccentcomb;
transform = "{1, 0, 0, 1, 155, 0}";
}
);
layerId = "20086791-C5B6-4597-997A-CAD8F8E58507";
paths = (
{
closed = 1;
nodes = (
"461 685 LINE",
"461 767 LINE",
"110 767 LINE",
"110 685 LINE"
);
}
);
width = 570;
}
);
unicode = 0231;
},
{
glyphname = oogonek;
lastChange = "2019-04-12 13:01:23 +0000";
layers = (
{
components = (
{
name = o;
}
);
layerId = "16E083CF-37A0-4840-9CF0-495EAF69E79B";
paths = (
{
closed = 1;
nodes = (
"458 -164 LINE",
"458 -71 LINE",
"433 -71 LINE",
"416 -55 LINE",
"416 -30 LINE",
"447 0 LINE",
"363 0 LINE",
"322 -30 LINE",
"322 -104 LINE",
"388 -164 LINE"
);
}
);
width = 598;
},
{
components = (
{
name = o;
}
);
layerId = "20086791-C5B6-4597-997A-CAD8F8E58507";
paths = (
{
closed = 1;
nodes = (
"427 -146 LINE",
"427 -72 LINE",
"398 -72 LINE",
"379 -53 LINE",
"379 -25 LINE",
"414.125 10 LINE",
"351 10 LINE",
"310 -20 LINE",
"310 -88 LINE",
"368 -146 LINE"
);
}
);
width = 570;
}
);
unicode = 01EB;
},
{
color = 0;
glyphname = oslash;
lastChange = "2019-04-12 13:34:08 +0000";
layers = (
{
components = (
{
name = o;
}
);
layerId = "16E083CF-37A0-4840-9CF0-495EAF69E79B";
paths = (
{
closed = 1;
nodes = (
"446 405 LINE",
"388 445 LINE",
"150 67 LINE",
"209 27 LINE"
);
}
);
width = 598;
},
{
components = (
{
name = o;
}
);
layerId = "20086791-C5B6-4597-997A-CAD8F8E58507";
paths = (
{
closed = 1;
nodes = (
"440 401 LINE",
"381 445 LINE",
"127 70 LINE",
"187 25 LINE"
);
}
);
width = 570;
}
);
leftKerningGroup = o;
leftMetricsKey = o;
rightKerningGroup = o;
rightMetricsKey = o;
unicode = 00F8;
},
{
color = 3;
glyphname = otildemacron;
lastChange = "2019-04-12 13:34:35 +0000";
layers = (
{
components = (
{
name = o;
},
{
name = tildecomb;
transform = "{1, 0, 0, 1, 58, -195}";
}
);
layerId = "16E083CF-37A0-4840-9CF0-495EAF69E79B";
paths = (
{
closed = 1;
nodes = (
"510 694 LINE",
"510 801 LINE",
"92 801 LINE",
"92 694 LINE"
);
}
);
width = 598;
},
{
components = (
{
name = o;
},
{
name = tildecomb;
transform = "{1, 0, 0, 1, 72, -195}";
}
);
layerId = "20086791-C5B6-4597-997A-CAD8F8E58507";
paths = (
{
closed = 1;
nodes = (
"461 684 LINE",
"461 766 LINE",
"110 766 LINE",
"110 684 LINE"
);
}
);
width = 570;
}
);
unicode = 022D;
},
{
glyphname = oe;
lastChange = "2019-04-12 13:01:23 +0000";
layers = (
{
layerId = "16E083CF-37A0-4840-9CF0-495EAF69E79B";
paths = (
{
closed = 1;
nodes = (
"838 0 LINE",
"838 120 LINE",
"578 120 LINE",
"546 152 LINE",
"546 348 LINE",
"578 380 LINE",
"658 380 LINE",
"690 348 LINE",
"690 194 LINE",
"845 194 LINE",
"845 374 LINE",
"744 475 LINE",
"338 475 LINE",
"386 432 LINE",
"386 55 LINE",
"376 0 LINE"
);
},
{
closed = 1;
nodes = (
"845 194 LINE",
"845 292 LINE",
"510 292 LINE",
"510 194 LINE"
);
},
{
closed = 1;
nodes = (
"546 0 LINE",
"546 73 LINE",
"546 374 LINE",
"445 475 LINE",
"151 475 LINE",
"50 374 LINE",
"50 101 LINE",
"151 0 LINE"
);
},
{
closed = 1;
nodes = (
"220 127 LINE",
"220 348 LINE",
"252 380 LINE",
"345 380 LINE",
"377 348 LINE",
"377 127 LINE",
"345 95 LINE",
"252 95 LINE"
);
}
);
width = 900;
},
{
layerId = "20086791-C5B6-4597-997A-CAD8F8E58507";
paths = (
{
closed = 1;
nodes = (
"807 0 LINE",
"807 90 LINE",
"545 90 LINE",
"505 130 LINE",
"505 350 LINE",
"545 390 LINE",
"665 390 LINE",
"705 350 LINE",
"705 197 LINE",
"815 197 LINE",
"815 374 LINE",
"714 475 LINE",
"496 475 LINE",
"395 374 LINE",
"395 101 LINE",
"496 0 LINE"
);
},
{
closed = 1;
nodes = (
"815 197 LINE",
"815 282 LINE",
"473 282 LINE",
"473 197 LINE"
);
},
{
closed = 1;
nodes = (
"404 0 LINE",
"505 101 LINE",
"505 374 LINE",
"404 475 LINE",
"166 475 LINE",
"65 374 LINE",
"65 101 LINE",
"166 0 LINE"
);
},
{
closed = 1;
nodes = (
"175 125 LINE",
"175 350 LINE",
"215 390 LINE",
"355 390 LINE",
"395 350 LINE",
"395 125 LINE",
"355 85 LINE",
"215 85 LINE"
);
}
);
width = 880;
}
);
leftKerningGroup = o;
leftMetricsKey = o;
rightKerningGroup = e;
rightMetricsKey = e;
unicode = 0153;
},
{
glyphname = p;
lastChange = "2019-04-12 13:01:23 +0000";
layers = (
{
components = (
{
name = _part.b;
transform = "{1, 0, 0, 1, 4, 0}";
}
);
layerId = "16E083CF-37A0-4840-9CF0-495EAF69E79B";
paths = (
{
closed = 1;
nodes = (
"235 -170 LINE",
"235 475 LINE",
"65 475 LINE",
"65 -170 LINE"
);
}
);
width = 622;
},
{
components = (
{
name = _part.b;
transform = "{1, 0, 0, 1, -15, 0}";
}
);
layerId = "20086791-C5B6-4597-997A-CAD8F8E58507";
paths = (
{
closed = 1;
nodes = (
"185 -170 LINE",
"185 475 LINE",
"75 475 LINE",
"75 -170 LINE"
);
}
);
width = 591;
}
);
leftKerningGroup = n;
leftMetricsKey = n;
rightKerningGroup = o;
rightMetricsKey = o;
unicode = 0070;
},
{
glyphname = thorn;
lastChange = "2019-04-12 13:01:23 +0000";
layers = (
{
components = (
{
name = _part.b;
transform = "{1, 0, 0, 1, 7, 0}";
}
);
layerId = "16E083CF-37A0-4840-9CF0-495EAF69E79B";
paths = (
{
closed = 1;
nodes = (
"235 -170 LINE",
"235 670 LINE",
"65 670 LINE",
"65 -170 LINE"
);
}
);
width = 625;
},
{
components = (
{
name = _part.b;
transform = "{1, 0, 0, 1, -15, 0}";
}
);
layerId = "20086791-C5B6-4597-997A-CAD8F8E58507";
paths = (
{
closed = 1;
nodes = (
"185 -170 LINE",
"185 670 LINE",
"75 670 LINE",
"75 -170 LINE"
);
}
);
width = 591;
}
);
leftMetricsKey = p;
rightKerningGroup = o;
rightMetricsKey = p;
unicode = 00FE;
},
{
glyphname = q;
lastChange = "2019-04-12 13:01:23 +0000";
layers = (
{
components = (
{
name = _part.b;
transform = "{-1, 0, 0, 1, 618, 0}";
}
);
layerId = "16E083CF-37A0-4840-9CF0-495EAF69E79B";
paths = (
{
closed = 1;
nodes = (
"561 -170 LINE",
"561 475 LINE",
"391 475 LINE",
"391 -170 LINE"
);
}
);
width = 626;
},
{
components = (
{
name = _part.b;
transform = "{-1, 0, 0, 1, 606, 0}";
}
);
layerId = "20086791-C5B6-4597-997A-CAD8F8E58507";
paths = (
{
closed = 1;
nodes = (
"516 -170 LINE",
"516 475 LINE",
"406 475 LINE",
"406 -170 LINE"
);
}
);
width = 591;
}
);
leftKerningGroup = o;
leftMetricsKey = o;
rightKerningGroup = q;
rightMetricsKey = d;
unicode = 0071;
},
{
glyphname = r;
lastChange = "2019-04-12 13:01:23 +0000";
layers = (
{
anchors = (
{
name = botton;
position = "{150, 0}";
},
{
name = top;
position = "{237, 475}";
}
);
components = (
{
name = _part.i;
transform = "{1, 0, 0, 1, 6, 0}";
}
);
layerId = "16E083CF-37A0-4840-9CF0-495EAF69E79B";
paths = (
{
closed = 1;
nodes = (
"272 323 LINE",
"409 323 LINE",
"409 475 LINE",
"316 475 LINE",
"201 371 LINE",
"201 258 LINE"
);
}
);
width = 419;
},
{
anchors = (
{
name = botton;
position = "{130, 0}";
},
{
name = top;
position = "{226.5, 475}";
}
);
components = (
{
name = _part.i;
}
);
layerId = "20086791-C5B6-4597-997A-CAD8F8E58507";
paths = (
{
closed = 1;
nodes = (
"271.75 365 LINE",
"378 365 LINE",
"378 475 LINE",
"270 475 LINE",
"170 376 LINE",
"170 264 LINE"
);
}
);
width = 388;
}
);
leftKerningGroup = n;
leftMetricsKey = n;
rightKerningGroup = r;
unicode = 0072;
},
{
glyphname = s;
lastChange = "2019-04-12 13:01:23 +0000";
layers = (
{
anchors = (
{
name = botton;
position = "{258, 0}";
},
{
name = top;
position = "{276, 475}";
}
);
layerId = "16E083CF-37A0-4840-9CF0-495EAF69E79B";
paths = (
{
closed = 1;
nodes = (
"415 0 LINE",
"511 89 LINE",
"511 206 LINE",
"414 295 LINE",
"229 295 LINE",
"204 320 LINE",
"204 333 LINE",
"227 358 LINE",
"465 358 LINE",
"465 475 LINE",
"136 475 LINE",
"40 386 LINE",
"40 275 LINE",
"137 186 LINE",
"320 186 LINE",
"345 161 LINE",
"345 142 LINE",
"320 117 LINE",
"64 117 LINE",
"64 0 LINE"
);
}
);
width = 551;
},
{
anchors = (
{
name = botton;
position = "{264, 0}";
},
{
name = top;
position = "{264, 475}";
}
);
layerId = "20086791-C5B6-4597-997A-CAD8F8E58507";
paths = (
{
closed = 1;
nodes = (
"384 0 LINE",
"475 91 LINE",
"475 197 LINE",
"382 288 LINE",
"204 288 LINE",
"163 329 LINE",
"163 350 LINE",
"198 385 LINE",
"424 385 LINE",
"424 475 LINE",
"144 475 LINE",
"53 384 LINE",
"53 292 LINE",
"146 201 LINE",
"322 201 LINE",
"365 158 LINE",
"365 127 LINE",
"328 90 LINE",
"79 90 LINE",
"79 0 LINE"
);
}
);
width = 525;
}
);
leftKerningGroup = o;
rightKerningGroup = o;
unicode = 0073;
},
{
glyphname = germandbls;
lastChange = "2019-04-12 13:01:23 +0000";
layers = (
{
layerId = "16E083CF-37A0-4840-9CF0-495EAF69E79B";
paths = (
{
closed = 1;
nodes = (
"256 0 LINE",
"256 519 LINE",
"288 551 LINE",
"380 551 LINE",
"412 519 LINE",
"412 432 LINE",
"380 400 LINE",
"510 337 LINE",
"581 406 LINE",
"581 581 LINE",
"486 670 LINE",
"165 670 LINE",
"70 581 LINE",
"70 0 LINE"
);
},
{
closed = 1;
nodes = (
"539 0 LINE",
"634 89 LINE",
"634 276 LINE",
"499 400 LINE",
"300 400 LINE",
"300 292 LINE",
"412 292 LINE",
"444 260 LINE",
"444 151 LINE",
"412 119 LINE",
"300 119 LINE",
"300 0 LINE"
);
}
);
width = 679;
},
{
background = {
paths = (
{
closed = 1;
nodes = (
"199 0 LINE",
"198.75 530 LINE",
"239 570.125 LINE",
"371 570.25 LINE",
"411.125 530 LINE",
"411 439 LINE",
"371 399 LINE",
"253 399 LINE",
"253 299 LINE",
"421 299.25 LINE",
"461.125 259 LINE",
"461.25 140 LINE",
"421 99.875 LINE",
"253 100 LINE",
"253 0 LINE",
"474 0 LINE",
"575 101 LINE",
"575 297.875 LINE",
"499 374 LINE",
"525 400 LINE",
"525 569 LINE",
"424 670 LINE",
"186 670 LINE",
"85 569 LINE",
"85 0 LINE"
);
}
);
};
layerId = "20086791-C5B6-4597-997A-CAD8F8E58507";
paths = (
{
closed = 1;
nodes = (
"199 0 LINE",
"199 530 LINE",
"239 570 LINE",
"371 570 LINE",
"411 530 LINE",
"411 439 LINE",
"370 398 LINE",
"473 348 LINE",
"525 400 LINE",
"525 569 LINE",
"424 670 LINE",
"186 670 LINE",
"85 569 LINE",
"85 0 LINE"
);
},
{
closed = 1;
nodes = (
"474 0 LINE",
"575 101 LINE",
"575 298 LINE",
"474 399 LINE",
"253 399 LINE",
"253 299 LINE",
"421 299 LINE",
"461 259 LINE",
"461 140 LINE",
"421 100 LINE",
"253 100 LINE",
"253 0 LINE"
);
}
);
width = 645;
}
);
leftMetricsKey = H;
rightMetricsKey = B;
unicode = 00DF;
},
{
glyphname = t;
lastChange = "2019-04-12 13:01:23 +0000";
layers = (
{
anchors = (
{
name = botton;
position = "{238, 0}";
}
);
layerId = "16E083CF-37A0-4840-9CF0-495EAF69E79B";
paths = (
{
closed = 1;
nodes = (
"328 0 LINE",
"328 108 LINE",
"259 108 LINE",
"234 133 LINE",
"234 610 LINE",
"122 610 LINE",
"65 459 LINE",
"64 458 LINE",
"64 88 LINE",
"160 0 LINE"
);
},
{
closed = 1;
nodes = (
"309 369 LINE",
"309 475 LINE",
"30 475 LINE",
"30 369 LINE"
);
}
);
width = 353;
},
{
anchors = (
{
name = botton;
position = "{228, 0}";
}
);
layerId = "20086791-C5B6-4597-997A-CAD8F8E58507";
paths = (
{
closed = 1;
nodes = (
"290 0 LINE",
"290 90 LINE",
"222 90 LINE",
"185 129 LINE",
"185 591 LINE",
"107 591 LINE",
"75 464 LINE",
"75 429 LINE",
"75 90 LINE",
"167 0 LINE"
);
},
{
closed = 1;
nodes = (
"268 390 LINE",
"268 475 LINE",
"37 475 LINE",
"37 390 LINE"
);
}
);
width = 320;
}
);
leftKerningGroup = t;
rightKerningGroup = t;
unicode = 0074;
},
{
color = 0;
glyphname = tbar;
lastChange = "2019-04-12 13:36:14 +0000";
layers = (
{
components = (
{
name = t;
}
);
layerId = "16E083CF-37A0-4840-9CF0-495EAF69E79B";
paths = (
{
closed = 1;
nodes = (
"309 215 LINE",
"309 301 LINE",
"30 301 LINE",
"30 215 LINE"
);
}
);
width = 353;
},
{
components = (
{
name = t;
}
);
layerId = "20086791-C5B6-4597-997A-CAD8F8E58507";
paths = (
{
closed = 1;
nodes = (
"268 216 LINE",
"268 291 LINE",
"37 291 LINE",
"37 216 LINE"
);
}
);
width = 320;
}
);
leftMetricsKey = t;
rightMetricsKey = t;
unicode = 0167;
},
{
glyphname = u;
lastChange = "2019-04-12 13:01:23 +0000";
layers = (
{
components = (
{
name = _part.i;
transform = "{-1, 0, 0, -1, 615, 475}";
}
);
layerId = "16E083CF-37A0-4840-9CF0-495EAF69E79B";
paths = (
{
closed = 1;
nodes = (
"307 0 LINE",
"413 86 LINE",
"413 198 LINE",
"294 96 LINE",
"257 96 LINE",
"225 128 LINE",
"225 475 LINE",
"55 475 LINE",
"55 101 LINE",
"156 0 LINE"
);
}
);
width = 621;
},
{
components = (
{
name = _part.i;
transform = "{-1, 0, 0, -1, 591, 475}";
}
);
layerId = "20086791-C5B6-4597-997A-CAD8F8E58507";
paths = (
{
closed = 1;
nodes = (
"337 0 LINE",
"437 99 LINE",
"437 211 LINE",
"310 85 LINE",
"218 85 LINE",
"180 127 LINE",
"180 475 LINE",
"70 475 LINE",
"70 101 LINE",
"171 0 LINE"
);
}
);
width = 591;
}
);
leftKerningGroup = u;
rightKerningGroup = u;
rightMetricsKey = d;
unicode = 0075;
},
{
glyphname = uogonek;
lastChange = "2019-04-12 13:01:23 +0000";
layers = (
{
components = (
{
name = u;
}
);
layerId = "16E083CF-37A0-4840-9CF0-495EAF69E79B";
paths = (
{
closed = 1;
nodes = (
"556 -164 LINE",
"556 -71 LINE",
"542 -71 LINE",
"525 -55 LINE",
"525 -30 LINE",
"556 0 LINE",
"472 0 LINE",
"431 -30 LINE",
"431 -104 LINE",
"497 -164 LINE"
);
}
);
width = 621;
},
{
components = (
{
name = u;
}
);
layerId = "20086791-C5B6-4597-997A-CAD8F8E58507";
paths = (
{
closed = 1;
nodes = (
"516 -156 LINE",
"516 -82 LINE",
"487 -82 LINE",
"468 -63 LINE",
"468 -35 LINE",
"516 0 LINE",
"440 0 LINE",
"399 -30 LINE",
"399 -98 LINE",
"457 -156 LINE"
);
}
);
width = 591;
}
);
leftKerningGroup = u;
leftMetricsKey = u;
rightKerningGroup = u;
rightMetricsKey = u;
unicode = 0173;
},
{
glyphname = v;
lastChange = "2019-04-12 13:01:23 +0000";
layers = (
{
layerId = "16E083CF-37A0-4840-9CF0-495EAF69E79B";
paths = (
{
closed = 1;
nodes = (
"408 0 LINE",
"576 475 LINE",
"381 475 LINE",
"304 128 LINE",
"272 128 LINE",
"195 475 LINE",
"0 475 LINE",
"168 0 LINE"
);
}
);
width = 576;
},
{
layerId = "20086791-C5B6-4597-997A-CAD8F8E58507";
paths = (
{
closed = 1;
nodes = (
"344 0 LINE",
"548 475 LINE",
"427 475 LINE",
"290 108 LINE",
"268 108 LINE",
"131 475 LINE",
"10 475 LINE",
"214 0 LINE"
);
}
);
width = 558;
}
);
leftKerningGroup = v;
rightKerningGroup = v;
unicode = 0076;
},
{
glyphname = w;
lastChange = "2019-04-12 13:01:23 +0000";
layers = (
{
anchors = (
{
name = bottom;
position = "{436, 0}";
},
{
name = top;
position = "{436, 475}";
}
);
layerId = "16E083CF-37A0-4840-9CF0-495EAF69E79B";
paths = (
{
closed = 1;
nodes = (
"391 0 LINE",
"436 207 LINE",
"481 0 LINE",
"739 0 LINE",
"872 475 LINE",
"678 475 LINE",
"618 128 LINE",
"586 128 LINE",
"526 475 LINE",
"346 475 LINE",
"286 128 LINE",
"254 128 LINE",
"194 475 LINE",
"0 475 LINE",
"133 0 LINE"
);
}
);
width = 872;
},
{
anchors = (
{
name = bottom;
position = "{403, 0}";
},
{
name = top;
position = "{403, 475}";
}
);
layerId = "20086791-C5B6-4597-997A-CAD8F8E58507";
paths = (
{
closed = 1;
nodes = (
"305 0 LINE",
"403 304 LINE",
"501 0 LINE",
"643 0 LINE",
"796 475 LINE",
"680 475 LINE",
"583 108 LINE",
"561 108 LINE",
"464 475 LINE",
"342 475 LINE",
"245 108 LINE",
"223 108 LINE",
"126 475 LINE",
"10 475 LINE",
"163 0 LINE"
);
}
);
width = 806;
}
);
leftKerningGroup = w;
leftMetricsKey = v;
rightKerningGroup = w;
rightMetricsKey = v;
unicode = 0077;
},
{
glyphname = x;
lastChange = "2019-04-12 13:01:23 +0000";
layers = (
{
layerId = "16E083CF-37A0-4840-9CF0-495EAF69E79B";
paths = (
{
closed = 1;
nodes = (
"194 0 LINE",
"261 175 LINE",
"293 175 LINE",
"360 0 LINE",
"554 0 LINE",
"387 318 LINE",
"386 167 LINE",
"554 475 LINE",
"362 475 LINE",
"293 303 LINE",
"261 303 LINE",
"192 475 LINE",
"0 475 LINE",
"169 166 LINE",
"168 317 LINE",
"0 0 LINE"
);
}
);
width = 554;
},
{
layerId = "20086791-C5B6-4597-997A-CAD8F8E58507";
paths = (
{
closed = 1;
nodes = (
"145 0 LINE",
"264 191 LINE",
"286 191 LINE",
"407 0 LINE",
"542 0 LINE",
"349 283 LINE",
"347 209 LINE",
"542 475 LINE",
"410 475 LINE",
"287 298 LINE",
"265 298 LINE",
"142 475 LINE",
"10 475 LINE",
"205 209 LINE",
"204 283 LINE",
"10 0 LINE"
);
}
);
width = 552;
}
);
leftKerningGroup = x;
leftMetricsKey = v;
rightKerningGroup = x;
rightMetricsKey = v;
unicode = 0078;
},
{
glyphname = y;
lastChange = "2019-04-12 13:01:23 +0000";
layers = (
{
layerId = "16E083CF-37A0-4840-9CF0-495EAF69E79B";
paths = (
{
closed = 1;
nodes = (
"307 0 LINE",
"413 86 LINE",
"413 198 LINE",
"294 96 LINE",
"257 96 LINE",
"225 128 LINE",
"225 475 LINE",
"55 475 LINE",
"55 101 LINE",
"156 0 LINE"
);
},
{
closed = 1;
nodes = (
"452 -170 LINE",
"554 -67 LINE",
"554 475 LINE",
"394 475 LINE",
"394 -23 LINE",
"362 -55 LINE",
"93 -55 LINE",
"93 -170 LINE"
);
}
);
width = 607;
},
{
layerId = "20086791-C5B6-4597-997A-CAD8F8E58507";
paths = (
{
closed = 1;
nodes = (
"263 -170 LINE",
"528 475 LINE",
"407 475 LINE",
"280 135 LINE",
"258 135 LINE",
"131 475 LINE",
"10 475 LINE",
"194 27 LINE",
"235 27 LINE",
"152 -170 LINE"
);
}
);
width = 538;
},
{
associatedMasterId = "20086791-C5B6-4597-997A-CAD8F8E58507";
layerId = "117715F9-5443-4E73-97A3-F6328D08144F";
name = "Regular[130]";
paths = (
{
closed = 1;
nodes = (
"337 0 LINE",
"437 99 LINE",
"437 211 LINE",
"310 85 LINE",
"218 85 LINE",
"180 127 LINE",
"180 475 LINE",
"70 475 LINE",
"70 101 LINE",
"171 0 LINE"
);
},
{
closed = 1;
nodes = (
"415 -170 LINE",
"516 -69 LINE",
"516 475 LINE",
"406 475 LINE",
"406 -40 LINE",
"366 -80 LINE",
"99 -80 LINE",
"99 -170 LINE"
);
}
);
width = 538;
}
);
leftKerningGroup = v;
rightKerningGroup = v;
unicode = 0079;
},
{
glyphname = z;
lastChange = "2019-04-12 13:01:23 +0000";
layers = (
{
anchors = (
{
name = top;
position = "{279, 475}";
}
);
layerId = "16E083CF-37A0-4840-9CF0-495EAF69E79B";
paths = (
{
closed = 1;
nodes = (
"505 0 LINE",
"505 116 LINE",
"191 116 LINE",
"224 60 LINE",
"498 359 LINE",
"498 475 LINE",
"66 475 LINE",
"66 359 LINE",
"351 359 LINE",
"321 416 LINE",
"45 113 LINE",
"45 0 LINE"
);
}
);
width = 555;
},
{
anchors = (
{
name = top;
position = "{262, 475}";
}
);
guideLines = (
{
angle = -43.4489;
position = "{246, 255}";
showMeasurement = 1;
}
);
layerId = "20086791-C5B6-4597-997A-CAD8F8E58507";
paths = (
{
closed = 1;
nodes = (
"470 0 LINE",
"470 90 LINE",
"147 90 LINE",
"158 57 LINE",
"464 374 LINE",
"464 475 LINE",
"74 475 LINE",
"74 385 LINE",
"373 385 LINE",
"362 419 LINE",
"55 101 LINE",
"55 0 LINE"
);
}
);
width = 530;
}
);
leftKerningGroup = z;
rightKerningGroup = z;
unicode = 007A;
},
{
glyphname = f_f;
lastChange = "2019-04-12 13:01:23 +0000";
layers = (
{
components = (
{
name = f;
}
);
layerId = "16E083CF-37A0-4840-9CF0-495EAF69E79B";
paths = (
{
closed = 1;
nodes = (
"568 0 LINE",
"568 546 LINE",
"593 571 LINE",
"673 571 LINE",
"673 670 LINE",
"494 670 LINE",
"398 581 LINE",
"398 0 LINE"
);
},
{
closed = 1;
nodes = (
"651 369 LINE",
"651 475 LINE",
"303 475 LINE",
"303 369 LINE"
);
}
);
width = 673;
},
{
components = (
{
name = f;
}
);
layerId = "20086791-C5B6-4597-997A-CAD8F8E58507";
paths = (
{
closed = 1;
nodes = (
"461 0 LINE",
"461 541 LINE",
"498 580 LINE",
"566 580 LINE",
"566 670 LINE",
"442 670 LINE",
"351 579 LINE",
"351 0 LINE"
);
},
{
closed = 1;
nodes = (
"545 390 LINE",
"545 475 LINE",
"257 475 LINE",
"257 390 LINE"
);
}
);
width = 566;
}
);
leftMetricsKey = f;
rightMetricsKey = f;
},
{
glyphname = f_f_i;
lastChange = "2019-04-12 13:01:23 +0000";
layers = (
{
components = (
{
name = f;
}
);
layerId = "16E083CF-37A0-4840-9CF0-495EAF69E79B";
paths = (
{
closed = 1;
nodes = (
"568 0 LINE",
"568 546 LINE",
"593 571 LINE",
"813 571 LINE",
"813 670 LINE",
"494 670 LINE",
"398 581 LINE",
"398 0 LINE"
);
},
{
closed = 1;
nodes = (
"651 369 LINE",
"651 475 LINE",
"303 475 LINE",
"303 369 LINE"
);
},
{
closed = 1;
nodes = (
"863 0 LINE",
"863 475 LINE",
"693 475 LINE",
"693 0 LINE"
);
}
);
width = 928;
},
{
components = (
{
name = f;
}
);
layerId = "20086791-C5B6-4597-997A-CAD8F8E58507";
paths = (
{
closed = 1;
nodes = (
"461.25 0 LINE",
"461.25 541 LINE",
"498.25 580 LINE",
"649.125 580 LINE",
"649.125 670 LINE",
"442.25 670 LINE",
"351.25 579 LINE",
"351.25 0 LINE"
);
},
{
closed = 1;
nodes = (
"545 390 LINE",
"545 475 LINE",
"257 475 LINE",
"257 390 LINE"
);
},
{
closed = 1;
nodes = (
"688.809 0 LINE",
"688.809 475 LINE",
"578.809 475 LINE",
"578.809 0 LINE"
);
}
);
width = 763.75;
}
);
leftMetricsKey = f;
rightMetricsKey = i;
},
{
glyphname = fi;
lastChange = "2019-04-12 13:01:23 +0000";
layers = (
{
layerId = "16E083CF-37A0-4840-9CF0-495EAF69E79B";
paths = (
{
closed = 1;
nodes = (
"230 0 LINE",
"230 546 LINE",
"255 571 LINE",
"475 571 LINE",
"475 670 LINE",
"156 670 LINE",
"60 581 LINE",
"60 0 LINE"
);
},
{
closed = 1;
nodes = (
"313 369 LINE",
"313 475 LINE",
"22 475 LINE",
"22 369 LINE"
);
},
{
closed = 1;
nodes = (
"525 0 LINE",
"525 475 LINE",
"355 475 LINE",
"355 0 LINE"
);
}
);
width = 590;
},
{
layerId = "20086791-C5B6-4597-997A-CAD8F8E58507";
paths = (
{
closed = 1;
nodes = (
"184 0 LINE",
"184 541 LINE",
"221 580 LINE",
"371.875 580 LINE",
"371.875 670 LINE",
"165 670 LINE",
"74 579 LINE",
"74 0 LINE"
);
},
{
closed = 1;
nodes = (
"268 390 LINE",
"268 475 LINE",
"37 475 LINE",
"37 390 LINE"
);
},
{
closed = 1;
nodes = (
"411.595 0 LINE",
"411.595 475 LINE",
"301.595 475 LINE",
"301.595 0 LINE"
);
}
);
width = 486.625;
}
);
leftMetricsKey = f;
rightMetricsKey = i;
unicode = FB01;
},
{
glyphname = ordfeminine;
lastChange = "2019-04-12 13:01:23 +0000";
layers = (
{
layerId = "16E083CF-37A0-4840-9CF0-495EAF69E79B";
paths = (
{
closed = 1;
nodes = (
"254 291 LINE",
"297 337 LINE",
"297 291 LINE",
"442 291 LINE",
"442 584 LINE",
"358 670 LINE",
"101 670 LINE",
"101 582 LINE",
"268 582 LINE",
"288 562 LINE",
"288 538 LINE",
"129 538 LINE",
"56 463 LINE",
"56 370 LINE",
"133 291 LINE"
);
},
{
closed = 1;
nodes = (
"200 395 LINE",
"200 450 LINE",
"220 470 LINE",
"288 470 LINE",
"288 413 LINE",
"248 375 LINE",
"220 375 LINE"
);
}
);
width = 498;
},
{
layerId = "20086791-C5B6-4597-997A-CAD8F8E58507";
paths = (
{
closed = 1;
nodes = (
"267 295 LINE",
"307 341 LINE",
"307 295 LINE",
"403 295 LINE",
"403 592 LINE",
"327 670 LINE",
"112 670 LINE",
"112 585 LINE",
"285 585 LINE",
"303 567 LINE",
"303 539 LINE",
"142 539 LINE",
"70 465 LINE",
"70 373 LINE",
"146 295 LINE"
);
},
{
closed = 1;
nodes = (
"170 398 LINE",
"170 444 LINE",
"188 462 LINE",
"293 462 LINE",
"293 417 LINE",
"256 380 LINE",
"188 380 LINE"
);
}
);
width = 473;
}
);
unicode = 00AA;
},
{
glyphname = ordmasculine;
lastChange = "2019-04-12 13:01:23 +0000";
layers = (
{
layerId = "16E083CF-37A0-4840-9CF0-495EAF69E79B";
paths = (
{
closed = 1;
nodes = (
"373 291 LINE",
"452 372 LINE",
"452 589 LINE",
"373 670 LINE",
"135 670 LINE",
"56 589 LINE",
"56 372 LINE",
"135 291 LINE"
);
},
{
closed = 1;
nodes = (
"208 400 LINE",
"208 562 LINE",
"228 582 LINE",
"280 582 LINE",
"300 562 LINE",
"300 400 LINE",
"280 380 LINE",
"228 380 LINE"
);
}
);
width = 508;
},
{
guideLines = (
{
angle = 43.9867;
position = "{275.5, 556.125}";
showMeasurement = 1;
}
);
layerId = "20086791-C5B6-4597-997A-CAD8F8E58507";
paths = (
{
closed = 1;
nodes = (
"333 295 LINE",
"409 373 LINE",
"409 592 LINE",
"333 670 LINE",
"146 670 LINE",
"70 592 LINE",
"70 373 LINE",
"146 295 LINE"
);
},
{
closed = 1;
nodes = (
"170 398 LINE",
"170 567 LINE",
"188 585 LINE",
"291 585 LINE",
"309 567 LINE",
"309 398 LINE",
"291 380 LINE",
"188 380 LINE"
);
}
);
width = 479;
}
);
unicode = 00BA;
},
{
glyphname = zero;
lastChange = "2019-04-12 13:01:23 +0000";
layers = (
{
layerId = "16E083CF-37A0-4840-9CF0-495EAF69E79B";
paths = (
{
closed = 1;
nodes = (
"487 0 LINE",
"588 101 LINE",
"588 569 LINE",
"487 670 LINE",
"151 670 LINE",
"50 569 LINE",
"50 101 LINE",
"151 0 LINE"
);
},
{
closed = 1;
nodes = (
"220 161 LINE",
"220 509 LINE",
"252 541 LINE",
"386 541 LINE",
"418 509 LINE",
"418 161 LINE",
"386 129 LINE",
"252 129 LINE"
);
}
);
width = 638;
},
{
layerId = "20086791-C5B6-4597-997A-CAD8F8E58507";
paths = (
{
closed = 1;
nodes = (
"471 0 LINE",
"572 101 LINE",
"572 569 LINE",
"471 670 LINE",
"171 670 LINE",
"70 569 LINE",
"70 101 LINE",
"171 0 LINE"
);
},
{
closed = 1;
nodes = (
"184 140 LINE",
"184 530 LINE",
"224 570 LINE",
"418 570 LINE",
"458 530 LINE",
"458 140 LINE",
"418 100 LINE",
"224 100 LINE"
);
}
);
width = 642;
}
);
leftKerningGroup = zero;
leftMetricsKey = O;
rightKerningGroup = zero;
rightMetricsKey = O;
unicode = 0030;
},
{
glyphname = one;
lastChange = "2019-04-12 13:01:23 +0000";
layers = (
{
layerId = "16E083CF-37A0-4840-9CF0-495EAF69E79B";
paths = (
{
closed = 1;
nodes = (
"403 0 LINE",
"403 135 LINE",
"50 135 LINE",
"50 0 LINE"
);
},
{
closed = 1;
nodes = (
"252 535 LINE",
"252 670 LINE",
"59 670 LINE",
"59 535 LINE"
);
},
{
closed = 1;
nodes = (
"312 0 LINE",
"312 670 LINE",
"142 670 LINE",
"142 0 LINE"
);
}
);
width = 443;
},
{
layerId = "20086791-C5B6-4597-997A-CAD8F8E58507";
paths = (
{
closed = 1;
nodes = (
"352 0 LINE",
"352 104 LINE",
"60 104 LINE",
"60 0 LINE"
);
},
{
closed = 1;
nodes = (
"214 566 LINE",
"214 670 LINE",
"73 670 LINE",
"73 566 LINE"
);
},
{
closed = 1;
nodes = (
"263 0 LINE",
"263 670 LINE",
"149 670 LINE",
"149 0 LINE"
);
}
);
width = 402;
}
);
leftKerningGroup = one;
rightKerningGroup = one;
unicode = 0031;
},
{
glyphname = two;
lastChange = "2019-04-12 13:01:23 +0000";
layers = (
{
background = {
paths = (
{
closed = 1;
nodes = (
"594 0 LINE",
"594 135 LINE",
"262 135 LINE",
"589 401 LINE",
"589 581 LINE",
"493 670 LINE",
"156 670 LINE",
"55 569 LINE",
"163 470 LINE",
"257 561 LINE",
"380 561 LINE",
"412 529 LINE",
"412 457 LINE",
"50 156 LINE",
"50 0 LINE"
);
}
);
};
layerId = "16E083CF-37A0-4840-9CF0-495EAF69E79B";
paths = (
{
closed = 1;
nodes = (
"589 0 LINE",
"589 135 LINE",
"262 135 LINE",
"584 401 LINE",
"584 581 LINE",
"488 670 LINE",
"156 670 LINE",
"55 569 LINE",
"163 470 LINE",
"236 541 LINE",
"380 541 LINE",
"412 509 LINE",
"412 457 LINE",
"50 156 LINE",
"50 0 LINE"
);
}
);
width = 639;
},
{
background = {
paths = (
{
closed = 1;
nodes = (
"529 0 LINE",
"529 104 LINE",
"195 104 LINE",
"195 104 LINE",
"523 401 LINE",
"523 670 LINE",
"150 670 LINE",
"59 579 LINE",
"134 503 LINE",
"202 570 LINE",
"359 570 LINE",
"409 520 LINE",
"409 451 LINE",
"66 144 LINE",
"66 0 LINE"
);
}
);
};
guideLines = (
{
angle = 134.9784;
position = "{190.625, 456.625}";
showMeasurement = 1;
}
);
layerId = "20086791-C5B6-4597-997A-CAD8F8E58507";
paths = (
{
closed = 1;
nodes = (
"529 0 LINE",
"529 104 LINE",
"195 104 LINE",
"523 401 LINE",
"523 569 LINE",
"422 670 LINE",
"151 670 LINE",
"60 579 LINE",
"134 504 LINE",
"201 570 LINE",
"369 570 LINE",
"409 530 LINE",
"409 448 LINE",
"66 139 LINE",
"66 0 LINE"
);
}
);
width = 604;
},
{
associatedMasterId = "16E083CF-37A0-4840-9CF0-495EAF69E79B";
layerId = "90D7A24E-5C24-4ACD-8D76-AFAFF4243CDB";
name = "Bold[150]";
paths = (
{
closed = 1;
nodes = (
"580 0 LINE",
"580 135 LINE",
"255 135 LINE",
"575 401 LINE",
"575 581 LINE",
"479 670 LINE",
"156 670 LINE",
"61 581 LINE",
"61 444 LINE",
"231 444 LINE",
"231 514 LINE",
"258 541 LINE",
"378 541 LINE",
"405 514 LINE",
"405 457 LINE",
"50 156 LINE",
"50 0 LINE"
);
}
);
width = 630;
}
);
leftKerningGroup = two;
rightKerningGroup = two;
unicode = 0032;
},
{
glyphname = three;
lastChange = "2019-04-12 13:01:23 +0000";
layers = (
{
background = {
hints = (
{
origin = "{0, 0}";
type = Corner;
name = _corner.dia_esq;
options = 1;
},
{
origin = "{0, 4}";
type = Corner;
name = _corner.dia_dir;
options = 1;
}
);
paths = (
{
closed = 1;
nodes = (
"589 0 LINE",
"589 280 LINE",
"522 346 LINE",
"589 413 LINE",
"589 670 LINE",
"166 670 LINE",
"65 569 LINE",
"173 470 LINE",
"267 561 LINE",
"387 561 LINE",
"419 529 LINE",
"419 442 LINE",
"387 410 LINE",
"200 410 LINE",
"200 283 LINE",
"387 283 LINE",
"419 251 LINE",
"419 141 LINE",
"387 109 LINE",
"268 109 LINE",
"174 200 LINE",
"66 101 LINE",
"167 0 LINE"
);
}
);
};
hints = (
{
origin = "{0, 0}";
type = Corner;
name = _corner.dia_esq;
options = 1;
},
{
origin = "{0, 4}";
type = Corner;
name = _corner.dia_dir;
options = 1;
}
);
layerId = "16E083CF-37A0-4840-9CF0-495EAF69E79B";
paths = (
{
closed = 1;
nodes = (
"589 0 LINE",
"589 280 LINE",
"522 346 LINE",
"589 413 LINE",
"589 670 LINE",
"166 670 LINE",
"65 569 LINE",
"173 470 LINE",
"245 541 LINE",
"387 541 LINE",
"419 509 LINE",
"419 442 LINE",
"387 410 LINE",
"200 410 LINE",
"200 283 LINE",
"387 283 LINE",
"419 251 LINE",
"419 161 LINE",
"387 129 LINE",
"245 129 LINE",
"174 200 LINE",
"66 101 LINE",
"167 0 LINE"
);
}
);
width = 639;
},
{
guideLines = (
{
angle = 44.4883;
position = "{207.875, 179.375}";
showMeasurement = 1;
}
);
hints = (
{
origin = "{0, 4}";
type = Corner;
name = _corner.dia_dir;
options = 1;
},
{
origin = "{0, 0}";
type = Corner;
name = _corner.dia_esq;
options = 1;
}
);
layerId = "20086791-C5B6-4597-997A-CAD8F8E58507";
paths = (
{
closed = 1;
nodes = (
"535 0 LINE",
"535 289 LINE",
"474 350 LINE",
"535 411 LINE",
"535 670 LINE",
"148 670 LINE",
"57 579 LINE",
"131 504 LINE",
"198 570 LINE",
"381 570 LINE",
"421 530 LINE",
"421.25 440 LINE",
"381 399.875 LINE",
"185 400 LINE",
"185 300 LINE",
"381 300.25 LINE",
"421.125 260 LINE",
"421 140 LINE",
"381 100 LINE",
"181 100 LINE",
"114 166 LINE",
"40 91 LINE",
"131 0 LINE"
);
}
);
width = 605;
},
{
associatedMasterId = "16E083CF-37A0-4840-9CF0-495EAF69E79B";
hints = (
{
origin = "{0, 0}";
type = Corner;
name = _corner.dia_esq;
options = 1;
},
{
origin = "{0, 4}";
type = Corner;
name = _corner.dia_dir;
options = 1;
}
);
layerId = "1840363A-914B-4C86-A3B8-C5313328B235";
name = "Bold[150]";
paths = (
{
closed = 1;
nodes = (
"592 0 LINE",
"592 280 LINE",
"525 346 LINE",
"592 413 LINE",
"592 670 LINE",
"160 670 LINE",
"65 581 LINE",
"65 464 LINE",
"235 464 LINE",
"235 514 LINE",
"262 541 LINE",
"395 541 LINE",
"422 514 LINE",
"422 437 LINE",
"395 410 LINE",
"203 410 LINE",
"203 283 LINE",
"395 283 LINE",
"422 256 LINE",
"422 156 LINE",
"395 129 LINE",
"262 129 LINE",
"235 156 LINE",
"235 206 LINE",
"65 206 LINE",
"65 89 LINE",
"161 0 LINE"
);
}
);
width = 642;
}
);
leftKerningGroup = three;
leftMetricsKey = five;
rightKerningGroup = three;
rightMetricsKey = O;
unicode = 0033;
},
{
glyphname = four;
lastChange = "2019-04-12 13:01:23 +0000";
layers = (
{
layerId = "16E083CF-37A0-4840-9CF0-495EAF69E79B";
paths = (
{
closed = 1;
nodes = (
"539 0 LINE",
"539 109 LINE",
"615 109 LINE",
"615 237 LINE",
"539 237 LINE",
"539 670 LINE",
"365 670 LINE",
"25 237 LINE",
"25 109 LINE",
"369 109 LINE",
"369 0 LINE"
);
},
{
closed = 1;
nodes = (
"369 449 LINE",
"369 237 LINE",
"211 237 LINE"
);
}
);
width = 650;
},
{
layerId = "20086791-C5B6-4597-997A-CAD8F8E58507";
paths = (
{
closed = 1;
nodes = (
"466 0 LINE",
"466 130 LINE",
"544 130 LINE",
"544 234 LINE",
"466 234 LINE",
"466 670 LINE",
"352 670 LINE",
"30 234 LINE",
"30 130 LINE",
"352 130 LINE",
"352 0 LINE"
);
},
{
closed = 1;
nodes = (
"352 478 LINE",
"352 234 LINE",
"171 234 LINE"
);
}
);
width = 584;
}
);
leftKerningGroup = four;
rightKerningGroup = four;
unicode = 0034;
},
{
glyphname = five;
lastChange = "2019-04-12 13:01:23 +0000";
layers = (
{
background = {
paths = (
{
closed = 1;
nodes = (
"514 0 LINE",
"609 89 LINE",
"609 337 LINE",
"514 426 LINE",
"272 426 LINE",
"272 535 LINE",
"577 535 LINE",
"577 670 LINE",
"102 670 LINE",
"102 307 LINE",
"394 307 LINE",
"426 275 LINE",
"426 141 LINE",
"394 109 LINE",
"267 109 LINE",
"173 200 LINE",
"65 101 LINE",
"166 0 LINE"
);
}
);
};
layerId = "16E083CF-37A0-4840-9CF0-495EAF69E79B";
paths = (
{
closed = 1;
nodes = (
"501 0 LINE",
"596 89 LINE",
"596 337 LINE",
"501 426 LINE",
"272 426 LINE",
"272 535 LINE",
"564 535 LINE",
"564 670 LINE",
"102 670 LINE",
"102 307 LINE",
"394 307 LINE",
"426 275 LINE",
"426 161 LINE",
"394 129 LINE",
"247 129 LINE",
"173 200 LINE",
"65 101 LINE",
"166 0 LINE"
);
}
);
width = 646;
},
{
background = {
paths = (
{
closed = 1;
nodes = (
"434 0 LINE",
"525 91 LINE",
"525 336 LINE",
"434 427 LINE",
"178 427 LINE",
"178 566 LINE",
"488 566 LINE",
"488 670 LINE",
"64 670 LINE",
"64 327 LINE",
"361 327 LINE",
"411 277 LINE",
"411 150 LINE",
"361 100 LINE",
"183 100 LINE",
"115 167 LINE",
"40 91 LINE",
"131 0 LINE"
);
}
);
};
layerId = "20086791-C5B6-4597-997A-CAD8F8E58507";
paths = (
{
closed = 1;
nodes = (
"424 0 LINE",
"525 101 LINE",
"525 326 LINE",
"424 427 LINE",
"183 427 LINE",
"183 566 LINE",
"488 566 LINE",
"488 670 LINE",
"69 670 LINE",
"69 327 LINE",
"371 327 LINE",
"411 287 LINE",
"411 140 LINE",
"371 100 LINE",
"181 100 LINE",
"114 166 LINE",
"40 91 LINE",
"131 0 LINE"
);
}
);
width = 595;
},
{
associatedMasterId = "16E083CF-37A0-4840-9CF0-495EAF69E79B";
layerId = "E65ACF9F-5AE9-40A5-8412-41322A64054F";
name = "Bold[150]";
paths = (
{
closed = 1;
nodes = (
"514 0 LINE",
"609 89 LINE",
"609 337 LINE",
"514 426 LINE",
"257 426 LINE",
"257 535 LINE",
"577 535 LINE",
"577 670 LINE",
"75 670 LINE",
"75 307 LINE",
"399 307 LINE",
"426 280 LINE",
"426 156 LINE",
"399 129 LINE",
"274 129 LINE",
"247 156 LINE",
"247 216 LINE",
"70 216 LINE",
"70 89 LINE",
"166 0 LINE"
);
}
);
width = 659;
}
);
leftKerningGroup = five;
rightKerningGroup = five;
rightMetricsKey = O;
unicode = 0035;
},
{
glyphname = six;
lastChange = "2019-04-12 13:01:23 +0000";
layers = (
{
background = {
paths = (
{
closed = 1;
nodes = (
"514 0 LINE",
"609 89 LINE",
"609 329 LINE",
"514 418 LINE",
"234 418 LINE",
"224 418 LINE",
"224 529 LINE",
"256 561 LINE",
"410 561 LINE",
"500 474 LINE",
"608 573 LINE",
"511 670 LINE",
"145 670 LINE",
"50 581 LINE",
"50 89 LINE",
"145 0 LINE"
);
}
);
};
layerId = "16E083CF-37A0-4840-9CF0-495EAF69E79B";
paths = (
{
closed = 1;
nodes = (
"514 0 LINE",
"609 89 LINE",
"609 329 LINE",
"514 418 LINE",
"234 418 LINE",
"224 418 LINE",
"224 509 LINE",
"256 541 LINE",
"430 541 LINE",
"500 474 LINE",
"608 573 LINE",
"511 670 LINE",
"145 670 LINE",
"50 581 LINE",
"50 89 LINE",
"145 0 LINE"
);
},
{
closed = 1;
nodes = (
"224 161 LINE",
"224 268 LINE",
"256 300 LINE",
"406 300 LINE",
"438 268 LINE",
"438 161 LINE",
"406 129 LINE",
"256 129 LINE"
);
}
);
width = 659;
},
{
background = {
paths = (
{
closed = 1;
nodes = (
"483 0 LINE",
"574 91 LINE",
"574 331 LINE",
"483 422 LINE",
"228 422 LINE",
"184 382 LINE",
"184 520 LINE",
"234 570 LINE",
"429 570 LINE",
"497 503 LINE",
"572 579 LINE",
"481 670 LINE",
"161 670 LINE",
"70 579 LINE",
"70 91 LINE",
"161 0 LINE"
);
},
{
closed = 1;
nodes = (
"184 150 LINE",
"184 272 LINE",
"239 322 LINE",
"410 322 LINE",
"460 272 LINE",
"460 150 LINE",
"410 100 LINE",
"234 100 LINE"
);
}
);
};
layerId = "20086791-C5B6-4597-997A-CAD8F8E58507";
paths = (
{
closed = 1;
nodes = (
"473 0 LINE",
"574 101 LINE",
"574 321 LINE",
"473 422 LINE",
"228 422 LINE",
"184 382 LINE",
"184 530 LINE",
"224 570 LINE",
"431 570 LINE",
"498 504 LINE",
"572 579 LINE",
"481 670 LINE",
"171 670 LINE",
"70 569 LINE",
"70 101 LINE",
"171 0 LINE"
);
},
{
closed = 1;
nodes = (
"184 140 LINE",
"183.75 277 LINE",
"229 322.125 LINE",
"420 322 LINE",
"460 282 LINE",
"460 140 LINE",
"420 100 LINE",
"224 100 LINE"
);
}
);
width = 644;
},
{
associatedMasterId = "16E083CF-37A0-4840-9CF0-495EAF69E79B";
layerId = "6AEA70A0-BC69-4B87-B015-9B1426F4ADF0";
name = "Bold[150]";
paths = (
{
closed = 1;
nodes = (
"514 0 LINE",
"609 89 LINE",
"609 329 LINE",
"514 418 LINE",
"253 418 LINE",
"224 418 LINE",
"224 509 LINE",
"256 541 LINE",
"397 541 LINE",
"429 509 LINE",
"429 468 LINE",
"606 468 LINE",
"606 581 LINE",
"511 670 LINE",
"145 670 LINE",
"50 581 LINE",
"50 89 LINE",
"145 0 LINE"
);
},
{
closed = 1;
nodes = (
"224 161 LINE",
"224 268 LINE",
"256 300 LINE",
"406 300 LINE",
"438 268 LINE",
"438 161 LINE",
"406 129 LINE",
"256 129 LINE"
);
}
);
width = 659;
}
);
leftKerningGroup = six;
leftMetricsKey = O;
rightKerningGroup = six;
rightMetricsKey = O;
unicode = 0036;
},
{
glyphname = seven;
lastChange = "2019-04-12 13:01:23 +0000";
layers = (
{
layerId = "16E083CF-37A0-4840-9CF0-495EAF69E79B";
paths = (
{
closed = 1;
nodes = (
"250 0 LINE",
"527 518 LINE",
"527 670 LINE",
"15 670 LINE",
"15 527 LINE",
"313 527 LINE",
"313 495 LINE",
"43 0 LINE"
);
}
);
width = 552;
},
{
layerId = "20086791-C5B6-4597-997A-CAD8F8E58507";
paths = (
{
closed = 1;
nodes = (
"195 0 LINE",
"460 542 LINE",
"460 670 LINE",
"20 670 LINE",
"20 566 LINE",
"333 566 LINE",
"333 544 LINE",
"64 0 LINE"
);
}
);
width = 490;
}
);
leftKerningGroup = seven;
rightKerningGroup = seven;
unicode = 0037;
},
{
glyphname = eight;
lastChange = "2019-04-12 13:01:23 +0000";
layers = (
{
hints = (
{
horizontal = 1;
origin = "{0, 13}";
target = "{1, 7}";
type = Stem;
},
{
horizontal = 1;
origin = "{1, 2}";
target = "{2, 7}";
type = Stem;
},
{
horizontal = 1;
origin = "{2, 2}";
target = "{0, 7}";
type = Stem;
},
{
place = "{61.471, 73.765}";
type = Stem;
},
{
place = "{291.824, 73.765}";
type = Stem;
},
{
place = "{48.529, 73.765}";
type = Stem;
},
{
place = "{304.765, 73.765}";
type = Stem;
}
);
layerId = "16E083CF-37A0-4840-9CF0-495EAF69E79B";
paths = (
{
closed = 1;
nodes = (
"496 0 LINE",
"592 89 LINE",
"592 278 LINE",
"516 348 LINE",
"576 402 LINE",
"576 581 LINE",
"480 670 LINE",
"162 670 LINE",
"66 581 LINE",
"66 402 LINE",
"126 348 LINE",
"50 278 LINE",
"50 89 LINE",
"145 0 LINE"
);
},
{
closed = 1;
nodes = (
"220 161 LINE",
"220 252 LINE",
"252 284 LINE",
"390 284 LINE",
"422 252 LINE",
"422 161 LINE",
"390 129 LINE",
"252 129 LINE"
);
},
{
closed = 1;
nodes = (
"230 445 LINE",
"230 509 LINE",
"262 541 LINE",
"379 541 LINE",
"411 509 LINE",
"411 445 LINE",
"379 413 LINE",
"262 413 LINE"
);
}
);
width = 642;
},
{
background = {
paths = (
{
closed = 1;
nodes = (
"489 0 LINE",
"580 91 LINE",
"580 288 LINE",
"519 349 LINE",
"560 390 LINE",
"560 579 LINE",
"469 670 LINE",
"181 670 LINE",
"90 579 LINE",
"90 390 LINE",
"131 349 LINE",
"70 288 LINE",
"70 91 LINE",
"161 0 LINE"
);
},
{
closed = 1;
nodes = (
"184 150 LINE",
"184 249 LINE",
"234 299 LINE",
"416 299 LINE",
"466 249 LINE",
"466 150 LINE",
"416 100 LINE",
"234 100 LINE"
);
},
{
closed = 1;
nodes = (
"204 449 LINE",
"204 520 LINE",
"254 570 LINE",
"396 570 LINE",
"446 520 LINE",
"446 449 LINE",
"396 399 LINE",
"254 399 LINE"
);
}
);
};
guideLines = (
{
angle = 44.9832;
position = "{1101.875, 224.125}";
showMeasurement = 1;
}
);
hints = (
{
horizontal = 1;
place = "{0, 100}";
type = Stem;
},
{
horizontal = 1;
place = "{299, 100}";
type = Stem;
},
{
horizontal = 1;
place = "{570, 100}";
type = Stem;
},
{
place = "{95, 114}";
type = Stem;
},
{
place = "{451, 114}";
type = Stem;
},
{
place = "{75, 114}";
type = Stem;
},
{
place = "{471, 114}";
type = Stem;
}
);
layerId = "20086791-C5B6-4597-997A-CAD8F8E58507";
paths = (
{
closed = 1;
nodes = (
"479 0 LINE",
"580 101 LINE",
"580 294 LINE",
"519 355 LINE",
"560 396 LINE",
"560 569 LINE",
"459 670 LINE",
"191 670 LINE",
"90 569 LINE",
"90 396 LINE",
"131 355 LINE",
"70 294 LINE",
"70 101 LINE",
"171 0 LINE"
);
},
{
closed = 1;
nodes = (
"184 140 LINE",
"183.75 259 LINE",
"224 299.125 LINE",
"426 299.25 LINE",
"466.125 259 LINE",
"466 140 LINE",
"426 100 LINE",
"224 100 LINE"
);
},
{
closed = 1;
nodes = (
"203.875 429 LINE",
"204 530 LINE",
"244 570 LINE",
"406 570 LINE",
"446 530 LINE",
"446.25 429 LINE",
"416 398.875 LINE",
"234 398.75 LINE"
);
}
);
width = 650;
}
);
leftKerningGroup = eight;
leftMetricsKey = O;
rightKerningGroup = eight;
rightMetricsKey = O;
unicode = 0038;
},
{
glyphname = nine;
lastChange = "2019-04-12 13:01:23 +0000";
layers = (
{
layerId = "16E083CF-37A0-4840-9CF0-495EAF69E79B";
paths = (
{
closed = 1;
nodes = (
"527 0 LINE",
"622 89 LINE",
"622 581 LINE",
"527 670 LINE",
"163 670 LINE",
"68 581 LINE",
"68 341 LINE",
"163 252 LINE",
"442 252 LINE",
"452 252 LINE",
"452 161 LINE",
"420 129 LINE",
"247 129 LINE",
"173 200 LINE",
"65 101 LINE",
"166 0 LINE"
);
},
{
closed = 1;
nodes = (
"238 402 LINE",
"238 509 LINE",
"270 541 LINE",
"420 541 LINE",
"452 509 LINE",
"452 402 LINE",
"420 370 LINE",
"270 370 LINE"
);
}
);
width = 672;
},
{
background = {
paths = (
{
closed = 1;
nodes = (
"470 0 LINE",
"561 91 LINE",
"561 579 LINE",
"470 670 LINE",
"156 670 LINE",
"65 579 LINE",
"65 339 LINE",
"156 248 LINE",
"403 248 LINE",
"447 288 LINE",
"447 150 LINE",
"397 100 LINE",
"212 100 LINE",
"144 167 LINE",
"69 91 LINE",
"160 0 LINE"
);
},
{
closed = 1;
nodes = (
"179 398 LINE",
"179 520 LINE",
"229 570 LINE",
"397 570 LINE",
"447 520 LINE",
"447 398 LINE",
"392 348 LINE",
"229 348 LINE"
);
}
);
};
layerId = "20086791-C5B6-4597-997A-CAD8F8E58507";
paths = (
{
closed = 1;
nodes = (
"460 0 LINE",
"561 101 LINE",
"561 569 LINE",
"460 670 LINE",
"166 670 LINE",
"65 569 LINE",
"65 349 LINE",
"166 248 LINE",
"403 248 LINE",
"447 288 LINE",
"447 140 LINE",
"407 100 LINE",
"210 100 LINE",
"143 166 LINE",
"69 91 LINE",
"160 0 LINE"
);
},
{
closed = 1;
nodes = (
"179 388 LINE",
"179 530 LINE",
"219 570 LINE",
"407 570 LINE",
"447 530 LINE",
"447.25 398 LINE",
"397 347.875 LINE",
"219 348 LINE"
);
}
);
width = 631;
},
{
associatedMasterId = "16E083CF-37A0-4840-9CF0-495EAF69E79B";
layerId = "85F849A4-4771-4A8A-80E0-96E6B9E545C1";
name = "Bold[150]";
paths = (
{
closed = 1;
nodes = (
"160 670 LINE",
"65 581 LINE",
"65 341 LINE",
"160 252 LINE",
"421 252 LINE",
"450 252 LINE",
"450 161 LINE",
"418 129 LINE",
"277 129 LINE",
"245 161 LINE",
"245 202 LINE",
"68 202 LINE",
"68 89 LINE",
"163 0 LINE",
"529 0 LINE",
"624 89 LINE",
"624 581 LINE",
"529 670 LINE"
);
},
{
closed = 1;
nodes = (
"236 402 LINE",
"236 509 LINE",
"268 541 LINE",
"418 541 LINE",
"450 509 LINE",
"450 402 LINE",
"418 370 LINE",
"268 370 LINE"
);
}
);
width = 674;
}
);
leftKerningGroup = nine;
rightKerningGroup = nine;
rightMetricsKey = O;
unicode = 0039;
},
{
glyphname = onesuperior;
lastChange = "2019-04-12 13:01:23 +0000";
layers = (
{
layerId = "16E083CF-37A0-4840-9CF0-495EAF69E79B";
paths = (
{
closed = 1;
nodes = (
"246 315 LINE",
"246 403 LINE",
"50 403 LINE",
"50 315 LINE"
);
},
{
closed = 1;
nodes = (
"171 583 LINE",
"171 670 LINE",
"54 670 LINE",
"54 583 LINE"
);
},
{
closed = 1;
nodes = (
"201 315 LINE",
"201 670 LINE",
"96 670 LINE",
"96 315 LINE"
);
}
);
width = 286;
},
{
layerId = "20086791-C5B6-4597-997A-CAD8F8E58507";
paths = (
{
closed = 1;
nodes = (
"226 315 LINE",
"226 387 LINE",
"60 387 LINE",
"60 315 LINE"
);
},
{
closed = 1;
nodes = (
"157 598 LINE",
"157 670 LINE",
"66.5 670 LINE",
"66.5 598 LINE"
);
},
{
closed = 1;
nodes = (
"181.5 315 LINE",
"181.5 670 LINE",
"104.5 670 LINE",
"104.5 315 LINE"
);
}
);
width = 276;
}
);
leftMetricsKey = one;
rightMetricsKey = one;
unicode = 00B9;
},
{
glyphname = twosuperior;
lastChange = "2019-04-12 13:01:23 +0000";
layers = (
{
layerId = "16E083CF-37A0-4840-9CF0-495EAF69E79B";
paths = (
{
closed = 1;
nodes = (
"341 315 LINE",
"341 403 LINE",
"111 403 LINE",
"130 349 LINE",
"339 521 LINE",
"339 620 LINE",
"285 670 LINE",
"111 670 LINE",
"50 610 LINE",
"118 546 LINE",
"159 586 LINE",
"223 586 LINE",
"233 576 LINE",
"233 559 LINE",
"52 408 LINE",
"52 315 LINE"
);
}
);
width = 391;
},
{
layerId = "20086791-C5B6-4597-997A-CAD8F8E58507";
paths = (
{
closed = 1;
nodes = (
"319 315 LINE",
"319 387 LINE",
"142 387 LINE",
"142 364 LINE",
"316 521 LINE",
"316 614 LINE",
"259 670 LINE",
"116 670 LINE",
"60 615 LINE",
"111 563 LINE",
"149 600 LINE",
"221 600 LINE",
"239 582 LINE",
"239 554 LINE",
"67 399 LINE",
"67 315 LINE"
);
}
);
width = 393.625;
},
{
associatedMasterId = "16E083CF-37A0-4840-9CF0-495EAF69E79B";
layerId = "1FF17F1A-8A99-4780-A01B-73D802C0372F";
name = "Bold[150]";
paths = (
{
closed = 1;
nodes = (
"335 315 LINE",
"335 403 LINE",
"191 403 LINE",
"333 521 LINE",
"333 620 LINE",
"279 670 LINE",
"109 670 LINE",
"56 620 LINE",
"56 537 LINE",
"161 537 LINE",
"161 578 LINE",
"168 586 LINE",
"220 586 LINE",
"228 578 LINE",
"228 559 LINE",
"50 408 LINE",
"50 315 LINE"
);
}
);
width = 385;
}
);
leftMetricsKey = two;
rightMetricsKey = two;
unicode = 00B2;
},
{
glyphname = threesuperior;
lastChange = "2019-04-12 13:01:23 +0000";
layers = (
{
layerId = "16E083CF-37A0-4840-9CF0-495EAF69E79B";
paths = (
{
closed = 1;
nodes = (
"295 315 LINE",
"351 372 LINE",
"351 469 LINE",
"322 498 LINE",
"351 528 LINE",
"351 614 LINE",
"295 670 LINE",
"126 670 LINE",
"65 610 LINE",
"133 546 LINE",
"173 586 LINE",
"236 586 LINE",
"246 576 LINE",
"246 550 LINE",
"236 540 LINE",
"137 540 LINE",
"137 457 LINE",
"236 457 LINE",
"246 447 LINE",
"246 410 LINE",
"236 400 LINE",
"173 400 LINE",
"134 439 LINE",
"66 376 LINE",
"126 315 LINE"
);
}
);
width = 401;
},
{
background = {
paths = (
{
closed = 1;
nodes = (
"251.125 335 LINE",
"301.625 385.5 LINE",
"301.625 479.5 LINE",
"271.125 510 LINE",
"301.625 540.5 LINE",
"301.625 619.5 LINE",
"251.125 670 LINE",
"108.125 670 LINE",
"62.625 624.5 LINE",
"99.625 587 LINE",
"133.125 620 LINE",
"224.625 620.125 LINE",
"244.625 600 LINE",
"244.75 555 LINE",
"224.625 535 LINE",
"126.625 535 LINE",
"126.625 485 LINE",
"224.625 485.125 LINE",
"244.75 465 LINE",
"244.75 405 LINE",
"224.625 385.125 LINE",
"124.625 385 LINE",
"91.125 418 LINE",
"54.125 380.5 LINE",
"99.625 335 LINE"
);
}
);
};
layerId = "20086791-C5B6-4597-997A-CAD8F8E58507";
paths = (
{
closed = 1;
nodes = (
"255.25 315 LINE",
"311.625 371.375 LINE",
"311.625 473.625 LINE",
"285.25 500 LINE",
"311.625 526.375 LINE",
"311.625 613.625 LINE",
"255.25 670 LINE",
"104 670 LINE",
"48.5 614.5 LINE",
"99.5 562.875 LINE",
"137.25 600 LINE",
"217 600 LINE",
"235 582 LINE",
"235 553 LINE",
"217 535 LINE",
"107 535 LINE",
"107 465 LINE",
"217 465 LINE",
"235 447 LINE",
"235 403 LINE",
"217 385 LINE",
"128.75 385 LINE",
"91 422.125 LINE",
"40 370 LINE",
"95.5 315 LINE"
);
}
);
width = 381.625;
},
{
associatedMasterId = "16E083CF-37A0-4840-9CF0-495EAF69E79B";
layerId = "A7A08047-6CC4-4B99-86BE-1221B9FBDEFE";
name = "Bold[150]";
paths = (
{
closed = 1;
nodes = (
"292 315 LINE",
"348 372 LINE",
"348 469 LINE",
"319 498 LINE",
"348 528 LINE",
"348 614 LINE",
"292 670 LINE",
"118 670 LINE",
"65 620 LINE",
"65 562 LINE",
"170 562 LINE",
"170 578 LINE",
"177 586 LINE",
"236 586 LINE",
"243 578 LINE",
"243 548 LINE",
"236 540 LINE",
"134 540 LINE",
"134 457 LINE",
"236 457 LINE",
"243 449 LINE",
"243 407 LINE",
"236 400 LINE",
"177 400 LINE",
"170 407 LINE",
"170 428 LINE",
"65 428 LINE",
"65 366 LINE",
"119 315 LINE"
);
}
);
width = 398;
}
);
leftMetricsKey = three;
rightMetricsKey = three;
unicode = 00B3;
},
{
glyphname = foursuperior;
lastChange = "2019-04-12 13:01:23 +0000";
layers = (
{
layerId = "16E083CF-37A0-4840-9CF0-495EAF69E79B";
paths = (
{
closed = 1;
nodes = (
"302 315 LINE",
"302 370 LINE",
"340 370 LINE",
"340 454 LINE",
"302 454 LINE",
"302 670 LINE",
"200 670 LINE",
"25 447 LINE",
"25 370 LINE",
"197 370 LINE",
"197 315 LINE"
);
},
{
closed = 1;
nodes = (
"215 544 LINE",
"197 550 LINE",
"197 454 LINE",
"148 454 LINE"
);
}
);
width = 375;
},
{
background = {
paths = (
{
closed = 1;
nodes = (
"258 335 LINE",
"258 400 LINE",
"297 400 LINE",
"297 452 LINE",
"258 452 LINE",
"258 670 LINE",
"201 670 LINE",
"40 452 LINE",
"40 400 LINE",
"201 400 LINE",
"201 335 LINE"
);
},
{
closed = 1;
nodes = (
"110.5 452 LINE",
"201 574 LINE",
"201 452 LINE",
"110.5 452 LINE"
);
}
);
};
layerId = "20086791-C5B6-4597-997A-CAD8F8E58507";
paths = (
{
closed = 1;
nodes = (
"268 315 LINE",
"268 380 LINE",
"307 380 LINE",
"307 452 LINE",
"268 452 LINE",
"268 670 LINE",
"196 670 LINE",
"30 445.25 LINE",
"30 380 LINE",
"191 380 LINE",
"191 315 LINE"
);
},
{
closed = 1;
nodes = (
"222 575 LINE",
"191 585 LINE",
"191 452 LINE",
"130.25 452 LINE"
);
}
);
width = 347;
}
);
leftMetricsKey = four;
rightMetricsKey = four;
unicode = 2074;
},
{
glyphname = period;
lastChange = "2019-04-12 13:01:23 +0000";
layers = (
{
layerId = "16E083CF-37A0-4840-9CF0-495EAF69E79B";
paths = (
{
closed = 1;
nodes = (
"219 0 LINE",
"219 143 LINE",
"65 143 LINE",
"65 0 LINE"
);
}
);
width = 294;
},
{
layerId = "20086791-C5B6-4597-997A-CAD8F8E58507";
paths = (
{
closed = 1;
nodes = (
"180 0 LINE",
"180 114 LINE",
"70 114 LINE",
"70 0 LINE"
);
}
);
width = 260;
}
);
leftKerningGroup = period;
rightKerningGroup = period;
unicode = 002E;
},
{
glyphname = comma;
lastChange = "2019-04-12 13:01:23 +0000";
layers = (
{
layerId = "16E083CF-37A0-4840-9CF0-495EAF69E79B";
paths = (
{
closed = 1;
nodes = (
"156 -100 LINE",
"260 143 LINE",
"102 143 LINE",
"60 -100 LINE"
);
}
);
width = 350;
},
{
layerId = "20086791-C5B6-4597-997A-CAD8F8E58507";
paths = (
{
closed = 1;
nodes = (
"121 -100 LINE",
"204 114 LINE",
"97 114 LINE",
"60 -100 LINE"
);
}
);
width = 284;
}
);
leftKerningGroup = period;
rightKerningGroup = period;
unicode = 002C;
},
{
glyphname = semicolon;
lastChange = "2019-04-12 13:01:23 +0000";
layers = (
{
components = (
{
name = period;
transform = "{1, 0, 0, 1, 56, 332}";
}
);
layerId = "16E083CF-37A0-4840-9CF0-495EAF69E79B";
paths = (
{
closed = 1;
nodes = (
"175 -100 LINE",
"273 143 LINE",
"119 143 LINE",
"80 -100 LINE"
);
}
);
width = 345;
},
{
components = (
{
name = period;
transform = "{1, 0, 0, 1, 24, 361}";
}
);
layerId = "20086791-C5B6-4597-997A-CAD8F8E58507";
paths = (
{
closed = 1;
nodes = (
"128 -100 LINE",
"204 114 LINE",
"94 114 LINE",
"60 -100 LINE"
);
}
);
width = 284;
}
);
leftKerningGroup = colon;
rightKerningGroup = colon;
unicode = 003B;
},
{
glyphname = exclam;
lastChange = "2019-04-12 13:01:23 +0000";
layers = (
{
components = (
{
name = period;
transform = "{1, 0, 0, 1, 16, 0}";
}
);
layerId = "16E083CF-37A0-4840-9CF0-495EAF69E79B";
paths = (
{
closed = 1;
nodes = (
"226 196 LINE",
"246 670 LINE",
"65 670 LINE",
"85 196 LINE"
);
}
);
width = 311;
},
{
components = (
{
name = period;
transform = "{1, 0, 0, 1, 5, 0}";
}
);
layerId = "20086791-C5B6-4597-997A-CAD8F8E58507";
paths = (
{
closed = 1;
nodes = (
"175 174 LINE",
"185 670 LINE",
"75 670 LINE",
"85 174 LINE"
);
}
);
width = 260;
}
);
leftKerningGroup = exclam;
leftMetricsKey = n;
rightKerningGroup = exclam;
rightMetricsKey = d;
unicode = 0021;
},
{
glyphname = question;
lastChange = "2019-04-12 13:01:23 +0000";
layers = (
{
components = (
{
name = period;
transform = "{1, 0, 0, 1, 135, 0}";
}
);
layerId = "16E083CF-37A0-4840-9CF0-495EAF69E79B";
paths = (
{
closed = 1;
nodes = (
"344 192 LINE",
"344 289 LINE",
"529 382 LINE",
"529 581 LINE",
"434 670 LINE",
"125 670 LINE",
"24 569 LINE",
"132 470 LINE",
"226 561 LINE",
"342 561 LINE",
"374 529 LINE",
"374 455 LINE",
"206 371 LINE",
"206 192 LINE"
);
}
);
width = 579;
},
{
background = {
paths = (
{
closed = 1;
nodes = (
"304 174 LINE",
"304 258 LINE",
"493 401 LINE",
"493 579 LINE",
"402 670 LINE",
"141 670 LINE",
"50 579 LINE",
"124 504 LINE",
"191 570 LINE",
"329 570 LINE",
"379 520 LINE",
"379 448 LINE",
"208 311 LINE",
"208 174 LINE"
);
}
);
};
components = (
{
name = period;
transform = "{1, 0, 0, 1, 131, 0}";
}
);
guideLines = (
{
angle = 41.9645;
position = "{280.125, 494.875}";
showMeasurement = 1;
}
);
layerId = "20086791-C5B6-4597-997A-CAD8F8E58507";
paths = (
{
closed = 1;
nodes = (
"304 174 LINE",
"304 258 LINE",
"493 401 LINE",
"493 569 LINE",
"392 670 LINE",
"141 670 LINE",
"50 579 LINE",
"124 504 LINE",
"191 570 LINE",
"339 570 LINE",
"379 530 LINE",
"379 448 LINE",
"208 311 LINE",
"208 174 LINE"
);
}
);
width = 553;
},
{
associatedMasterId = "16E083CF-37A0-4840-9CF0-495EAF69E79B";
components = (
{
name = period;
transform = "{1, 0, 0, 1, 135, 0}";
}
);
layerId = "EDFB2DCD-AB76-4C3F-9570-37F84E080B0C";
name = "Bold[150]";
paths = (
{
closed = 1;
nodes = (
"344 192 LINE",
"344 289 LINE",
"529 382 LINE",
"529 581 LINE",
"434 670 LINE",
"125 670 LINE",
"30 581 LINE",
"30 467 LINE",
"207 467 LINE",
"207 534 LINE",
"234 561 LINE",
"347 561 LINE",
"374 534 LINE",
"374 455 LINE",
"206 371 LINE",
"206 192 LINE"
);
}
);
width = 579;
}
);
leftKerningGroup = question;
rightKerningGroup = question;
unicode = 003F;
},
{
glyphname = bullet;
lastChange = "2019-04-12 13:01:23 +0000";
layers = (
{
layerId = "16E083CF-37A0-4840-9CF0-495EAF69E79B";
paths = (
{
closed = 1;
nodes = (
"272 191 LINE",
"353 272 LINE",
"353 398 LINE",
"272 479 LINE",
"145 479 LINE",
"65 398 LINE",
"65 272 LINE",
"145 191 LINE"
);
}
);
width = 423;
},
{
layerId = "20086791-C5B6-4597-997A-CAD8F8E58507";
paths = (
{
closed = 1;
nodes = (
"259 208 LINE",
"330 279 LINE",
"330 391 LINE",
"259 462 LINE",
"146 462 LINE",
"75 391 LINE",
"75 279 LINE",
"146 208 LINE"
);
}
);
width = 405;
}
);
leftKerningGroup = bullet;
leftMetricsKey = n;
rightKerningGroup = bullet;
unicode = 2022;
},
{
glyphname = asterisk;
lastChange = "2019-04-12 13:01:23 +0000";
layers = (
{
layerId = "16E083CF-37A0-4840-9CF0-495EAF69E79B";
paths = (
{
closed = 1;
nodes = (
"219 432 LINE",
"271 351 LINE",
"356 413 LINE",
"293 487 LINE",
"386 511 LINE",
"353 611 LINE",
"264 574 LINE",
"270 670 LINE",
"165 670 LINE",
"172 573 LINE",
"83 609 LINE",
"50 510 LINE",
"144 486 LINE",
"83 412 LINE",
"167 350 LINE"
);
}
);
width = 436;
},
{
layerId = "20086791-C5B6-4597-997A-CAD8F8E58507";
paths = (
{
closed = 1;
nodes = (
"220 454 LINE",
"275 369 LINE",
"345 420 LINE",
"279 499 LINE",
"377 525 LINE",
"350 607 LINE",
"255 569 LINE",
"261 670 LINE",
"175 670 LINE",
"181 568 LINE",
"87 605 LINE",
"60 523 LINE",
"159 497 LINE",
"95 419 LINE",
"164 368 LINE"
);
}
);
width = 437;
}
);
leftKerningGroup = asterisk;
rightKerningGroup = asterisk;
unicode = 002A;
},
{
glyphname = numbersign;
lastChange = "2019-04-12 13:01:23 +0000";
layers = (
{
layerId = "16E083CF-37A0-4840-9CF0-495EAF69E79B";
paths = (
{
closed = 1;
nodes = (
"319 0 LINE",
"331 84 LINE",
"407 84 LINE",
"396 0 LINE",
"566 0 LINE",
"577 84 LINE",
"690 84 LINE",
"690 201 LINE",
"594 201 LINE",
"604 276 LINE",
"716 276 LINE",
"716 393 LINE",
"620 393 LINE",
"632 475 LINE",
"462 475 LINE",
"450 393 LINE",
"374 393 LINE",
"385 475 LINE",
"215 475 LINE",
"204 393 LINE",
"91 393 LINE",
"91 276 LINE",
"188 276 LINE",
"178 201 LINE",
"65 201 LINE",
"65 84 LINE",
"161 84 LINE",
"149 0 LINE"
);
},
{
closed = 1;
nodes = (
"358 276 LINE",
"434 276 LINE",
"424 201 LINE",
"348 201 LINE"
);
}
);
width = 781;
},
{
layerId = "20086791-C5B6-4597-997A-CAD8F8E58507";
paths = (
{
closed = 1;
nodes = (
"281 0 LINE",
"293 88 LINE",
"388 88 LINE",
"376 0 LINE",
"486 0 LINE",
"498 88 LINE",
"621 88 LINE",
"621 192 LINE",
"513 192 LINE",
"526 285 LINE",
"648 285 LINE",
"648 389 LINE",
"540 389 LINE",
"552 475 LINE",
"442 475 LINE",
"430 389 LINE",
"335 389 LINE",
"347 475 LINE",
"237 475 LINE",
"225 389 LINE",
"102 389 LINE",
"102 285 LINE",
"211 285 LINE",
"198 192 LINE",
"75 192 LINE",
"75 88 LINE",
"183 88 LINE",
"171 0 LINE"
);
},
{
closed = 1;
nodes = (
"321 285 LINE",
"416 285 LINE",
"403 192 LINE",
"308 192 LINE"
);
}
);
width = 723;
}
);
leftKerningGroup = numbersign;
leftMetricsKey = n;
rightKerningGroup = numbersign;
rightMetricsKey = d;
unicode = 0023;
},
{
glyphname = slash;
lastChange = "2019-04-12 13:01:23 +0000";
layers = (
{
layerId = "16E083CF-37A0-4840-9CF0-495EAF69E79B";
paths = (
{
closed = 1;
nodes = (
"202 -99 LINE",
"483 670 LINE",
"296 670 LINE",
"15 -99 LINE"
);
}
);
width = 498;
},
{
layerId = "20086791-C5B6-4597-997A-CAD8F8E58507";
paths = (
{
closed = 1;
nodes = (
"135 -99 LINE",
"416 670 LINE",
"301 670 LINE",
"20 -99 LINE"
);
}
);
width = 436;
}
);
leftKerningGroup = slash;
rightKerningGroup = slash;
unicode = 002F;
},
{
glyphname = backslash;
lastChange = "2019-04-12 13:01:23 +0000";
layers = (
{
layerId = "16E083CF-37A0-4840-9CF0-495EAF69E79B";
paths = (
{
closed = 1;
nodes = (
"483 -99 LINE",
"202 670 LINE",
"15 670 LINE",
"296 -99 LINE"
);
}
);
width = 498;
},
{
layerId = "20086791-C5B6-4597-997A-CAD8F8E58507";
paths = (
{
closed = 1;
nodes = (
"416 -99 LINE",
"135 670 LINE",
"20 670 LINE",
"301 -99 LINE"
);
}
);
width = 436;
}
);
leftKerningGroup = backslash;
rightKerningGroup = backslash;
unicode = 005C;
},
{
glyphname = numbersign.01;
lastChange = "2019-04-12 13:01:23 +0000";
layers = (
{
layerId = "16E083CF-37A0-4840-9CF0-495EAF69E79B";
paths = (
{
closed = 1;
nodes = (
"332 0 LINE",
"354 156 LINE",
"430 156 LINE",
"409 0 LINE",
"579 0 LINE",
"600 156 LINE",
"743 156 LINE",
"743 299 LINE",
"620 299 LINE",
"630 374 LINE",
"769 374 LINE",
"769 517 LINE",
"650 517 LINE",
"671 670 LINE",
"501 670 LINE",
"480 517 LINE",
"404 517 LINE",
"425 670 LINE",
"255 670 LINE",
"234 517 LINE",
"91 517 LINE",
"91 374 LINE",
"214 374 LINE",
"203 299 LINE",
"65 299 LINE",
"65 156 LINE",
"184 156 LINE",
"162 0 LINE"
);
},
{
closed = 1;
nodes = (
"384 374 LINE",
"460 374 LINE",
"450 299 LINE",
"373 299 LINE"
);
}
);
width = 834;
},
{
layerId = "20086791-C5B6-4597-997A-CAD8F8E58507";
paths = (
{
closed = 1;
nodes = (
"297 0 LINE",
"323 186 LINE",
"418 186 LINE",
"392 0 LINE",
"502 0 LINE",
"528 186 LINE",
"681 186 LINE",
"681 290 LINE",
"542 290 LINE",
"555 383 LINE",
"708 383 LINE",
"708 487 LINE",
"570 487 LINE",
"595 670 LINE",
"485 670 LINE",
"460 487 LINE",
"365 487 LINE",
"390 670 LINE",
"280 670 LINE",
"255 487 LINE",
"102 487 LINE",
"102 383 LINE",
"240 383 LINE",
"227 290 LINE",
"75 290 LINE",
"75 186 LINE",
"213 186 LINE",
"187 0 LINE"
);
},
{
closed = 1;
nodes = (
"350 383 LINE",
"445 383 LINE",
"432 290 LINE",
"337 290 LINE"
);
}
);
width = 783;
}
);
leftKerningGroup = numbersign.01;
leftMetricsKey = n;
rightKerningGroup = numbersign.01;
rightMetricsKey = d;
},
{
glyphname = parenleft;
lastChange = "2019-04-12 13:01:23 +0000";
layers = (
{
layerId = "16E083CF-37A0-4840-9CF0-495EAF69E79B";
paths = (
{
closed = 1;
nodes = (
"345 -170 LINE",
"345 -62 LINE",
"299 -62 LINE",
"217 23 LINE",
"217 586 LINE",
"299 670 LINE",
"345 670 LINE",
"345 778 LINE",
"220 778 LINE",
"65 617 LINE",
"65 -9 LINE",
"220 -170 LINE"
);
}
);
width = 375;
},
{
background = {
paths = (
{
closed = 1;
nodes = (
"316 -170 LINE",
"316 -80 LINE",
"275 -80 LINE",
"185 13 LINE",
"185 577 LINE",
"275 670 LINE",
"316 670 LINE",
"316 760 LINE",
"222 760 LINE",
"75 607 LINE",
"75 -17 LINE",
"222 -170 LINE"
);
}
);
};
layerId = "20086791-C5B6-4597-997A-CAD8F8E58507";
paths = (
{
closed = 1;
nodes = (
"316 -170 LINE",
"316 -80 LINE",
"275 -80.25 LINE",
"184.875 10 LINE",
"184.75 580 LINE",
"275 670.125 LINE",
"316 670 LINE",
"316 760 LINE",
"226 760 LINE",
"75 609 LINE",
"75 -19 LINE",
"226 -170 LINE"
);
}
);
width = 356;
}
);
leftKerningGroup = parenleft;
leftMetricsKey = n;
rightKerningGroup = parenleft;
unicode = 0028;
},
{
glyphname = braceleft;
lastChange = "2019-04-12 13:01:23 +0000";
layers = (
{
layerId = "16E083CF-37A0-4840-9CF0-495EAF69E79B";
paths = (
{
closed = 1;
nodes = (
"416 -170 LINE",
"416 -62 LINE",
"317 -62 LINE",
"297 -41 LINE",
"297 244 LINE",
"237 304 LINE",
"297 364 LINE",
"297 649 LINE",
"317 670 LINE",
"416 670 LINE",
"416 778 LINE",
"238 778 LINE",
"144 677 LINE",
"144 378 LINE",
"122 356 LINE",
"65 356 LINE",
"65 252 LINE",
"122 252 LINE",
"144 230 LINE",
"144 -69 LINE",
"238 -170 LINE"
);
}
);
width = 446;
},
{
background = {
paths = (
{
closed = 1;
nodes = (
"405 -170 LINE",
"405 -80 LINE",
"295 -80 LINE",
"264 -47 LINE",
"264 243 LINE",
"212 295 LINE",
"264 347 LINE",
"264 637 LINE",
"295 670 LINE",
"405 670 LINE",
"405 760 LINE",
"240 760 LINE",
"154 667 LINE",
"154 374 LINE",
"120 340 LINE",
"75 340 LINE",
"75 250 LINE",
"120 250 LINE",
"154 216 LINE",
"154 -77 LINE",
"240 -170 LINE"
);
}
);
};
layerId = "20086791-C5B6-4597-997A-CAD8F8E58507";
paths = (
{
closed = 1;
nodes = (
"405 -170 LINE",
"405 -80 LINE",
"294 -80.25 LINE",
"263.875 -50 LINE",
"264 243 LINE",
"212 295 LINE",
"264 347 LINE",
"263.75 640 LINE",
"294 670.125 LINE",
"405 670 LINE",
"405 760 LINE",
"245 760 LINE",
"154 669 LINE",
"154 374 LINE",
"120 340 LINE",
"75 340 LINE",
"75 250 LINE",
"120 250 LINE",
"154 216 LINE",
"154 -79 LINE",
"245 -170 LINE"
);
}
);
width = 435;
}
);
leftKerningGroup = braceleft;
leftMetricsKey = n;
rightKerningGroup = braceleft;
unicode = 007B;
},
{
glyphname = bracketleft;
lastChange = "2019-04-12 13:01:23 +0000";
layers = (
{
layerId = "16E083CF-37A0-4840-9CF0-495EAF69E79B";
paths = (
{
closed = 1;
nodes = (
"330 -170 LINE",
"330 -62 LINE",
"217 -62 LINE",
"217 670 LINE",
"330 670 LINE",
"330 778 LINE",
"65 778 LINE",
"65 -170 LINE"
);
}
);
width = 360;
},
{
layerId = "20086791-C5B6-4597-997A-CAD8F8E58507";
paths = (
{
closed = 1;
nodes = (
"316 -170 LINE",
"316 -80 LINE",
"185 -80 LINE",
"185 670 LINE",
"316 670 LINE",
"316 760 LINE",
"75 760 LINE",
"75 -170 LINE"
);
}
);
width = 356;
}
);
leftKerningGroup = bracketleft;
leftMetricsKey = n;
rightKerningGroup = bracketleft;
unicode = 005B;
},
{
glyphname = hyphen;
lastChange = "2019-04-12 13:01:23 +0000";
layers = (
{
layerId = "16E083CF-37A0-4840-9CF0-495EAF69E79B";
paths = (
{
closed = 1;
nodes = (
"355 193 LINE",
"355 314 LINE",
"55 314 LINE",
"55 193 LINE"
);
}
);
width = 410;
},
{
layerId = "20086791-C5B6-4597-997A-CAD8F8E58507";
paths = (
{
closed = 1;
nodes = (
"370 219 LINE",
"370 309 LINE",
"70 309 LINE",
"70 219 LINE"
);
}
);
width = 440;
}
);
leftKerningGroup = hyphen;
rightKerningGroup = hyphen;
unicode = 002D;
},
{
glyphname = endash;
lastChange = "2019-04-12 13:01:23 +0000";
layers = (
{
layerId = "16E083CF-37A0-4840-9CF0-495EAF69E79B";
paths = (
{
closed = 1;
nodes = (
"568 184 LINE",
"568 304 LINE",
"55 304 LINE",
"55 184 LINE"
);
}
);
width = 623;
},
{
layerId = "20086791-C5B6-4597-997A-CAD8F8E58507";
paths = (
{
closed = 1;
nodes = (
"536 199 LINE",
"536 289 LINE",
"70 289 LINE",
"70 199 LINE"
);
}
);
width = 606;
}
);
leftKerningGroup = hyphen;
leftMetricsKey = hyphen;
rightKerningGroup = hyphen;
rightMetricsKey = hyphen;
unicode = 2013;
},
{
glyphname = emdash;
lastChange = "2019-04-12 13:01:23 +0000";
layers = (
{
layerId = "16E083CF-37A0-4840-9CF0-495EAF69E79B";
paths = (
{
closed = 1;
nodes = (
"797 184 LINE",
"797 304 LINE",
"55 304 LINE",
"55 184 LINE"
);
}
);
width = 862;
},
{
layerId = "20086791-C5B6-4597-997A-CAD8F8E58507";
paths = (
{
closed = 1;
nodes = (
"742 199 LINE",
"742 289 LINE",
"70 289 LINE",
"70 199 LINE"
);
}
);
width = 817;
}
);
leftKerningGroup = hyphen;
leftMetricsKey = hyphen;
rightKerningGroup = hyphen;
rightMetricsKey = d;
unicode = 2014;
},
{
glyphname = underscore;
lastChange = "2019-04-12 13:01:23 +0000";
layers = (
{
layerId = "16E083CF-37A0-4840-9CF0-495EAF69E79B";
paths = (
{
closed = 1;
nodes = (
"547 -170 LINE",
"547 -50 LINE",
"15 -50 LINE",
"15 -170 LINE"
);
}
);
width = 562;
},
{
layerId = "20086791-C5B6-4597-997A-CAD8F8E58507";
paths = (
{
closed = 1;
nodes = (
"510 -155 LINE",
"510 -65 LINE",
"20 -65 LINE",
"20 -155 LINE"
);
}
);
width = 530;
}
);
leftKerningGroup = underscore;
rightKerningGroup = underscore;
unicode = 005F;
},
{
glyphname = quoteright;
lastChange = "2019-04-12 13:01:23 +0000";
layers = (
{
layerId = "16E083CF-37A0-4840-9CF0-495EAF69E79B";
paths = (
{
closed = 1;
nodes = (
"153 427 LINE",
"251 670 LINE",
"87 670 LINE",
"50 427 LINE"
);
}
);
width = 301;
},
{
layerId = "20086791-C5B6-4597-997A-CAD8F8E58507";
paths = (
{
closed = 1;
nodes = (
"128 456 LINE",
"204 670 LINE",
"90 670 LINE",
"60 456 LINE"
);
}
);
width = 264;
}
);
leftKerningGroup = quotedblleft;
rightKerningGroup = quotedblleft;
unicode = 2019;
},
{
glyphname = guilsinglleft;
lastChange = "2019-04-12 13:01:23 +0000";
layers = (
{
layerId = "16E083CF-37A0-4840-9CF0-495EAF69E79B";
paths = (
{
closed = 1;
nodes = (
"383 0 LINE",
"207 238 LINE",
"207 238 LINE",
"383 475 LINE",
"201 475 LINE",
"25 238 LINE",
"25 238 LINE",
"201 0 LINE"
);
}
);
width = 408;
},
{
layerId = "20086791-C5B6-4597-997A-CAD8F8E58507";
paths = (
{
closed = 1;
nodes = (
"345 0 LINE",
"169 238 LINE",
"169 238 LINE",
"345 475 LINE",
"216 475 LINE",
"40 238 LINE",
"40 238 LINE",
"216 0 LINE"
);
}
);
width = 385;
}
);
leftKerningGroup = guillemotleft;
rightKerningGroup = guillemotleft;
unicode = 2039;
},
{
glyphname = quotesingle;
lastChange = "2019-04-12 13:01:23 +0000";
layers = (
{
layerId = "16E083CF-37A0-4840-9CF0-495EAF69E79B";
paths = (
{
closed = 1;
nodes = (
"170 427 LINE",
"200 670 LINE",
"50 670 LINE",
"81 427 LINE"
);
}
);
width = 250;
},
{
layerId = "20086791-C5B6-4597-997A-CAD8F8E58507";
paths = (
{
closed = 1;
nodes = (
"144 456 LINE",
"165 670 LINE",
"60 670 LINE",
"81 456 LINE"
);
}
);
width = 225;
}
);
leftKerningGroup = quotesingle;
rightKerningGroup = quotesingle;
unicode = 0027;
},
{
glyphname = "leftanglebracket-math";
lastChange = "2019-04-12 13:01:23 +0000";
layers = (
{
layerId = "16E083CF-37A0-4840-9CF0-495EAF69E79B";
paths = (
{
closed = 1;
nodes = (
"427 -170 LINE",
"250 315 LINE",
"427 799 LINE",
"242 799 LINE",
"65 315 LINE",
"242 -170 LINE"
);
}
);
width = 457;
},
{
layerId = "20086791-C5B6-4597-997A-CAD8F8E58507";
paths = (
{
closed = 1;
nodes = (
"380 -170 LINE",
"204 295.5 LINE",
"380 760 LINE",
"251 760 LINE",
"75 295.5 LINE",
"251 -170 LINE"
);
}
);
width = 410;
}
);
leftMetricsKey = braceleft;
rightMetricsKey = braceleft;
unicode = 27E8;
},
{
glyphname = .notdef;
lastChange = "2019-04-12 13:01:23 +0000";
layers = (
{
layerId = "16E083CF-37A0-4840-9CF0-495EAF69E79B";
paths = (
{
closed = 1;
nodes = (
"174 26 LINE",
"174 69 LINE",
"214 110 LINE",
"452 110 LINE",
"492 70 LINE",
"492 26 LINE",
"600 26 LINE",
"600 120 LINE",
"506 209 LINE",
"160 209 LINE",
"65 120 LINE",
"65 26 LINE"
);
},
{
closed = 1;
nodes = (
"281 314 LINE",
"281 475 LINE",
"169 475 LINE",
"169 314 LINE"
);
},
{
closed = 1;
nodes = (
"496 314 LINE",
"496 475 LINE",
"384 475 LINE",
"384 314 LINE"
);
}
);
width = 665;
},
{
layerId = "20086791-C5B6-4597-997A-CAD8F8E58507";
paths = (
{
closed = 1;
nodes = (
"175 57 LINE",
"175 98 LINE",
"215 140 LINE",
"436 140 LINE",
"475 99 LINE",
"475 57 LINE",
"575 57 LINE",
"575 134 LINE",
"484 225 LINE",
"166 225 LINE",
"75 134 LINE",
"75 57 LINE"
);
},
{
closed = 1;
nodes = (
"267 319 LINE",
"267 475 LINE",
"177 475 LINE",
"177 319 LINE"
);
},
{
closed = 1;
nodes = (
"472 319 LINE",
"472 475 LINE",
"382 475 LINE",
"382 319 LINE"
);
}
);
width = 650;
}
);
leftKerningGroup = .notdef;
leftMetricsKey = n;
rightKerningGroup = .notdef;
rightMetricsKey = d;
},
{
glyphname = cedi;
lastChange = "2019-04-12 13:01:23 +0000";
layers = (
{
components = (
{
name = C;
}
);
layerId = "16E083CF-37A0-4840-9CF0-495EAF69E79B";
paths = (
{
closed = 1;
nodes = (
"410 -100 LINE",
"410 51 LINE",
"244 51 LINE",
"244 -100 LINE"
);
},
{
closed = 1;
nodes = (
"410 604 LINE",
"410 770 LINE",
"244 770 LINE",
"244 604 LINE"
);
}
);
width = 643;
},
{
anchors = (
{
name = botton;
position = "{322, 0}";
},
{
name = top;
position = "{328, 670}";
}
);
hints = (
{
origin = "{0, 10}";
type = Corner;
name = _corner.dia_esq;
options = 1;
},
{
origin = "{0, 11}";
type = Corner;
name = _corner.dia_dir;
options = 1;
},
{
origin = "{0, 5}";
type = Corner;
name = _corner.int_ESQ;
options = 1;
},
{
origin = "{0, 4}";
type = Corner;
name = _corner.int_DIR;
options = 1;
}
);
layerId = "20086791-C5B6-4597-997A-CAD8F8E58507";
paths = (
{
closed = 1;
nodes = (
"495 0 LINE",
"587 92 LINE",
"515 165 LINE",
"449 100 LINE",
"184 100 LINE",
"184 570 LINE",
"441 570 LINE",
"507 505 LINE",
"579 578 LINE",
"487 670 LINE",
"70 670 LINE",
"70 0 LINE"
);
},
{
closed = 1;
nodes = (
"384 -100 LINE",
"384 770 LINE",
"274 770 LINE",
"274 -100 LINE"
);
}
);
width = 617;
},
{
associatedMasterId = "20086791-C5B6-4597-997A-CAD8F8E58507";
components = (
{
name = C;
}
);
layerId = "E0352113-AA25-4BD7-9EEF-F938AF549B3F";
name = "Regular[130]";
paths = (
{
closed = 1;
nodes = (
"384 -100 LINE",
"384 72 LINE",
"274 72 LINE",
"274 -100 LINE"
);
},
{
closed = 1;
nodes = (
"384 606 LINE",
"384 770 LINE",
"274 770 LINE",
"274 606 LINE"
);
}
);
width = 617;
}
);
leftMetricsKey = C;
rightMetricsKey = C;
unicode = 20B5;
},
{
glyphname = cent;
lastChange = "2019-04-12 13:01:23 +0000";
layers = (
{
components = (
{
name = c;
transform = "{1, 0, 0, 1, 0, 99}";
}
);
layerId = "16E083CF-37A0-4840-9CF0-495EAF69E79B";
paths = (
{
closed = 1;
nodes = (
"367 528 LINE",
"367 670 LINE",
"217 670 LINE",
"217 528 LINE"
);
},
{
closed = 1;
nodes = (
"367 0 LINE",
"367 139 LINE",
"217 139 LINE",
"217 0 LINE"
);
}
);
width = 563;
},
{
components = (
{
name = c;
transform = "{1, 0, 0, 1, 0, 100}";
}
);
layerId = "20086791-C5B6-4597-997A-CAD8F8E58507";
paths = (
{
closed = 1;
nodes = (
"320 528 LINE",
"320 670 LINE",
"230 670 LINE",
"230 528 LINE"
);
},
{
closed = 1;
nodes = (
"320 0 LINE",
"320 138 LINE",
"230 138 LINE",
"230 0 LINE"
);
}
);
width = 529;
}
);
leftMetricsKey = c;
rightMetricsKey = c;
unicode = 00A2;
},
{
glyphname = colonsign;
lastChange = "2019-04-12 13:01:23 +0000";
layers = (
{
components = (
{
name = C;
}
);
layerId = "16E083CF-37A0-4840-9CF0-495EAF69E79B";
paths = (
{
closed = 1;
nodes = (
"280 -99 LINE",
"290 66 LINE",
"175 66 LINE",
"165 -99 LINE"
);
},
{
closed = 1;
nodes = (
"427 -99 LINE",
"437 66 LINE",
"322 66 LINE",
"312 -99 LINE"
);
},
{
closed = 1;
nodes = (
"323 586 LINE",
"335 770 LINE",
"220 770 LINE",
"208 586 LINE"
);
},
{
closed = 1;
nodes = (
"470 586 LINE",
"482 770 LINE",
"367 770 LINE",
"355 586 LINE"
);
}
);
width = 643;
},
{
anchors = (
{
name = botton;
position = "{322, 0}";
},
{
name = top;
position = "{328, 670}";
}
);
background = {
paths = (
{
closed = 1;
nodes = (
"233.875 -100 LINE",
"382.5 770 LINE",
"362.5 770 LINE",
"213.875 -100 LINE"
);
}
);
};
components = (
{
name = C;
}
);
layerId = "20086791-C5B6-4597-997A-CAD8F8E58507";
paths = (
{
closed = 1;
nodes = (
"280.875 -100 LINE",
"329.5 770 LINE",
"259.5 770 LINE",
"210.875 -100 LINE"
);
},
{
closed = 1;
nodes = (
"402.875 -100 LINE",
"451.5 770 LINE",
"381.5 770 LINE",
"332.875 -100 LINE"
);
}
);
width = 617;
},
{
associatedMasterId = "20086791-C5B6-4597-997A-CAD8F8E58507";
background = {
paths = (
{
closed = 1;
nodes = (
"233.875 -100 LINE",
"382.5 770 LINE",
"362.5 770 LINE",
"213.875 -100 LINE"
);
}
);
};
components = (
{
name = C;
}
);
layerId = "2822836D-2FCF-47A0-A8E1-835D319C6BAA";
name = "Regular[130]";
paths = (
{
closed = 1;
nodes = (
"280.875 -100 LINE",
"291 72 LINE",
"221 72 LINE",
"210.875 -100 LINE"
);
},
{
closed = 1;
nodes = (
"402.875 -100 LINE",
"413 72 LINE",
"343 72 LINE",
"332.875 -100 LINE"
);
},
{
closed = 1;
nodes = (
"320 606 LINE",
"329.5 770 LINE",
"259.5 770 LINE",
"250 606 LINE"
);
},
{
closed = 1;
nodes = (
"442 606 LINE",
"451.5 770 LINE",
"381.5 770 LINE",
"372 606 LINE"
);
}
);
width = 617;
}
);
leftMetricsKey = C;
rightMetricsKey = C;
unicode = 20A1;
},
{
glyphname = currency;
lastChange = "2019-04-12 13:01:23 +0000";
layers = (
{
layerId = "16E083CF-37A0-4840-9CF0-495EAF69E79B";
paths = (
{
closed = 1;
nodes = (
"406 106 LINE",
"515 217 LINE",
"515 332 LINE",
"406 443 LINE",
"211 443 LINE",
"102 332 LINE",
"102 217 LINE",
"211 106 LINE"
);
},
{
closed = 1;
nodes = (
"254 186 LINE",
"181 259 LINE",
"70 149 LINE",
"143 76 LINE"
);
},
{
closed = 1;
nodes = (
"254 363 LINE",
"143 473 LINE",
"70 400 LINE",
"181 290 LINE"
);
},
{
closed = 1;
nodes = (
"257 237 LINE",
"257 311 LINE",
"285 346 LINE",
"332 346 LINE",
"360 311 LINE",
"360 237 LINE",
"332 202 LINE",
"285 202 LINE"
);
},
{
closed = 1;
nodes = (
"547 149 LINE",
"436 259 LINE",
"363 186 LINE",
"474 76 LINE"
);
},
{
closed = 1;
nodes = (
"547 400 LINE",
"474 473 LINE",
"363 363 LINE",
"436 290 LINE"
);
}
);
width = 617;
},
{
background = {
paths = (
{
closed = 1;
nodes = (
"352 112 LINE",
"453 215 LINE",
"453 334 LINE",
"352 437 LINE",
"198 437 LINE",
"97 334 LINE",
"97 215 LINE",
"198 112 LINE"
);
},
{
closed = 1;
nodes = (
"248 194 LINE",
"177 265 LINE",
"60 148 LINE",
"131 77 LINE"
);
},
{
closed = 1;
nodes = (
"248 355 LINE",
"131 472 LINE",
"60 401 LINE",
"177 284 LINE"
);
},
{
closed = 1;
nodes = (
"207 245 LINE",
"207 304 LINE",
"250 347 LINE",
"300 347 LINE",
"343 304 LINE",
"343 245 LINE",
"300 202 LINE",
"250 202 LINE"
);
},
{
closed = 1;
nodes = (
"490 148 LINE",
"373 265 LINE",
"302 194 LINE",
"419 77 LINE"
);
},
{
closed = 1;
nodes = (
"490 401 LINE",
"419 472 LINE",
"302 355 LINE",
"373 284 LINE"
);
}
);
};
layerId = "20086791-C5B6-4597-997A-CAD8F8E58507";
paths = (
{
closed = 1;
nodes = (
"352 112 LINE",
"453 213 LINE",
"453 336 LINE",
"352 437 LINE",
"198 437 LINE",
"97 336 LINE",
"97 213 LINE",
"198 112 LINE"
);
},
{
closed = 1;
nodes = (
"248 194 LINE",
"177 265 LINE",
"60 148 LINE",
"131 77 LINE"
);
},
{
closed = 1;
nodes = (
"248 355 LINE",
"131 472 LINE",
"60 401 LINE",
"177 284 LINE"
);
},
{
closed = 1;
nodes = (
"207 242 LINE",
"207 307 LINE",
"247 347 LINE",
"303 347 LINE",
"343 307 LINE",
"343 242 LINE",
"303 202 LINE",
"247 202 LINE"
);
},
{
closed = 1;
nodes = (
"490 148 LINE",
"373 265 LINE",
"302 194 LINE",
"419 77 LINE"
);
},
{
closed = 1;
nodes = (
"490 401 LINE",
"419 472 LINE",
"302 355 LINE",
"373 284 LINE"
);
}
);
width = 550;
}
);
unicode = 00A4;
},
{
glyphname = dollar;
lastChange = "2019-04-12 13:01:23 +0000";
layers = (
{
components = (
{
name = S;
}
);
guideLines = (
{
position = "{422, -100}";
}
);
layerId = "16E083CF-37A0-4840-9CF0-495EAF69E79B";
paths = (
{
closed = 1;
nodes = (
"422 -100 LINE",
"422 51 LINE",
"256 51 LINE",
"256 -100 LINE"
);
},
{
closed = 1;
nodes = (
"422 604 LINE",
"422 770 LINE",
"256 770 LINE",
"256 604 LINE"
);
}
);
width = 664;
},
{
background = {
paths = (
{
closed = 1;
nodes = (
"380 -100 LINE",
"380 48 LINE",
"270 48 LINE",
"270 -100 LINE"
);
},
{
closed = 1;
nodes = (
"380 623 LINE",
"380 770 LINE",
"270 770 LINE",
"270 623 LINE"
);
},
{
closed = 1;
nodes = (
"574 0 LINE",
"574 397 LINE",
"229 397 LINE",
"179 447 LINE",
"179 520 LINE",
"225 566 LINE",
"537 566 LINE",
"537 670 LINE",
"65 670 LINE",
"65 297 LINE",
"410 297 LINE",
"460 247 LINE",
"460 150 LINE",
"414 104 LINE",
"88 104 LINE",
"88 0 LINE"
);
}
);
};
components = (
{
name = S;
}
);
layerId = "20086791-C5B6-4597-997A-CAD8F8E58507";
paths = (
{
closed = 1;
nodes = (
"380 -100 LINE",
"380 57.25 LINE",
"270 57.25 LINE",
"270 -100 LINE"
);
},
{
closed = 1;
nodes = (
"380 623 LINE",
"380 770 LINE",
"270 770 LINE",
"270 623 LINE"
);
}
);
width = 639;
}
);
leftMetricsKey = S;
rightMetricsKey = S;
unicode = 0024;
},
{
glyphname = dong;
lastChange = "2019-04-12 13:01:23 +0000";
layers = (
{
components = (
{
name = d;
},
{
name = endash;
transform = "{1, 0, 0, 1, 0, -364}";
}
);
layerId = "16E083CF-37A0-4840-9CF0-495EAF69E79B";
paths = (
{
closed = 1;
nodes = (
"610 510 LINE",
"610 617 LINE",
"280 617 LINE",
"280 510 LINE"
);
}
);
width = 625;
},
{
components = (
{
name = d;
},
{
name = endash;
transform = "{1, 0, 0, 1, -5, -365.125}";
}
);
layerId = "20086791-C5B6-4597-997A-CAD8F8E58507";
paths = (
{
closed = 1;
nodes = (
"566.467 510 LINE",
"566.467 600 LINE",
"281.467 600 LINE",
"281.467 510 LINE"
);
}
);
width = 606;
}
);
unicode = 20AB;
},
{
glyphname = euro;
lastChange = "2019-04-12 13:01:23 +0000";
layers = (
{
associatedMasterId = "16E083CF-37A0-4840-9CF0-495EAF69E79B";
components = (
{
name = C;
transform = "{1, 0, 0, 1, 70, 1}";
}
);
layerId = "21BEC264-FC98-429B-BF59-F8387711DDBC";
name = "Bold[150]";
paths = (
{
closed = 1;
nodes = (
"419 215 LINE",
"419 325 LINE",
"50 325 LINE",
"50 215 LINE"
);
},
{
closed = 1;
nodes = (
"464 365 LINE",
"464 475 LINE",
"50 475 LINE",
"50 365 LINE"
);
}
);
width = 713;
},
{
hints = (
{
origin = "{0, 12}";
type = Corner;
name = _corner.dia_esq;
options = 1;
},
{
origin = "{0, 13}";
type = Corner;
name = _corner.dia_dir;
options = 1;
}
);
layerId = "16E083CF-37A0-4840-9CF0-495EAF69E79B";
paths = (
{
closed = 1;
nodes = (
"572 0 LINE",
"673 101 LINE",
"565 200 LINE",
"492 129 LINE",
"322 129 LINE",
"290 161 LINE",
"290 509 LINE",
"322 541 LINE",
"486 541 LINE",
"559 470 LINE",
"667 569 LINE",
"566 670 LINE",
"120 670 LINE",
"120 0 LINE"
);
},
{
closed = 1;
nodes = (
"474 365 LINE",
"474 475 LINE",
"50 475 LINE",
"50 365 LINE"
);
},
{
closed = 1;
nodes = (
"429 215 LINE",
"429 325 LINE",
"50 325 LINE",
"50 215 LINE"
);
}
);
width = 713;
},
{
background = {
paths = (
{
closed = 1;
nodes = (
"551 0 LINE",
"642 91 LINE",
"567 167 LINE",
"499 100 LINE",
"300 100 LINE",
"250 150 LINE",
"250 520 LINE",
"300 570 LINE",
"491 570 LINE",
"559 503 LINE",
"634 579 LINE",
"543 670 LINE",
"136 670 LINE",
"136 0 LINE"
);
}
);
};
hints = (
{
origin = "{0, 12}";
type = Corner;
name = _corner.dia_esq;
options = 1;
},
{
origin = "{0, 13}";
type = Corner;
name = _corner.dia_dir;
options = 1;
}
);
layerId = "20086791-C5B6-4597-997A-CAD8F8E58507";
paths = (
{
closed = 1;
nodes = (
"561 0 LINE",
"653 92 LINE",
"581 165 LINE",
"515 100 LINE",
"290 100 LINE",
"250 140 LINE",
"250 532 LINE",
"292 570 LINE",
"507 570 LINE",
"573 505 LINE",
"645 578 LINE",
"553 670 LINE",
"136 670 LINE",
"136 0 LINE"
);
},
{
closed = 1;
nodes = (
"484 375 LINE",
"484 465 LINE",
"70 465 LINE",
"70 375 LINE"
);
},
{
closed = 1;
nodes = (
"439 235 LINE",
"439 325 LINE",
"70 325 LINE",
"70 235 LINE"
);
}
);
width = 683;
}
);
leftMetricsKey = C;
rightMetricsKey = C;
unicode = 20AC;
},
{
glyphname = florin;
lastChange = "2019-04-12 13:01:23 +0000";
layers = (
{
layerId = "16E083CF-37A0-4840-9CF0-495EAF69E79B";
paths = (
{
closed = 1;
nodes = (
"134 -103 LINE",
"230 -14 LINE",
"230 546 LINE",
"255 571 LINE",
"335 571 LINE",
"335 670 LINE",
"156 670 LINE",
"60 581 LINE",
"60 21 LINE",
"35 -4 LINE",
"-45 -4 LINE",
"-45 -103 LINE"
);
},
{
closed = 1;
nodes = (
"313 379 LINE",
"313 475 LINE",
"22 475 LINE",
"22 379 LINE"
);
}
);
width = 335;
},
{
background = {
paths = (
{
closed = 1;
nodes = (
"93 -103 LINE",
"184 -12 LINE",
"184 541 LINE",
"221 580 LINE",
"289 580 LINE",
"289 670 LINE",
"165 670 LINE",
"74 579 LINE",
"74 26 LINE",
"37 -13 LINE",
"-31 -13 LINE",
"-31 -103 LINE"
);
}
);
};
layerId = "20086791-C5B6-4597-997A-CAD8F8E58507";
paths = (
{
closed = 1;
nodes = (
"83 -103 LINE",
"184 -2 LINE",
"183.75 540 LINE",
"224 580.125 LINE",
"289 580 LINE",
"289 670 LINE",
"175 670 LINE",
"74 569 LINE",
"74.25 27 LINE",
"34 -13.125 LINE",
"-31 -13 LINE",
"-31 -103 LINE"
);
},
{
closed = 1;
nodes = (
"268 390 LINE",
"268 475 LINE",
"37 475 LINE",
"37 390 LINE"
);
}
);
width = 289;
}
);
rightMetricsKey = f;
unicode = 0192;
},
{
glyphname = franc;
lastChange = "2019-04-12 13:01:23 +0000";
layers = (
{
components = (
{
name = F;
}
);
layerId = "16E083CF-37A0-4840-9CF0-495EAF69E79B";
paths = (
{
closed = 1;
nodes = (
"350 95 LINE",
"350 202 LINE",
"20 202 LINE",
"20 95 LINE"
);
}
);
width = 589;
},
{
components = (
{
name = F;
transform = "{1, 0, 0, 1, 51, 0}";
}
);
layerId = "20086791-C5B6-4597-997A-CAD8F8E58507";
paths = (
{
closed = 1;
nodes = (
"370 109 LINE",
"370 199 LINE",
"70 199 LINE",
"70 109 LINE"
);
}
);
width = 604;
}
);
unicode = 20A3;
},
{
glyphname = guarani;
lastChange = "2019-04-12 13:01:23 +0000";
layers = (
{
components = (
{
name = G;
}
);
layerId = "16E083CF-37A0-4840-9CF0-495EAF69E79B";
paths = (
{
closed = 1;
nodes = (
"426 604 LINE",
"426 770 LINE",
"260 770 LINE",
"260 604 LINE"
);
},
{
closed = 1;
nodes = (
"426 -100 LINE",
"426 51 LINE",
"260 51 LINE",
"260 -100 LINE"
);
}
);
width = 696;
},
{
components = (
{
name = G;
}
);
layerId = "20086791-C5B6-4597-997A-CAD8F8E58507";
paths = (
{
closed = 1;
nodes = (
"379 -100 LINE",
"379 770 LINE",
"289 770 LINE",
"289 -100 LINE"
);
}
);
width = 682;
},
{
associatedMasterId = "20086791-C5B6-4597-997A-CAD8F8E58507";
components = (
{
name = G;
}
);
layerId = "B5905CF6-BB5D-42FE-AD4E-1426BC2F50E9";
name = "Regular [30]";
paths = (
{
closed = 1;
nodes = (
"389 613 LINE",
"389 770 LINE",
"279 770 LINE",
"279 613 LINE"
);
},
{
closed = 1;
nodes = (
"389 -100 LINE",
"389 58 LINE",
"279 58 LINE",
"279 -100 LINE"
);
}
);
width = 682;
}
);
leftMetricsKey = G;
rightMetricsKey = G;
unicode = 20B2;
},
{
glyphname = kip;
lastChange = "2019-04-12 13:01:23 +0000";
layers = (
{
components = (
{
name = _part.H;
transform = "{1, 0, 0, 1, -38, 0}";
}
);
layerId = "16E083CF-37A0-4840-9CF0-495EAF69E79B";
paths = (
{
closed = 1;
nodes = (
"636 670 LINE",
"448 670 LINE",
"233 395 LINE",
"189 383 LINE",
"350 313 LINE"
);
},
{
closed = 1;
nodes = (
"636 0 LINE",
"354 450 LINE",
"258 338 LINE",
"455 0 LINE"
);
},
{
closed = 1;
nodes = (
"604 328 LINE",
"604 435 LINE",
"20 435 LINE",
"20 328 LINE"
);
}
);
width = 636;
},
{
components = (
{
name = _part.H;
transform = "{1, 0, 0, 1, 1, 0}";
}
);
layerId = "20086791-C5B6-4597-997A-CAD8F8E58507";
paths = (
{
closed = 1;
nodes = (
"676 670 LINE",
"542 670 LINE",
"286 377 LINE",
"272 362 LINE",
"374.5 320.375 LINE"
);
},
{
closed = 1;
nodes = (
"676 0 LINE",
"419 400 LINE",
"326 330 LINE",
"538 0 LINE"
);
},
{
closed = 1;
nodes = (
"645.375 326.5 LINE",
"645.375 416.5 LINE",
"70 416.5 LINE",
"70 326.5 LINE"
);
}
);
width = 691;
}
);
unicode = 20AD;
},
{
glyphname = lira;
lastChange = "2019-04-12 13:01:23 +0000";
layers = (
{
hints = (
{
origin = "{0, 7}";
type = Corner;
name = _corner.dia_esq;
options = 1;
}
);
layerId = "16E083CF-37A0-4840-9CF0-495EAF69E79B";
paths = (
{
closed = 1;
nodes = (
"290 0 LINE",
"290 509 LINE",
"322 541 LINE",
"446 541 LINE",
"519 470 LINE",
"627 569 LINE",
"526 670 LINE",
"120 670 LINE",
"120 0 LINE"
);
},
{
closed = 1;
nodes = (
"417 359 LINE",
"417 469 LINE",
"50 469 LINE",
"50 359 LINE"
);
},
{
closed = 1;
nodes = (
"627 0 LINE",
"627 138 LINE",
"50 138 LINE",
"50 0 LINE"
);
},
{
closed = 1;
nodes = (
"417 209 LINE",
"417 319 LINE",
"50 319 LINE",
"50 209 LINE"
);
}
);
width = 677;
},
{
hints = (
{
origin = "{0, 7}";
type = Corner;
name = _corner.dia_esq;
}
);
layerId = "20086791-C5B6-4597-997A-CAD8F8E58507";
paths = (
{
closed = 1;
nodes = (
"259 55 LINE",
"259 532 LINE",
"301 570 LINE",
"462 570 LINE",
"528 505 LINE",
"600 578 LINE",
"508 670 LINE",
"145 670 LINE",
"145 55 LINE"
);
},
{
closed = 1;
nodes = (
"470 352.875 LINE",
"470 442.875 LINE",
"79 442.875 LINE",
"79 352.875 LINE"
);
},
{
closed = 1;
nodes = (
"601 0 LINE",
"601 104 LINE",
"70 104 LINE",
"70 0 LINE"
);
},
{
closed = 1;
nodes = (
"470 212.125 LINE",
"470 302.125 LINE",
"79 302.125 LINE",
"79 212.125 LINE"
);
}
);
width = 661;
},
{
associatedMasterId = "16E083CF-37A0-4840-9CF0-495EAF69E79B";
hints = (
{
origin = "{0, 8}";
type = Corner;
name = _corner.dia_esq;
options = 1;
},
{
origin = "{0, 7}";
type = Corner;
name = _corner.dia_dir;
options = 1;
}
);
layerId = "10FFF365-5F44-4ED1-A32B-1F500EACA21A";
name = "Bold[150]";
paths = (
{
closed = 1;
nodes = (
"290 0 LINE",
"290 509 LINE",
"322 541 LINE",
"430 541 LINE",
"462 509 LINE",
"462 434 LINE",
"627 434 LINE",
"627 670 LINE",
"120 670 LINE",
"120 0 LINE"
);
},
{
closed = 1;
nodes = (
"417 209 LINE",
"417 319 LINE",
"50 319 LINE",
"50 209 LINE"
);
},
{
closed = 1;
nodes = (
"417 359 LINE",
"417 469 LINE",
"50 469 LINE",
"50 359 LINE"
);
},
{
closed = 1;
nodes = (
"627 0 LINE",
"627 138 LINE",
"50 138 LINE",
"50 0 LINE"
);
}
);
width = 677;
}
);
leftMetricsKey = euro;
rightMetricsKey = E;
unicode = 20A4;
},
{
glyphname = liraTurkish;
lastChange = "2019-04-12 13:01:23 +0000";
layers = (
{
components = (
{
name = _part.H;
transform = "{1, 0, 0, 1, 12, 0}";
}
);
layerId = "16E083CF-37A0-4840-9CF0-495EAF69E79B";
paths = (
{
closed = 1;
nodes = (
"495 0 LINE",
"596 101 LINE",
"596 336 LINE",
"426 336 LINE",
"426 171 LINE",
"394 139 LINE",
"284 139 LINE",
"284 0 LINE"
);
},
{
closed = 1;
nodes = (
"417 369 LINE",
"417 484 LINE",
"50 352 LINE",
"50 237 LINE"
);
},
{
closed = 1;
nodes = (
"417 524 LINE",
"417 639 LINE",
"50 507 LINE",
"50 392 LINE"
);
}
);
width = 646;
},
{
components = (
{
name = _part.H;
transform = "{1, 0, 0, 1, 1.5, 0}";
}
);
layerId = "20086791-C5B6-4597-997A-CAD8F8E58507";
paths = (
{
closed = 1;
nodes = (
"422.625 0 LINE",
"523.625 101 LINE",
"523.625 300.625 LINE",
"409.625 300.625 LINE",
"409.75 140.125 LINE",
"369.625 100.25 LINE",
"224.625 100.125 LINE",
"224.625 0 LINE"
);
},
{
closed = 1;
nodes = (
"415 382.375 LINE",
"415 478.125 LINE",
"70 358.875 LINE",
"70 263 LINE"
);
},
{
closed = 1;
nodes = (
"415 531.75 LINE",
"415 627.5 LINE",
"70 508.75 LINE",
"70 413 LINE"
);
}
);
width = 593.625;
}
);
leftMetricsKey = euro;
rightMetricsKey = O;
unicode = 20BA;
},
{
glyphname = manat;
lastChange = "2019-04-12 13:01:23 +0000";
layers = (
{
background = {
paths = (
{
closed = 1;
nodes = (
"543 0 LINE",
"644 101 LINE",
"644 569 LINE",
"543 670 LINE",
"151 670 LINE",
"50 569 LINE",
"50 101 LINE",
"151 0 LINE"
);
},
{
closed = 1;
nodes = (
"220 166 LINE",
"220 504 LINE",
"247 531 LINE",
"447 531 LINE",
"474 504 LINE",
"474 166 LINE",
"447 139 LINE",
"247 139 LINE"
);
}
);
};
layerId = "16E083CF-37A0-4840-9CF0-495EAF69E79B";
paths = (
{
closed = 1;
nodes = (
"220 0 LINE",
"220 399 LINE",
"252 431 LINE",
"442 431 LINE",
"474 399 LINE",
"474 0 LINE",
"644 0 LINE",
"644 469 LINE",
"543 570 LINE",
"151 570 LINE",
"50 469 LINE",
"50 0 LINE"
);
},
{
closed = 1;
nodes = (
"430 0 LINE",
"430 670 LINE",
"264 670 LINE",
"264 0 LINE"
);
}
);
width = 694;
},
{
background = {
paths = (
{
closed = 1;
nodes = (
"600 0 LINE",
"600 569 LINE",
"499 670 LINE",
"171 670 LINE",
"70 569 LINE",
"70 0 LINE"
);
},
{
closed = 1;
nodes = (
"183.75 530 LINE",
"224 569.75 LINE",
"445.875 570.125 LINE",
"485.75 530 LINE",
"486 100 LINE",
"184 100 LINE"
);
}
);
};
layerId = "20086791-C5B6-4597-997A-CAD8F8E58507";
paths = (
{
closed = 1;
nodes = (
"183.875 0 LINE",
"183.75 459.875 LINE",
"224 499.625 LINE",
"445.875 500 LINE",
"485.75 459.875 LINE",
"485.875 0 LINE",
"600 0 LINE",
"600 498.875 LINE",
"499 599.875 LINE",
"171 599.875 LINE",
"70 498.875 LINE",
"70 0 LINE"
);
},
{
closed = 1;
nodes = (
"390 0 LINE",
"390 670 LINE",
"280 670 LINE",
"280 0 LINE"
);
}
);
width = 670;
}
);
leftMetricsKey = O;
rightMetricsKey = O;
unicode = 20BC;
},
{
glyphname = naira;
lastChange = "2019-04-12 13:01:23 +0000";
layers = (
{
components = (
{
name = N;
transform = "{1, 0, 0, 1, 50, 0}";
}
);
layerId = "16E083CF-37A0-4840-9CF0-495EAF69E79B";
paths = (
{
closed = 1;
nodes = (
"198 359 LINE",
"198 469 LINE",
"50 469 LINE",
"50 359 LINE"
);
},
{
closed = 1;
nodes = (
"760 359 LINE",
"760 469 LINE",
"590 469 LINE",
"590 359 LINE"
);
},
{
closed = 1;
nodes = (
"198 209 LINE",
"198 319 LINE",
"50 319 LINE",
"50 209 LINE"
);
},
{
closed = 1;
nodes = (
"760 209 LINE",
"760 319 LINE",
"590 319 LINE",
"590 209 LINE"
);
}
);
width = 800;
},
{
components = (
{
name = N;
transform = "{1, 0, 0, 1, 51, 0}";
}
);
layerId = "20086791-C5B6-4597-997A-CAD8F8E58507";
paths = (
{
closed = 1;
nodes = (
"727.75 352.875 LINE",
"727.75 442.875 LINE",
"70 442.875 LINE",
"70 352.875 LINE"
);
},
{
closed = 1;
nodes = (
"727.75 212.125 LINE",
"727.75 302.125 LINE",
"70 302.125 LINE",
"70 212.125 LINE"
);
}
);
width = 757.75;
},
{
associatedMasterId = "20086791-C5B6-4597-997A-CAD8F8E58507";
components = (
{
name = N;
transform = "{1, 0, 0, 1, 51, 0}";
}
);
layerId = "2566A60B-FAEA-4507-981A-4958F1181AD2";
name = "Regular [80]";
paths = (
{
closed = 1;
nodes = (
"192.25 352.875 LINE",
"192.25 442.875 LINE",
"70 442.875 LINE",
"70 352.875 LINE"
);
},
{
closed = 1;
nodes = (
"727.75 352.875 LINE",
"727.75 442.875 LINE",
"610 442.875 LINE",
"610 352.875 LINE"
);
},
{
closed = 1;
nodes = (
"192.25 212.125 LINE",
"192.25 302.125 LINE",
"70 302.125 LINE",
"70 212.125 LINE"
);
},
{
closed = 1;
nodes = (
"727.75 212.125 LINE",
"727.75 302.125 LINE",
"610 302.125 LINE",
"610 212.125 LINE"
);
}
);
width = 757.75;
}
);
leftMetricsKey = euro;
rightMetricsKey = euro;
unicode = 20A6;
},
{
glyphname = peseta;
lastChange = "2019-04-12 13:01:23 +0000";
layers = (
{
components = (
{
name = P;
transform = "{1, 0, 0, 1, 50, 0}";
}
);
layerId = "16E083CF-37A0-4840-9CF0-495EAF69E79B";
paths = (
{
closed = 1;
nodes = (
"198 385 LINE",
"198 495 LINE",
"50 495 LINE",
"50 385 LINE"
);
},
{
closed = 1;
nodes = (
"740 385 LINE",
"740 495 LINE",
"570 495 LINE",
"570 385 LINE"
);
}
);
width = 755;
},
{
components = (
{
name = P;
transform = "{1, 0, 0, 1, 51, 0}";
}
);
layerId = "20086791-C5B6-4597-997A-CAD8F8E58507";
paths = (
{
closed = 1;
nodes = (
"679.875 400 LINE",
"679.875 490 LINE",
"70 490 LINE",
"70 400 LINE"
);
}
);
width = 709.875;
},
{
associatedMasterId = "20086791-C5B6-4597-997A-CAD8F8E58507";
components = (
{
name = P;
transform = "{1, 0, 0, 1, 51, 0}";
}
);
layerId = "E6584074-448C-4232-89BF-EA3A985F7E61";
name = "Regular[130]";
paths = (
{
closed = 1;
nodes = (
"202 400 LINE",
"202 490 LINE",
"70 490 LINE",
"70 400 LINE"
);
},
{
closed = 1;
nodes = (
"679.875 400 LINE",
"679.875 490 LINE",
"554 490 LINE",
"554 400 LINE"
);
}
);
width = 709.875;
}
);
leftMetricsKey = euro;
rightMetricsKey = P;
unicode = 20A7;
},
{
glyphname = peso;
lastChange = "2019-04-12 13:01:23 +0000";
layers = (
{
components = (
{
name = P;
transform = "{1, 0, 0, 1, 50, 0}";
}
);
layerId = "16E083CF-37A0-4840-9CF0-495EAF69E79B";
paths = (
{
closed = 1;
nodes = (
"740 460 LINE",
"740 570 LINE",
"570 570 LINE",
"570 460 LINE"
);
},
{
closed = 1;
nodes = (
"198 310 LINE",
"198 420 LINE",
"50 420 LINE",
"50 310 LINE"
);
},
{
closed = 1;
nodes = (
"740 310 LINE",
"740 420 LINE",
"570 420 LINE",
"570 310 LINE"
);
},
{
closed = 1;
nodes = (
"198 460 LINE",
"198 570 LINE",
"50 570 LINE",
"50 460 LINE"
);
}
);
width = 755;
},
{
components = (
{
name = P;
transform = "{1, 0, 0, 1, 51, 0}";
}
);
layerId = "20086791-C5B6-4597-997A-CAD8F8E58507";
paths = (
{
closed = 1;
nodes = (
"680 480 LINE",
"680 570 LINE",
"553 570 LINE",
"553 480 LINE"
);
},
{
closed = 1;
nodes = (
"185 331 LINE",
"185 421 LINE",
"70 421 LINE",
"70 331 LINE"
);
},
{
closed = 1;
nodes = (
"680 331 LINE",
"680 421 LINE",
"553 421 LINE",
"553 331 LINE"
);
},
{
closed = 1;
nodes = (
"185.25 480 LINE",
"185.25 570 LINE",
"70 570 LINE",
"70 480 LINE"
);
}
);
width = 709.875;
}
);
leftMetricsKey = euro;
rightMetricsKey = P;
unicode = 20B1;
},
{
glyphname = ruble;
lastChange = "2019-04-12 13:01:23 +0000";
layers = (
{
components = (
{
name = _part.H;
transform = "{1, 0, 0, 1, 12, 0}";
}
);
guideLines = (
{
position = "{472, 339}";
}
);
hints = (
{
origin = "{1, 0}";
type = Corner;
name = _corner.dia_esq;
options = 1;
},
{
origin = "{1, 1}";
type = Corner;
name = _corner.dia_dir;
options = 1;
}
);
layerId = "16E083CF-37A0-4840-9CF0-495EAF69E79B";
paths = (
{
closed = 1;
nodes = (
"198 210 LINE",
"198 339 LINE",
"50 339 LINE",
"50 210 LINE"
);
},
{
closed = 1;
nodes = (
"670 210 LINE",
"670 670 LINE",
"258 670 LINE",
"258 541 LINE",
"473 541 LINE",
"505 509 LINE",
"505 371 LINE",
"473 339 LINE",
"258 339 LINE",
"258 210 LINE"
);
},
{
closed = 1;
nodes = (
"547 60 LINE",
"547 170 LINE",
"50 170 LINE",
"50 60 LINE"
);
}
);
width = 685;
},
{
components = (
{
name = _part.H;
transform = "{1, 0, 0, 1, 1, 0}";
}
);
hints = (
{
origin = "{1, 0}";
type = Corner;
name = _corner.dia_esq;
options = 1;
},
{
origin = "{1, 1}";
type = Corner;
name = _corner.dia_dir;
options = 1;
}
);
layerId = "20086791-C5B6-4597-997A-CAD8F8E58507";
paths = (
{
closed = 1;
nodes = (
"493.375 241 LINE",
"493.375 331 LINE",
"70 331 LINE",
"70 241 LINE"
);
},
{
closed = 1;
nodes = (
"614 241 LINE",
"614 670 LINE",
"219 670 LINE",
"219 570 LINE",
"460 570 LINE",
"500 530 LINE",
"500 371 LINE",
"460 331 LINE",
"219 331 LINE",
"219 241 LINE"
);
},
{
closed = 1;
nodes = (
"512.75 92 LINE",
"512.75 182 LINE",
"70 182 LINE",
"70 92 LINE"
);
}
);
width = 644;
}
);
leftMetricsKey = euro;
rightMetricsKey = P;
unicode = 20BD;
},
{
glyphname = rupeeIndian;
lastChange = "2019-04-12 13:01:23 +0000";
layers = (
{
guideLines = (
{
position = "{400, 560}";
}
);
hints = (
{
origin = "{0, 0}";
type = Corner;
name = _corner.dia_esq;
options = 1;
},
{
origin = "{0, 1}";
type = Corner;
name = _corner.dia_dir;
options = 1;
}
);
layerId = "16E083CF-37A0-4840-9CF0-495EAF69E79B";
paths = (
{
closed = 1;
nodes = (
"500 228 LINE",
"500 670 LINE",
"70 670 LINE",
"70 560 LINE",
"303 560 LINE",
"335 528 LINE",
"335 389 LINE",
"303 357 LINE",
"70 357 LINE",
"70 228 LINE"
);
},
{
closed = 1;
nodes = (
"526 0 LINE",
"275 228 LINE",
"70 228 LINE",
"315 0 LINE"
);
},
{
closed = 1;
nodes = (
"570 404 LINE",
"570 514 LINE",
"70 514 LINE",
"70 404 LINE"
);
},
{
closed = 1;
nodes = (
"570 560 LINE",
"570 670 LINE",
"400 670 LINE",
"400 560 LINE"
);
}
);
width = 585;
},
{
hints = (
{
origin = "{0, 0}";
type = Corner;
name = _corner.dia_esq;
options = 1;
},
{
origin = "{0, 1}";
type = Corner;
name = _corner.dia_dir;
options = 1;
}
);
layerId = "20086791-C5B6-4597-997A-CAD8F8E58507";
paths = (
{
closed = 1;
nodes = (
"432 246 LINE",
"432 670 LINE",
"85 670 LINE",
"85 580 LINE",
"278 580 LINE",
"318 540 LINE",
"318 386 LINE",
"278 346 LINE",
"85 346 LINE",
"85 246 LINE"
);
},
{
closed = 1;
nodes = (
"471 0 LINE",
"202 290 LINE",
"85 246 LINE",
"307 0 LINE"
);
},
{
closed = 1;
nodes = (
"533 423 LINE",
"533 513 LINE",
"85 513 LINE",
"85 423 LINE"
);
},
{
closed = 1;
nodes = (
"533 580 LINE",
"533 670 LINE",
"85 670 LINE",
"85 580 LINE"
);
}
);
width = 563;
}
);
leftMetricsKey = H;
rightMetricsKey = P;
unicode = 20B9;
},
{
glyphname = sterling;
lastChange = "2019-04-12 13:01:23 +0000";
layers = (
{
layerId = "16E083CF-37A0-4840-9CF0-495EAF69E79B";
paths = (
{
closed = 1;
nodes = (
"290 0 LINE",
"290 509 LINE",
"322 541 LINE",
"446 541 LINE",
"519 470 LINE",
"627 569 LINE",
"526 670 LINE",
"221 670 LINE",
"120 569 LINE",
"120 0 LINE"
);
},
{
closed = 1;
nodes = (
"462 276 LINE",
"462 390 LINE",
"50 390 LINE",
"50 276 LINE"
);
},
{
closed = 1;
nodes = (
"627 0 LINE",
"627 138 LINE",
"50 138 LINE",
"50 0 LINE"
);
}
);
width = 677;
},
{
layerId = "20086791-C5B6-4597-997A-CAD8F8E58507";
paths = (
{
closed = 1;
nodes = (
"259 55 LINE",
"259 532 LINE",
"301 570 LINE",
"462 570 LINE",
"528 505 LINE",
"600 578 LINE",
"508 670 LINE",
"246 670 LINE",
"145 569 LINE",
"145 55 LINE"
);
},
{
closed = 1;
nodes = (
"470 280 LINE",
"470 384 LINE",
"70 384 LINE",
"70 280 LINE"
);
},
{
closed = 1;
nodes = (
"601 0 LINE",
"601 104 LINE",
"70 104 LINE",
"70 0 LINE"
);
}
);
width = 661;
},
{
associatedMasterId = "16E083CF-37A0-4840-9CF0-495EAF69E79B";
hints = (
{
origin = "{1, 7}";
type = Corner;
name = _corner.dia_dir;
options = 1;
},
{
origin = "{1, 8}";
type = Corner;
name = _corner.dia_esq;
options = 1;
}
);
layerId = "01022158-5D59-46F0-A71A-9D4573A9DEA5";
name = "Bold[150]";
paths = (
{
closed = 1;
nodes = (
"462 276 LINE",
"462 390 LINE",
"50 390 LINE",
"50 276 LINE"
);
},
{
closed = 1;
nodes = (
"290 0 LINE",
"290 509 LINE",
"322 541 LINE",
"430 541 LINE",
"462 509 LINE",
"462 434 LINE",
"627 434 LINE",
"627 670 LINE",
"120 670 LINE",
"120 0 LINE"
);
},
{
closed = 1;
nodes = (
"627 0 LINE",
"627 138 LINE",
"50 138 LINE",
"50 0 LINE"
);
}
);
width = 677;
}
);
leftMetricsKey = C;
rightMetricsKey = E;
unicode = 00A3;
},
{
glyphname = won;
lastChange = "2019-04-12 13:01:23 +0000";
layers = (
{
components = (
{
name = W;
transform = "{1, 0, 0, 1, 87, 0}";
}
);
layerId = "16E083CF-37A0-4840-9CF0-495EAF69E79B";
paths = (
{
closed = 1;
nodes = (
"198 310 LINE",
"198 420 LINE",
"50 420 LINE",
"50 310 LINE"
);
},
{
closed = 1;
nodes = (
"198 460 LINE",
"198 570 LINE",
"50 570 LINE",
"50 460 LINE"
);
},
{
closed = 1;
nodes = (
"1042 310 LINE",
"1042 420 LINE",
"894 420 LINE",
"894 310 LINE"
);
},
{
closed = 1;
nodes = (
"1042 460 LINE",
"1042 570 LINE",
"894 570 LINE",
"894 460 LINE"
);
}
);
width = 1092;
},
{
components = (
{
name = W;
transform = "{1, 0, 0, 1, 60, 0}";
}
);
layerId = "20086791-C5B6-4597-997A-CAD8F8E58507";
paths = (
{
closed = 1;
nodes = (
"905 246 LINE",
"905 336 LINE",
"91 336 LINE",
"91 246 LINE"
);
},
{
closed = 1;
nodes = (
"905 386 LINE",
"905 476 LINE",
"91 476 LINE",
"91 386 LINE"
);
}
);
width = 976;
},
{
associatedMasterId = "20086791-C5B6-4597-997A-CAD8F8E58507";
components = (
{
name = W;
transform = "{1, 0, 0, 1, 60, 0}";
}
);
layerId = "AC769A9C-6B42-4387-BEA9-9F4B381D0495";
name = "Regular [60]";
paths = (
{
closed = 1;
nodes = (
"216 246 LINE",
"216 336 LINE",
"91 336 LINE",
"91 246 LINE"
);
},
{
closed = 1;
nodes = (
"216 386 LINE",
"216 476 LINE",
"91 476 LINE",
"91 386 LINE"
);
},
{
closed = 1;
nodes = (
"905 246 LINE",
"905 336 LINE",
"771 336 LINE",
"771 246 LINE"
);
},
{
closed = 1;
nodes = (
"905 386 LINE",
"905 476 LINE",
"771 476 LINE",
"771 386 LINE"
);
}
);
width = 976;
}
);
leftMetricsKey = euro;
unicode = 20A9;
},
{
glyphname = yen;
lastChange = "2019-04-12 13:01:23 +0000";
layers = (
{
layerId = "16E083CF-37A0-4840-9CF0-495EAF69E79B";
paths = (
{
closed = 1;
nodes = (
"409 0 LINE",
"409 225 LINE",
"476 283 LINE",
"627 670 LINE",
"427 670 LINE",
"330 362 LINE",
"298 362 LINE",
"201 670 LINE",
"0 670 LINE",
"151 283 LINE",
"218 225 LINE",
"218 0 LINE"
);
},
{
closed = 1;
nodes = (
"266 265 LINE",
"266 375 LINE",
"45 375 LINE",
"45 265 LINE"
);
},
{
closed = 1;
nodes = (
"583 265 LINE",
"583 375 LINE",
"369 375 LINE",
"369 265 LINE"
);
},
{
closed = 1;
nodes = (
"266 115 LINE",
"266 225 LINE",
"45 225 LINE",
"45 115 LINE"
);
},
{
closed = 1;
nodes = (
"583 115 LINE",
"583 225 LINE",
"369 225 LINE",
"369 115 LINE"
);
}
);
width = 627;
},
{
layerId = "20086791-C5B6-4597-997A-CAD8F8E58507";
paths = (
{
closed = 1;
nodes = (
"358 0 LINE",
"358 246 LINE",
"435 385 LINE",
"592 670 LINE",
"462 670 LINE",
"312 377 LINE",
"290 377 LINE",
"140 670 LINE",
"10 670 LINE",
"168 384 LINE",
"244 246 LINE",
"244 0 LINE"
);
},
{
closed = 1;
nodes = (
"260 296 LINE",
"260 386 LINE",
"64 386 LINE",
"64 296 LINE"
);
},
{
closed = 1;
nodes = (
"538 296 LINE",
"538 386 LINE",
"357 386 LINE",
"357 296 LINE"
);
},
{
closed = 1;
nodes = (
"260 156 LINE",
"260 246 LINE",
"64 246 LINE",
"64 156 LINE"
);
},
{
closed = 1;
nodes = (
"538 156 LINE",
"538 246 LINE",
"337 246 LINE",
"337 156 LINE"
);
}
);
width = 602;
}
);
leftMetricsKey = Y;
rightMetricsKey = Y;
unicode = 00A5;
},
{
glyphname = bulletoperator;
lastChange = "2019-04-12 13:01:23 +0000";
layers = (
{
layerId = "16E083CF-37A0-4840-9CF0-495EAF69E79B";
paths = (
{
closed = 1;
nodes = (
"219 264 LINE",
"219 407 LINE",
"65 407 LINE",
"65 264 LINE"
);
}
);
width = 294;
},
{
layerId = "20086791-C5B6-4597-997A-CAD8F8E58507";
paths = (
{
closed = 1;
nodes = (
"180 278 LINE",
"180 392 LINE",
"70 392 LINE",
"70 278 LINE"
);
}
);
width = 260;
}
);
leftMetricsKey = period;
rightMetricsKey = period;
unicode = 2219;
},
{
glyphname = commercialMinusSign;
lastChange = "2019-04-12 13:01:23 +0000";
layers = (
{
layerId = "16E083CF-37A0-4840-9CF0-495EAF69E79B";
paths = (
{
closed = 1;
nodes = (
"517 0 LINE",
"517 143 LINE",
"363 143 LINE",
"363 0 LINE"
);
},
{
closed = 1;
nodes = (
"236 527 LINE",
"236 670 LINE",
"82 670 LINE",
"82 527 LINE"
);
},
{
closed = 1;
nodes = (
"544 636 LINE",
"445 698 LINE",
"55 34 LINE",
"154 -28 LINE"
);
}
);
width = 599;
},
{
background = {
paths = (
{
closed = 1;
nodes = (
"602 633.5 LINE",
"536 688.5 LINE",
"63 36.5 LINE",
"131 -18.5 LINE"
);
}
);
};
layerId = "20086791-C5B6-4597-997A-CAD8F8E58507";
paths = (
{
closed = 1;
nodes = (
"536 0 LINE",
"536 114 LINE",
"426 114 LINE",
"426 0 LINE"
);
},
{
closed = 1;
nodes = (
"241 556 LINE",
"241 670 LINE",
"131 670 LINE",
"131 556 LINE"
);
},
{
closed = 1;
nodes = (
"595 623.5 LINE",
"529 678.5 LINE",
"70 46.5 LINE",
"138 -8.5 LINE"
);
}
);
width = 665;
}
);
leftMetricsKey = percent;
rightMetricsKey = percent;
unicode = 2052;
},
{
glyphname = plus;
lastChange = "2019-04-12 13:01:23 +0000";
layers = (
{
layerId = "16E083CF-37A0-4840-9CF0-495EAF69E79B";
paths = (
{
closed = 1;
nodes = (
"455 275 LINE",
"455 395 LINE",
"55 395 LINE",
"55 275 LINE"
);
},
{
closed = 1;
nodes = (
"315 135 LINE",
"315 535 LINE",
"195 535 LINE",
"195 135 LINE"
);
}
);
width = 510;
},
{
layerId = "20086791-C5B6-4597-997A-CAD8F8E58507";
paths = (
{
closed = 1;
nodes = (
"510 290 LINE",
"510 380 LINE",
"70 380 LINE",
"70 290 LINE"
);
},
{
closed = 1;
nodes = (
"335 115 LINE",
"335 555 LINE",
"245 555 LINE",
"245 115 LINE"
);
}
);
width = 580;
}
);
unicode = 002B;
},
{
glyphname = minus;
lastChange = "2019-04-12 13:01:23 +0000";
layers = (
{
layerId = "16E083CF-37A0-4840-9CF0-495EAF69E79B";
paths = (
{
closed = 1;
nodes = (
"455 275 LINE",
"455 395 LINE",
"55 395 LINE",
"55 275 LINE"
);
}
);
width = 510;
},
{
layerId = "20086791-C5B6-4597-997A-CAD8F8E58507";
paths = (
{
closed = 1;
nodes = (
"510 290 LINE",
"510 380 LINE",
"70 380 LINE",
"70 290 LINE"
);
}
);
width = 580;
}
);
leftMetricsKey = plus;
rightMetricsKey = plus;
unicode = 2212;
},
{
glyphname = multiply;
lastChange = "2019-04-12 13:01:23 +0000";
layers = (
{
layerId = "16E083CF-37A0-4840-9CF0-495EAF69E79B";
paths = (
{
closed = 1;
nodes = (
"55 503 LINE",
"140 588 LINE",
"564 164 LINE",
"479 79 LINE"
);
},
{
closed = 1;
nodes = (
"57 167 LINE",
"479 588 LINE",
"564 503 LINE",
"143 81 LINE"
);
}
);
width = 619;
},
{
layerId = "20086791-C5B6-4597-997A-CAD8F8E58507";
paths = (
{
closed = 1;
nodes = (
"70 515 LINE",
"134 579 LINE",
"558 155 LINE",
"494 91 LINE"
);
},
{
closed = 1;
nodes = (
"70 155 LINE",
"494 579 LINE",
"558 515 LINE",
"134 91 LINE"
);
}
);
width = 628;
}
);
leftMetricsKey = plus;
rightMetricsKey = plus;
unicode = 00D7;
},
{
glyphname = divide;
lastChange = "2019-04-12 13:01:23 +0000";
layers = (
{
layerId = "16E083CF-37A0-4840-9CF0-495EAF69E79B";
paths = (
{
closed = 1;
nodes = (
"535 275 LINE",
"535 395 LINE",
"55 395 LINE",
"55 275 LINE"
);
},
{
closed = 1;
nodes = (
"355 88 LINE",
"355 193 LINE",
"235 193 LINE",
"235 88 LINE"
);
},
{
closed = 1;
nodes = (
"355 477 LINE",
"355 582 LINE",
"235 582 LINE",
"235 477 LINE"
);
}
);
width = 590;
},
{
layerId = "20086791-C5B6-4597-997A-CAD8F8E58507";
paths = (
{
closed = 1;
nodes = (
"550 290 LINE",
"550 380 LINE",
"70 380 LINE",
"70 290 LINE"
);
},
{
closed = 1;
nodes = (
"355 95 LINE",
"355 185 LINE",
"265 185 LINE",
"265 95 LINE"
);
},
{
closed = 1;
nodes = (
"355 485 LINE",
"355 575 LINE",
"265 575 LINE",
"265 485 LINE"
);
}
);
width = 620;
}
);
leftMetricsKey = plus;
rightMetricsKey = plus;
unicode = 00F7;
},
{
glyphname = equal;
lastChange = "2019-04-12 13:01:23 +0000";
layers = (
{
layerId = "16E083CF-37A0-4840-9CF0-495EAF69E79B";
paths = (
{
closed = 1;
nodes = (
"535 170 LINE",
"535 290 LINE",
"55 290 LINE",
"55 170 LINE"
);
},
{
closed = 1;
nodes = (
"535 380 LINE",
"535 500 LINE",
"55 500 LINE",
"55 380 LINE"
);
}
);
width = 590;
},
{
layerId = "20086791-C5B6-4597-997A-CAD8F8E58507";
paths = (
{
closed = 1;
nodes = (
"550 190 LINE",
"550 280 LINE",
"70 280 LINE",
"70 190 LINE"
);
},
{
closed = 1;
nodes = (
"550 390 LINE",
"550 480 LINE",
"70 480 LINE",
"70 390 LINE"
);
}
);
width = 620;
}
);
leftMetricsKey = plus;
rightMetricsKey = plus;
unicode = 003D;
},
{
glyphname = notequal;
lastChange = "2019-04-12 13:01:23 +0000";
layers = (
{
layerId = "16E083CF-37A0-4840-9CF0-495EAF69E79B";
paths = (
{
closed = 1;
nodes = (
"535 170 LINE",
"535 290 LINE",
"55 290 LINE",
"55 170 LINE"
);
},
{
closed = 1;
nodes = (
"528 572 LINE",
"428 640 LINE",
"63 99 LINE",
"163 31 LINE"
);
},
{
closed = 1;
nodes = (
"535 380 LINE",
"535 500 LINE",
"55 500 LINE",
"55 380 LINE"
);
}
);
width = 590;
},
{
layerId = "20086791-C5B6-4597-997A-CAD8F8E58507";
paths = (
{
closed = 1;
nodes = (
"550 190 LINE",
"550 280 LINE",
"70 280 LINE",
"70 190 LINE"
);
},
{
closed = 1;
nodes = (
"529.5 583.5 LINE",
"463.5 638.5 LINE",
"90.5 86.5 LINE",
"158.5 31.5 LINE"
);
},
{
closed = 1;
nodes = (
"550 390 LINE",
"550 480 LINE",
"70 480 LINE",
"70 390 LINE"
);
}
);
width = 620;
}
);
unicode = 2260;
},
{
glyphname = greater;
lastChange = "2019-04-12 13:01:23 +0000";
layers = (
{
layerId = "16E083CF-37A0-4840-9CF0-495EAF69E79B";
paths = (
{
closed = 1;
nodes = (
"384 335 LINE",
"140 579 LINE",
"55 493 LINE",
"213 335 LINE",
"55 177 LINE",
"140 91 LINE"
);
}
);
width = 439;
},
{
layerId = "20086791-C5B6-4597-997A-CAD8F8E58507";
paths = (
{
closed = 1;
nodes = (
"378 335 LINE",
"134 579 LINE",
"70 515 LINE",
"250 335 LINE",
"70 155 LINE",
"134 91 LINE"
);
}
);
width = 448;
}
);
leftMetricsKey = plus;
rightMetricsKey = plus;
unicode = 003E;
},
{
glyphname = greaterequal;
lastChange = "2019-04-12 13:01:23 +0000";
layers = (
{
components = (
{
name = greater;
}
);
layerId = "16E083CF-37A0-4840-9CF0-495EAF69E79B";
paths = (
{
closed = 1;
nodes = (
"384 0 LINE",
"384 120 LINE",
"55 120 LINE",
"55 0 LINE"
);
}
);
width = 439;
},
{
components = (
{
name = greater;
}
);
layerId = "20086791-C5B6-4597-997A-CAD8F8E58507";
paths = (
{
closed = 1;
nodes = (
"378 0 LINE",
"378 90 LINE",
"70 90 LINE",
"70 0 LINE"
);
}
);
width = 448;
}
);
unicode = 2265;
},
{
glyphname = lessequal;
lastChange = "2019-04-12 13:01:23 +0000";
layers = (
{
layerId = "16E083CF-37A0-4840-9CF0-495EAF69E79B";
paths = (
{
closed = 1;
nodes = (
"384 177 LINE",
"226 335 LINE",
"384 493 LINE",
"299 579 LINE",
"55 335 LINE",
"299 91 LINE"
);
},
{
closed = 1;
nodes = (
"384 0 LINE",
"384 120 LINE",
"55 120 LINE",
"55 0 LINE"
);
}
);
width = 439;
},
{
layerId = "20086791-C5B6-4597-997A-CAD8F8E58507";
paths = (
{
closed = 1;
nodes = (
"378 155 LINE",
"198 335 LINE",
"378 515 LINE",
"314 579 LINE",
"70 335 LINE",
"314 91 LINE"
);
},
{
closed = 1;
nodes = (
"378 0 LINE",
"378 90 LINE",
"70 90 LINE",
"70 0 LINE"
);
}
);
width = 600;
}
);
unicode = 2264;
},
{
glyphname = approxequal;
lastChange = "2019-04-12 13:01:23 +0000";
layers = (
{
layerId = "16E083CF-37A0-4840-9CF0-495EAF69E79B";
paths = (
{
closed = 1;
nodes = (
"202 166 LINE",
"202 205 LINE",
"217 234 LINE",
"242 234 LINE",
"290 162 LINE",
"485 162 LINE",
"558 238 LINE",
"559 313 LINE",
"422 313 LINE",
"422 274 LINE",
"407 245 LINE",
"382 245 LINE",
"334 317 LINE",
"139 317 LINE",
"66 241 LINE",
"65 166 LINE"
);
},
{
closed = 1;
nodes = (
"202 366 LINE",
"202 405 LINE",
"217 434 LINE",
"242 434 LINE",
"290 362 LINE",
"485 362 LINE",
"558 438 LINE",
"559 513 LINE",
"422 513 LINE",
"422 474 LINE",
"407 445 LINE",
"382 445 LINE",
"334 517 LINE",
"139 517 LINE",
"66 441 LINE",
"65 366 LINE"
);
}
);
width = 624;
},
{
layerId = "20086791-C5B6-4597-997A-CAD8F8E58507";
paths = (
{
closed = 1;
nodes = (
"152 161.5 LINE",
"152 190.5 LINE",
"190 229.5 LINE",
"224 229.5 LINE",
"299 157.5 LINE",
"423 157.5 LINE",
"495 230.5 LINE",
"496 308.5 LINE",
"419 308.5 LINE",
"419 279.5 LINE",
"381 240.5 LINE",
"347 240.5 LINE",
"272 312.5 LINE",
"148 312.5 LINE",
"76 239.5 LINE",
"75 161.5 LINE"
);
},
{
closed = 1;
nodes = (
"152 361.5 LINE",
"152 390.5 LINE",
"190 429.5 LINE",
"224 429.5 LINE",
"299 357.5 LINE",
"423 357.5 LINE",
"495 430.5 LINE",
"496 508.5 LINE",
"419 508.5 LINE",
"419 479.5 LINE",
"381 440.5 LINE",
"347 440.5 LINE",
"272 512.5 LINE",
"148 512.5 LINE",
"76 439.5 LINE",
"75 361.5 LINE"
);
}
);
width = 571;
}
);
leftMetricsKey = n;
rightMetricsKey = d;
unicode = 2248;
},
{
glyphname = asciitilde;
lastChange = "2019-04-12 13:01:23 +0000";
layers = (
{
layerId = "16E083CF-37A0-4840-9CF0-495EAF69E79B";
paths = (
{
closed = 1;
nodes = (
"202 266 LINE",
"202 305 LINE",
"217 334 LINE",
"242 334 LINE",
"290 262 LINE",
"485 262 LINE",
"558 338 LINE",
"559 413 LINE",
"422 413 LINE",
"422 374 LINE",
"407 345 LINE",
"382 345 LINE",
"334 417 LINE",
"139 417 LINE",
"66 341 LINE",
"65 266 LINE"
);
}
);
width = 624;
},
{
guideLines = (
{
angle = 270;
position = "{208.125, 284.125}";
showMeasurement = 1;
}
);
layerId = "20086791-C5B6-4597-997A-CAD8F8E58507";
paths = (
{
closed = 1;
nodes = (
"152 266 LINE",
"152 295 LINE",
"190 334 LINE",
"224 334 LINE",
"299 262 LINE",
"423 262 LINE",
"495 335 LINE",
"496 413 LINE",
"419 413 LINE",
"419 384 LINE",
"381 345 LINE",
"347 345 LINE",
"272 417 LINE",
"148 417 LINE",
"76 344 LINE",
"75 266 LINE"
);
}
);
width = 571;
}
);
leftKerningGroup = asciitilde;
leftMetricsKey = n;
rightKerningGroup = asciitilde;
rightMetricsKey = d;
unicode = 007E;
},
{
glyphname = logicalnot;
lastChange = "2019-04-12 13:01:23 +0000";
layers = (
{
layerId = "16E083CF-37A0-4840-9CF0-495EAF69E79B";
paths = (
{
closed = 1;
nodes = (
"505 354 LINE",
"505 475 LINE",
"55 475 LINE",
"55 354 LINE"
);
},
{
closed = 1;
nodes = (
"384 250 LINE",
"505 250 LINE",
"505 475 LINE",
"384 475 LINE"
);
}
);
width = 560;
},
{
layerId = "20086791-C5B6-4597-997A-CAD8F8E58507";
paths = (
{
closed = 1;
nodes = (
"520 385 LINE",
"520 475 LINE",
"70 475 LINE",
"70 385 LINE"
);
},
{
closed = 1;
nodes = (
"430 250 LINE",
"520 250 LINE",
"520 475 LINE",
"430 475 LINE"
);
}
);
width = 590;
}
);
unicode = 00AC;
},
{
glyphname = asciicircum;
lastChange = "2019-04-12 13:01:23 +0000";
layers = (
{
layerId = "16E083CF-37A0-4840-9CF0-495EAF69E79B";
paths = (
{
closed = 1;
nodes = (
"203 475 LINE",
"300 571 LINE",
"300 571 LINE",
"397 475 LINE",
"534 475 LINE",
"390 670 LINE",
"210 670 LINE",
"65 475 LINE"
);
}
);
width = 599;
},
{
layerId = "20086791-C5B6-4597-997A-CAD8F8E58507";
paths = (
{
closed = 1;
nodes = (
"187 475 LINE",
"275 562 LINE",
"275 562 LINE",
"363 475 LINE",
"475 475 LINE",
"333 670 LINE",
"217 670 LINE",
"75 475 LINE"
);
}
);
width = 550;
}
);
leftKerningGroup = asciicircum;
leftMetricsKey = n;
rightKerningGroup = asciicircum;
rightMetricsKey = d;
unicode = 005E;
},
{
glyphname = percent;
lastChange = "2019-04-12 13:01:23 +0000";
layers = (
{
layerId = "16E083CF-37A0-4840-9CF0-495EAF69E79B";
paths = (
{
closed = 1;
nodes = (
"807 605 LINE",
"724 687 LINE",
"102 65 LINE",
"185 -17 LINE"
);
},
{
closed = 1;
nodes = (
"752 0 LINE",
"855 97 LINE",
"855 241 LINE",
"752 337 LINE",
"601 337 LINE",
"499 241 LINE",
"499 97 LINE",
"601 0 LINE"
);
},
{
closed = 1;
nodes = (
"623 145 LINE",
"623 193 LINE",
"655 225 LINE",
"698 225 LINE",
"730 193 LINE",
"730 145 LINE",
"698 113 LINE",
"655 113 LINE"
);
},
{
closed = 1;
nodes = (
"309 333 LINE",
"411 429 LINE",
"411 573 LINE",
"309 670 LINE",
"157 670 LINE",
"55 573 LINE",
"55 429 LINE",
"157 333 LINE"
);
},
{
closed = 1;
nodes = (
"180 477 LINE",
"180 525 LINE",
"212 557 LINE",
"254 557 LINE",
"286 525 LINE",
"286 477 LINE",
"254 445 LINE",
"212 445 LINE"
);
}
);
width = 910;
},
{
layerId = "20086791-C5B6-4597-997A-CAD8F8E58507";
paths = (
{
closed = 1;
nodes = (
"788 635 LINE",
"725 696 LINE",
"88 35 LINE",
"151 -26 LINE"
);
},
{
closed = 1;
nodes = (
"705 0 LINE",
"806 103 LINE",
"806 222 LINE",
"705 325 LINE",
"551 325 LINE",
"450 222 LINE",
"450 103 LINE",
"551 0 LINE"
);
},
{
closed = 1;
nodes = (
"560 133 LINE",
"560 192 LINE",
"603 235 LINE",
"653 235 LINE",
"696 192 LINE",
"696 133 LINE",
"653 90 LINE",
"603 90 LINE"
);
},
{
closed = 1;
nodes = (
"325 345 LINE",
"426 448 LINE",
"426 567 LINE",
"325 670 LINE",
"171 670 LINE",
"70 567 LINE",
"70 448 LINE",
"171 345 LINE"
);
},
{
closed = 1;
nodes = (
"180 478 LINE",
"180 537 LINE",
"223 580 LINE",
"273 580 LINE",
"316 537 LINE",
"316 478 LINE",
"273 435 LINE",
"223 435 LINE"
);
}
);
width = 876;
}
);
leftMetricsKey = plus;
rightMetricsKey = plus;
unicode = 0025;
},
{
glyphname = perthousand;
lastChange = "2019-04-12 13:01:23 +0000";
layers = (
{
components = (
{
name = percent;
}
);
layerId = "16E083CF-37A0-4840-9CF0-495EAF69E79B";
paths = (
{
closed = 1;
nodes = (
"1149 0 LINE",
"1252 97 LINE",
"1252 241 LINE",
"1149 337 LINE",
"998 337 LINE",
"896 241 LINE",
"896 97 LINE",
"998 0 LINE"
);
},
{
closed = 1;
nodes = (
"1020 145 LINE",
"1020 193 LINE",
"1052 225 LINE",
"1095 225 LINE",
"1127 193 LINE",
"1127 145 LINE",
"1095 113 LINE",
"1052 113 LINE"
);
}
);
width = 1307;
},
{
components = (
{
name = percent;
}
);
layerId = "20086791-C5B6-4597-997A-CAD8F8E58507";
paths = (
{
closed = 1;
nodes = (
"1097.25 0 LINE",
"1198.25 103 LINE",
"1198.25 222 LINE",
"1097.25 325 LINE",
"943.25 325 LINE",
"842.25 222 LINE",
"842.25 103 LINE",
"943.25 0 LINE"
);
},
{
closed = 1;
nodes = (
"952.25 133 LINE",
"952.25 192 LINE",
"995.25 235 LINE",
"1045.25 235 LINE",
"1088.25 192 LINE",
"1088.25 133 LINE",
"1045.25 90 LINE",
"995.25 90 LINE"
);
}
);
width = 1268.25;
}
);
leftMetricsKey = percent;
rightMetricsKey = percent;
unicode = 2030;
},
{
glyphname = lozenge;
lastChange = "2019-04-12 13:01:23 +0000";
layers = (
{
layerId = "16E083CF-37A0-4840-9CF0-495EAF69E79B";
paths = (
{
closed = 1;
nodes = (
"357 0 LINE",
"568 322 LINE",
"568 348 LINE",
"357 670 LINE",
"210 670 LINE",
"0 348 LINE",
"0 322 LINE",
"210 0 LINE"
);
},
{
closed = 1;
nodes = (
"174 334 LINE",
"174 336 LINE",
"284 504 LINE",
"284 504 LINE",
"394 336 LINE",
"394 334 LINE",
"284 166 LINE",
"284 166 LINE"
);
}
);
width = 568;
},
{
layerId = "20086791-C5B6-4597-997A-CAD8F8E58507";
paths = (
{
closed = 1;
nodes = (
"316 0 LINE",
"522 315 LINE",
"522 355 LINE",
"316 670 LINE",
"216 670 LINE",
"10 355 LINE",
"10 315 LINE",
"216 0 LINE"
);
},
{
closed = 1;
nodes = (
"129 333 LINE",
"129 337 LINE",
"266 547 LINE",
"266 547 LINE",
"403 337 LINE",
"403 333 LINE",
"266 123 LINE",
"266 123 LINE"
);
}
);
width = 532;
}
);
leftKerningGroup = lozenge;
leftMetricsKey = V;
rightKerningGroup = lozenge;
rightMetricsKey = V;
unicode = 25CA;
},
{
glyphname = at;
lastChange = "2019-04-12 13:01:23 +0000";
layers = (
{
hints = (
{
horizontal = 1;
place = "{-170, 108}";
type = Stem;
},
{
horizontal = 1;
place = "{20, 90}";
type = Stem;
},
{
horizontal = 1;
place = "{385, -2147483648}";
type = Stem;
},
{
horizontal = 1;
place = "{385, -2147483648}";
type = Stem;
},
{
place = "{48.529, 71.176}";
type = Stem;
},
{
place = "{184.412, 71.176}";
type = Stem;
},
{
place = "{377.882, 71.176}";
type = Stem;
},
{
place = "{524.118, 71.176}";
type = Stem;
}
);
layerId = "16E083CF-37A0-4840-9CF0-495EAF69E79B";
paths = (
{
closed = 1;
nodes = (
"920 -170 LINE",
"1019 -84 LINE",
"945 1 LINE",
"873 -62 LINE",
"317 -62 LINE",
"206 40 LINE",
"206 455 LINE",
"317 558 LINE",
"741 558 LINE",
"852 455 LINE",
"852 156 LINE",
"820 124 LINE",
"794 124 LINE",
"762 156 LINE",
"762 475 LINE",
"592 475 LINE",
"592 421 LINE",
"536 475 LINE",
"381 475 LINE",
"286 386 LINE",
"286 109 LINE",
"381 20 LINE",
"542 20 LINE",
"603 79 LINE",
"651 20 LINE",
"908 20 LINE",
"1008 109 LINE",
"1008 513 LINE",
"837 670 LINE",
"221 670 LINE",
"50 513 LINE",
"50 -13 LINE",
"221 -170 LINE"
);
},
{
closed = 1;
nodes = (
"455 142 LINE",
"455 353 LINE",
"487 385 LINE",
"533 385 LINE",
"592 335 LINE",
"592 154 LINE",
"539 110 LINE",
"487 110 LINE"
);
}
);
width = 1069;
},
{
background = {
paths = (
{
closed = 1;
nodes = (
"833 -170 LINE",
"937 -66 LINE",
"868 4 LINE",
"784 -80 LINE",
"280 -80 LINE",
"180 20 LINE",
"180 480 LINE",
"280 580 LINE",
"705 580 LINE",
"805 480 LINE",
"805 149 LINE",
"771 115 LINE",
"723 115 LINE",
"689 149 LINE",
"689 475 LINE",
"579 475 LINE",
"579 419 LINE",
"521 475 LINE",
"371 475 LINE",
"280 384 LINE",
"280 116 LINE",
"371 25 LINE",
"538 25 LINE",
"606 89 LINE",
"670 25 LINE",
"824 25 LINE",
"915 116 LINE",
"915 529 LINE",
"774 670 LINE",
"211 670 LINE",
"70 529 LINE",
"70 -29 LINE",
"211 -170 LINE"
);
},
{
closed = 1;
nodes = (
"390 165 LINE",
"390 335 LINE",
"440 385 LINE",
"503 385 LINE",
"579 311 LINE",
"579 180 LINE",
"507 115 LINE",
"440 115 LINE"
);
}
);
};
guideLines = (
{
angle = 133.2951;
position = "{889.75, 29.75}";
showMeasurement = 1;
}
);
hints = (
{
horizontal = 1;
origin = "{0, 32}";
target = "{0, 4}";
type = Stem;
},
{
horizontal = 1;
origin = "{0, 21}";
target = "{0, 20}";
type = Stem;
},
{
horizontal = 1;
origin = "{0, 19}";
target = "{0, 18}";
type = Stem;
},
{
horizontal = 1;
origin = "{0, 7}";
target = "{0, 29}";
type = Stem;
},
{
place = "{75, 110}";
type = Stem;
},
{
place = "{285, 110}";
type = Stem;
},
{
place = "{584, 110}";
type = Stem;
},
{
place = "{810, 110}";
type = Stem;
}
);
layerId = "20086791-C5B6-4597-997A-CAD8F8E58507";
paths = (
{
closed = 1;
nodes = (
"833 -170 LINE",
"937 -66 LINE",
"868 4 LINE",
"784 -80 LINE",
"274 -80 LINE",
"180 14 LINE",
"180 486 LINE",
"274 580 LINE",
"711 580 LINE",
"805 486 LINE",
"805 149 LINE",
"771 115 LINE",
"723 115 LINE",
"689 149 LINE",
"689 475 LINE",
"579 475 LINE",
"579 419 LINE",
"521 475 LINE",
"381 475 LINE",
"280 374 LINE",
"280 126 LINE",
"381 25 LINE",
"538 25 LINE",
"606 89 LINE",
"670 25 LINE",
"824 25 LINE",
"915 116 LINE",
"915 529 LINE",
"774 670 LINE",
"211 670 LINE",
"70 529 LINE",
"70 -29 LINE",
"211 -170 LINE"
);
},
{
closed = 1;
nodes = (
"390 165 LINE",
"390 335 LINE",
"440 385 LINE",
"503 385 LINE",
"579 311 LINE",
"579 180 LINE",
"507 115 LINE",
"440 115 LINE"
);
}
);
width = 1007;
}
);
leftKerningGroup = at;
leftMetricsKey = O;
rightKerningGroup = at;
rightMetricsKey = O;
unicode = 0040;
},
{
glyphname = ampersand;
lastChange = "2019-04-12 13:01:23 +0000";
layers = (
{
layerId = "16E083CF-37A0-4840-9CF0-495EAF69E79B";
paths = (
{
closed = 1;
nodes = (
"743 88 LINE",
"678 156 LINE",
"743 221 LINE",
"640 324 LINE",
"576 259 LINE",
"480 356 LINE",
"498 373 LINE",
"591 458 LINE",
"591 581 LINE",
"495 670 LINE",
"204 670 LINE",
"108 581 LINE",
"108 453 LINE",
"207 363 LINE",
"188 345 LINE",
"70 236 LINE",
"70 89 LINE",
"166 0 LINE",
"525 0 LINE",
"576 52 LINE",
"641 -14 LINE"
);
},
{
closed = 1;
nodes = (
"290 480 LINE",
"290 536 LINE",
"322 568 LINE",
"385 568 LINE",
"417 536 LINE",
"417 480 LINE",
"367 430 LINE",
"340 430 LINE"
);
},
{
closed = 1;
nodes = (
"264 131 LINE",
"264 197 LINE",
"331 260 LINE",
"345 274 LINE",
"469 150 LINE",
"418 99 LINE",
"296 99 LINE"
);
}
);
width = 793;
},
{
background = {
paths = (
{
closed = 1;
nodes = (
"672 62 LINE",
"592 140 LINE",
"674 229 LINE",
"602 300 LINE",
"520 210 LINE",
"383 344 LINE",
"420 366 LINE",
"513 458 LINE",
"513 579 LINE",
"422 670 LINE",
"216 670 LINE",
"125 579 LINE",
"125 458 LINE",
"224 361 LINE",
"194 343 LINE",
"85 235 LINE",
"85 91 LINE",
"176 0 LINE",
"465 0 LINE",
"525 66 LINE",
"601 -8 LINE"
);
},
{
closed = 1;
nodes = (
"195 140 LINE",
"195 205 LINE",
"267 276 LINE",
"294 292 LINE",
"453 137 LINE",
"410 90 LINE",
"245 90 LINE"
);
},
{
closed = 1;
nodes = (
"235 488 LINE",
"235 530 LINE",
"286 580 LINE",
"353 580 LINE",
"403 530 LINE",
"403 488 LINE",
"346 432 LINE",
"313 412 LINE"
);
}
);
};
layerId = "20086791-C5B6-4597-997A-CAD8F8E58507";
paths = (
{
closed = 1;
nodes = (
"672 62 LINE",
"592 140 LINE",
"674 229 LINE",
"602 300 LINE",
"520 210 LINE",
"383 344 LINE",
"420 366 LINE",
"513 458 LINE",
"513 569 LINE",
"412 670 LINE",
"226 670 LINE",
"125 569 LINE",
"125 458 LINE",
"224 361 LINE",
"194 343 LINE",
"85 235 LINE",
"85 101 LINE",
"186 0 LINE",
"465 0 LINE",
"525 66 LINE",
"601 -8 LINE"
);
},
{
closed = 1;
nodes = (
"235 488 LINE",
"234.75 540 LINE",
"275 580.125 LINE",
"363 580.25 LINE",
"403.125 540 LINE",
"403 488 LINE",
"346 432 LINE",
"313 412 LINE"
);
},
{
closed = 1;
nodes = (
"194.875 130 LINE",
"195 205 LINE",
"267 276 LINE",
"294 292 LINE",
"453 137 LINE",
"410 90 LINE",
"235 89.75 LINE"
);
}
);
width = 744;
}
);
leftKerningGroup = ampersand;
leftMetricsKey = H;
rightKerningGroup = ampersand;
rightMetricsKey = O;
unicode = 0026;
},
{
glyphname = paragraph;
lastChange = "2019-04-12 13:01:23 +0000";
layers = (
{
layerId = "16E083CF-37A0-4840-9CF0-495EAF69E79B";
paths = (
{
closed = 1;
nodes = (
"476 196 LINE",
"476 669 LINE",
"166 669 LINE",
"50 555 LINE",
"50 310 LINE",
"166 196 LINE"
);
},
{
closed = 1;
nodes = (
"489 -113 LINE",
"489 669 LINE",
"323 669 LINE",
"323 -113 LINE"
);
},
{
closed = 1;
nodes = (
"704 -113 LINE",
"704 669 LINE",
"537 669 LINE",
"537 -113 LINE"
);
},
{
closed = 1;
nodes = (
"772 561 LINE",
"772 669 LINE",
"453 669 LINE",
"448 561 LINE"
);
}
);
width = 827;
},
{
layerId = "20086791-C5B6-4597-997A-CAD8F8E58507";
paths = (
{
closed = 1;
nodes = (
"435 219 LINE",
"435 669 LINE",
"166 669 LINE",
"65 568 LINE",
"65 320 LINE",
"166 219 LINE"
);
},
{
closed = 1;
nodes = (
"448 -113 LINE",
"448 669 LINE",
"338 669 LINE",
"338 -113 LINE"
);
},
{
closed = 1;
nodes = (
"604 -113 LINE",
"604 669 LINE",
"494 669 LINE",
"494 -113 LINE"
);
},
{
closed = 1;
nodes = (
"672 579 LINE",
"672 669 LINE",
"410 669 LINE",
"405 579 LINE"
);
}
);
width = 742;
}
);
leftKerningGroup = paragraph;
leftMetricsKey = d;
rightKerningGroup = paragraph;
rightMetricsKey = h;
unicode = 00B6;
},
{
glyphname = section;
lastChange = "2019-04-12 13:01:23 +0000";
layers = (
{
layerId = "16E083CF-37A0-4840-9CF0-495EAF69E79B";
paths = (
{
closed = 1;
nodes = (
"474 -60 LINE",
"566 30 LINE",
"566 132 LINE",
"513 179 LINE",
"566 229 LINE",
"566 354 LINE",
"428 480 LINE",
"283 480 LINE",
"258 505 LINE",
"258 537 LINE",
"283 562 LINE",
"531 562 LINE",
"531 670 LINE",
"177 670 LINE",
"85 580 LINE",
"85 482 LINE",
"138 436 LINE",
"85 385 LINE",
"85 253 LINE",
"224 134 LINE",
"375 134 LINE",
"400 109 LINE",
"400 72 LINE",
"375 47 LINE",
"102 48 LINE",
"102 -60 LINE"
);
},
{
closed = 1;
nodes = (
"231 291 LINE",
"231 345 LINE",
"256 370 LINE",
"366 370 LINE",
"420 318 LINE",
"420 270 LINE",
"395 245 LINE",
"284 245 LINE"
);
}
);
width = 651;
},
{
background = {
paths = (
{
closed = 1;
nodes = (
"442 -60 LINE",
"528 33 LINE",
"528 139 LINE",
"483 181 LINE",
"528 229 LINE",
"528 344 LINE",
"385 481 LINE",
"233 481 LINE",
"200 511 LINE",
"200 547 LINE",
"231 580 LINE",
"494 580 LINE",
"494 670 LINE",
"176 670 LINE",
"90 577 LINE",
"90 478 LINE",
"135 436 LINE",
"90 388 LINE",
"90 262 LINE",
"234 136 LINE",
"385 136 LINE",
"418 106 LINE",
"418 63 LINE",
"387 30 LINE",
"106 30 LINE",
"106 -60 LINE"
);
},
{
closed = 1;
nodes = (
"200 297 LINE",
"200 358 LINE",
"231 391 LINE",
"335 391 LINE",
"418 311 LINE",
"418 259 LINE",
"387 226 LINE",
"282 226 LINE"
);
}
);
};
layerId = "20086791-C5B6-4597-997A-CAD8F8E58507";
paths = (
{
closed = 1;
nodes = (
"435 -60 LINE",
"528 33 LINE",
"528 139 LINE",
"484.125 182.125 LINE",
"528 226 LINE",
"528 344 LINE",
"385 481 LINE",
"257 481 LINE",
"214 524 LINE",
"214 547 LINE",
"245 580 LINE",
"494 580 LINE",
"494 670 LINE",
"191 670 LINE",
"90 569 LINE",
"90 487 LINE",
"144 434.125 LINE",
"90 380 LINE",
"90 262 LINE",
"219 136 LINE",
"385 136 LINE",
"418 101 LINE",
"418 69 LINE",
"380 30 LINE",
"106 30 LINE",
"106 -60 LINE"
);
},
{
closed = 1;
nodes = (
"200 299 LINE",
"200 358 LINE",
"231 391 LINE",
"330 391 LINE",
"418 307 LINE",
"418 259 LINE",
"385 226 LINE",
"275 226 LINE"
);
}
);
width = 618;
}
);
leftKerningGroup = section;
rightKerningGroup = section;
unicode = 00A7;
},
